<?xml version="1.0" encoding="UTF-8" standalone="no"?>
<!-- Created with Inkscape (http://www.inkscape.org/) -->

<svg
   xmlns:dc="http://purl.org/dc/elements/1.1/"
   xmlns:cc="http://creativecommons.org/ns#"
   xmlns:rdf="http://www.w3.org/1999/02/22-rdf-syntax-ns#"
   xmlns:svg="http://www.w3.org/2000/svg"
   xmlns="http://www.w3.org/2000/svg"
   xmlns:sodipodi="http://sodipodi.sourceforge.net/DTD/sodipodi-0.dtd"
   xmlns:inkscape="http://www.inkscape.org/namespaces/inkscape"
   width="207.80443mm"
   height="209.21451mm"
   viewBox="0 0 207.80443 209.21451"
   version="1.1"
   id="svg8"
   inkscape:version="0.92.3 (2405546, 2018-03-11)"
   sodipodi:docname="Truffle Pig.svg">
  <title
     id="title149">Truffle Pig</title>
  <defs
     id="defs2" />
  <sodipodi:namedview
     id="base"
     pagecolor="#ffffff"
     bordercolor="#666666"
     borderopacity="1.0"
     inkscape:pageopacity="0.0"
     inkscape:pageshadow="2"
     inkscape:zoom="0.49628906"
     inkscape:cx="-34.1622"
     inkscape:cy="407.14262"
     inkscape:document-units="mm"
     inkscape:current-layer="layer1"
     showgrid="false"
     fit-margin-top="0"
     fit-margin-left="0"
     fit-margin-right="0"
     fit-margin-bottom="0"
     inkscape:window-width="1600"
     inkscape:window-height="845"
     inkscape:window-x="0"
     inkscape:window-y="27"
     inkscape:window-maximized="1" />
  <metadata
     id="metadata5">
    <rdf:RDF>
      <cc:Work
         rdf:about="">
        <dc:format>image/svg+xml</dc:format>
        <dc:type
           rdf:resource="http://purl.org/dc/dcmitype/StillImage" />
        <dc:title>Truffle Pig</dc:title>
        <dc:date>2022</dc:date>
        <dc:creator>
          <cc:Agent>
            <dc:title>Doodleguy</dc:title>
          </cc:Agent>
        </dc:creator>
        <dc:rights>
          <cc:Agent>
            <dc:title>public domain</dc:title>
          </cc:Agent>
        </dc:rights>
        <cc:license
           rdf:resource="http://creativecommons.org/publicdomain/zero/1.0/" />
      </cc:Work>
      <cc:License
         rdf:about="http://creativecommons.org/publicdomain/zero/1.0/">
        <cc:permits
           rdf:resource="http://creativecommons.org/ns#Reproduction" />
        <cc:permits
           rdf:resource="http://creativecommons.org/ns#Distribution" />
        <cc:permits
           rdf:resource="http://creativecommons.org/ns#DerivativeWorks" />
      </cc:License>
    </rdf:RDF>
  </metadata>
  <g
     inkscape:groupmode="layer"
     id="layer2"
     inkscape:label="bund"
     transform="translate(-0.78888151,-85.679868)" />
  <g
     inkscape:label="Layer 1"
     inkscape:groupmode="layer"
     id="layer1"
     transform="translate(-0.78888151,-85.679868)">
    <g
       id="g147">
      <path
         transform="scale(0.26458333)"
         inkscape:connector-curvature="0"
         id="path26"
         d="m 414.49612,441.21595 c -14.43637,0.72325 -27.57074,8.29584 -37.21627,18.78524 -14.37241,14.4467 -28.87967,30.34571 -35.35,50.05883 -4.10124,17.03417 -2.29536,35.23309 -4.90717,52.17521 -4.36794,-9.60772 -2.18914,-21.05335 -1.98394,-31.39157 0.15587,-15.70779 6.45825,-30.4168 15.34597,-43.1151 2.13027,-4.79293 8.08615,-9.83964 6.05946,-15.49333 -6.30062,-5.48446 -15.17814,-7.28142 -22.82369,-10.36797 -11.89978,-3.47083 -25.33403,-4.6123 -37.18221,-0.36796 -14.13675,6.27756 -26.33286,16.81043 -33.5124,30.64148 -7.88959,11.71932 -9.44925,25.95372 -11.40693,39.54349 -0.52289,3.87451 -2.7319,-0.82969 -2.44588,-2.37702 -1.38387,-9.26221 3.60728,-17.83486 4.41362,-26.81228 -2.19328,-3.57095 -7.83723,-1.13768 -11.31641,-1.76112 -16.06275,0.35072 -32.07318,6.07221 -43.60882,17.50099 -6.64993,6.74044 -15.80957,12.35026 -19.05549,21.63518 -2.29657,6.96462 -0.42845,15.21339 -3.37072,21.67257 -4.69643,-6.46083 -1.57954,-15.48948 0.77135,-22.38686 2.37155,-7.76638 10.25858,-12.38797 12.87682,-19.8288 -1.31804,-4.7534 -8.00137,-4.94737 -11.97363,-6.21016 -21.5726,-3.19649 -40.91747,11.75243 -53.68556,27.62299 -12.56029,16.62921 -24.878699,33.89102 -33.085401,53.13655 -6.426762,25.08695 -8.477062,52.09646 -1.95002,77.36128 1.259074,5.48109 6.760639,8.41011 9.00433,13.11098 -6.937124,18.70287 -14.720048,37.53456 -15.565367,57.76184 -2.275012,26.40614 3.20895,53.62216 15.740494,76.96858 2.863094,5.76474 10.529324,12.73204 16.889024,7.47147 6.15876,-3.8809 10.34404,-11.84178 17.84533,-13.13853 1.15278,2.01783 -3.45339,3.03169 -4.75797,4.14797 -5.77834,3.77793 -9.35769,9.91373 -11.11963,16.36955 -9.83221,15.47006 -12.21332,34.19216 -14.70288,51.96772 1.18866,10.63513 9.65223,18.70203 13.88892,28.19766 6.80524,11.73733 9.73919,25.92355 18.7262,36.27303 3.70414,-1.39454 1.39013,-7.81037 4.15977,-9.66156 4.87199,4.09887 2.15942,11.86824 2.08336,17.36413 -0.79285,4.20258 -1.36764,9.9746 3.7549,11.63233 5.95663,2.75155 13.20998,4.56901 19.61629,3.33924 0.73828,-8.23564 -1.47923,-16.9585 -4.48939,-24.68348 -1.24491,-2.99992 3.04006,3.01306 3.72591,4.87632 4.24,7.2913 4.22578,16.1078 7.2865,23.69933 3.03276,1.33224 7.42406,0.79333 10.27548,-0.82251 3.53629,-8.39409 0.33091,-18.01293 0.0917,-26.79565 -1.7007,-16.84613 -7.80192,-33.4868 -18.49985,-46.6892 -1.961,-1.70247 0.5695,-5.33784 2.11924,-2.38293 2.93083,4.72667 6.78211,10.22248 12.38686,11.68438 7.06456,-4.1138 9.75643,-13.01865 12.69382,-20.20857 5.0903,-16.45184 8.29539,-34.51317 4.2011,-51.50728 -1.43594,-5.32295 -6.73027,-9.57859 -7.80008,-14.55136 5.61042,5.02228 8.61403,12.71119 11.38528,19.64974 3.87769,17.25881 0.17353,35.53859 -5.64344,51.95986 -2.48335,5.4229 -7.44862,12.90855 -1.62535,18.07162 7.11851,7.48929 18.78181,3.89108 27.85714,4.13617 7.19133,-0.90317 15.03187,-0.37528 21.79064,-3.00866 1.89649,-13.05352 -6.64124,-26.05278 -1.66667,-38.93349 2.26118,-6.26175 3.79838,-14.54563 9.42346,-18.4632 -4.70271,9.25845 -5.59769,20.09014 -6.6037,30.305 0.99684,9.31886 3.64319,18.52531 6.65486,27.38489 1.41319,3.47811 6.06675,7.01854 2.0617,10.65403 -5.32445,9.04778 -10.24466,18.4525 -15.0251,27.697 -8.63112,12.09757 -14.8446,25.92237 -19.76781,39.89571 -1.1138,11.75298 5.65437,22.50918 7.47147,33.92168 3.20072,11.2546 3.70992,23.5571 8.96694,34.1106 4.18824,6.7563 14.60365,4.3632 17.35144,-2.4538 3.75603,-6.3978 1.89137,-14.7739 -4.14601,-19.0692 1.22936,-1.5174 5.06794,0.8619 6.32625,2.5836 7.47769,7.0072 0.79732,16.4446 0.18103,24.5297 3.75604,3.4354 10.34063,1.1712 14.36049,-0.9701 5.7202,-2.8994 10.92216,-9.0683 8.2133,-15.8048 -0.26429,-2.5899 -3.14852,-6.5155 -2.12908,-8.5065 5.68381,5.1804 8.41325,13.8045 3.83313,20.614 -1.14725,1.7517 -2.90262,6.7917 1.01929,6.0704 6.8964,-1.4506 17.07541,-2.6326 19.21881,-10.6789 1.24589,-6.8503 0.33771,-14.6968 1.80441,-21.0428 3.56642,7.649 1.49637,16.9687 4.31916,24.7245 2.90769,0.4083 2.65255,-4.8918 3.53995,-6.7395 6.248,-29.9978 7.07708,-61.70884 19.77764,-89.95475 3.47524,-8.85289 15.01903,-6.73726 20.50571,-13.50649 11.41115,-13.12841 24.5392,-27.91424 24.26997,-46.42661 0.73294,-9.75479 -2.47014,-19.824 -0.57064,-29.35655 4.06761,4.9361 3.5026,12.62807 4.74039,18.78048 1.74883,10.43066 -0.17905,21.2456 -6.29056,30.00777 -7.31858,13.1537 -18.35905,23.94695 -25.57695,37.06378 0.5699,4.49953 7.02772,4.989 10.06716,7.38605 21.51441,11.19841 47.00279,12.48435 70.49168,8.10981 22.07043,-5.62309 38.71641,-22.5751 55.82448,-36.56238 3.29755,-2.82576 9.23655,-8.00868 4.42739,-12.22747 -5.14031,-6.53222 -13.60255,-8.43505 -21.4266,-8.1031 3.21159,-2.96599 10.00212,-1.11017 13.74852,1.07241 20.64918,16.05502 36.839,37.29412 58.07597,52.61275 14.95969,6.86969 32.00702,7.45241 48.21283,8.24879 14.645,-0.10169 32.13584,-1.3403 42.09963,-13.57307 6.18824,-9.3385 2.77149,-21.30406 3.75358,-31.77883 -1.0322,-9.35913 2.90322,-21.74422 -5.78231,-28.49468 -6.60093,-4.51557 -14.21389,0.81329 -18.56946,5.96024 -12.46389,11.86898 -29.87897,19.17996 -47.13105,18.60095 -23.64264,-2.85219 -48.12652,-12.53259 -62.30224,-32.60724 -12.18494,-17.33137 -21.39657,-36.94498 -27.14854,-57.31114 -3.18989,-10.57515 -1.33185,-22.16266 -5.22651,-32.49012 -8.685,-14.12923 -22.88986,-23.72256 -32.51869,-37.17827 -5.52297,-5.82264 -9.20246,-13.37762 -8.3294,-21.54664 0.0286,-10.15039 6.4332,-19.46008 13.64423,-26.13931 15.18995,-10.91152 34.24461,-14.18351 51.65093,-20.14759 17.07404,-5.86007 35.42988,-4.64511 53.05588,-5.88744 1.45708,-10.48572 -6.77834,-19.14886 -8.50649,-29.15584 -3.78042,-12.49848 -1.84934,-27.17463 5.64148,-37.55805 -6.13167,11.48765 -7.82187,25.17649 -3.60685,37.61904 3.99687,12.9314 10.43012,27.18424 24.11846,32.16844 12.38491,5.69401 26.49336,9.29898 40.02951,6.09012 11.58929,-5.05238 11.55806,-19.65974 12.9533,-30.33938 1.22195,-7.3578 0.16768,-15.59006 3.10337,-22.43905 3.50872,1.84316 2.69315,7.59161 3.28611,11.03306 0.70472,11.38864 -4.51473,22.50062 -3.44155,33.81739 10.16797,11.8536 27.41793,11.81514 41.76111,11.34002 11.76578,-2.11382 23.57317,-11.72134 23.92955,-24.4569 2.59872,-6.09028 -2.35605,-9.12715 -6.49754,-12.46922 -2.70609,-3.05536 -7.73121,-6.19837 -7.64453,-10.61224 4.15073,0.31611 10.83815,4.37029 13.1405,-1.67651 2.67518,-8.07768 1.65052,-18.18881 -5.6866,-23.58733 -13.69619,-12.17603 -30.59432,-22.70541 -49.55346,-22.55198 5.42289,-5.23864 13.09425,-4.05611 19.73829,-3.8843 2.06421,-15.71878 -9.48447,-28.82101 -21.35379,-37.3534 -14.62704,-9.45609 -33.26048,-8.38469 -49.81413,-6.32995 -9.94583,1.42139 -18.83026,6.3425 -28.26341,9.30318 -4.56247,2.94158 -12.38373,5.32267 -12.73514,11.66273 3.29782,4.53114 -1.91918,2.86537 -5.496,2.76824 -20.35234,-1.59516 -41.08725,-2.52788 -60.83482,-7.98481 -28.28962,-9.76397 -59.00875,-18.82474 -79.33751,-42.29208 -5.05167,-4.64601 -9.23539,-11.04336 -7.15536,-18.17808 3.29308,-15.66092 14.98325,-28.49014 27.5915,-37.64463 5.00626,-3.71256 14.20445,-2.23978 15.60212,-9.84258 2.62666,-7.24117 8.41235,-13.47442 9.65368,-21.10193 -1.79139,-5.37337 -3.90174,-11.59267 -8.50255,-15.14168 -2.18325,-0.87224 -4.59308,-0.91986 -6.91067,-0.83628 z m 150.78709,172.68988 c 1.824,0.26856 5.76182,-0.40567 6.66273,0.80874 -8.14992,3.24022 -17.60106,2.23491 -25.41519,6.41677 4.74224,-5.471 11.66387,-7.66127 18.75246,-7.22551 z m 19.11846,19.1342 c 5.52595,2.38508 7.98897,9.56587 5.2007,14.98819 -3.30804,9.1911 -7.97245,19.04366 -15.95828,24.8544 -3.6447,-1.75268 -10.37123,-5.37748 -7.03463,-10.29714 3.85,-6.33549 9.55551,-12.37644 8.66194,-20.35418 1.35266,-3.95449 5.30913,-7.70131 9.13027,-9.19127 z m 42.6033,13.15427 c 9.68904,3.57248 14.05903,15.21523 14.11255,24.87406 0.34803,5.445 -3.18691,12.02165 -9.5179,10.88745 -7.06917,-0.79327 -10.51908,-9.54097 -11.18654,-15.88941 1.68949,-5.73191 2.96295,-11.70433 3.53601,-17.5856 0.41451,-1.3252 1.56649,-2.50641 3.05588,-2.2865 z"
         style="opacity:1;vector-effect:none;fill:#6c5353;fill-opacity:1;stroke:none;stroke-width:4.05529499;stroke-linecap:round;stroke-linejoin:miter;stroke-miterlimit:4;stroke-dasharray:none;stroke-dashoffset:0;stroke-opacity:1" />
      <path
         transform="scale(0.26458333)"
         inkscape:connector-curvature="0"
         id="path28"
         d="m 537.46072,700.76569 c -0.87864,0.0559 -1.76286,0.0995 -2.64415,0.14911 -0.0968,-0.004 -0.20019,0.0429 -0.23105,0.14045 -0.0414,0.11705 0.048,0.25208 0.17143,0.26199 0.70921,0.0598 1.42671,0.0839 2.13375,-0.0134 0.22126,-0.0381 0.44593,-0.073 0.65684,-0.15245 0.11115,-0.0432 0.16235,-0.18991 0.0957,-0.29041 -0.0372,-0.0627 -0.11037,-0.0978 -0.18252,-0.0953 z"
         style="opacity:1;vector-effect:none;fill:#6c5353;fill-opacity:1;stroke:none;stroke-width:0.03168199;stroke-linecap:round;stroke-linejoin:miter;stroke-miterlimit:4;stroke-dasharray:none;stroke-dashoffset:0;stroke-opacity:1" />
      <path
         transform="scale(0.26458333)"
         inkscape:connector-curvature="0"
         id="path30"
         d="m 356.66533,472.77811 c -0.13369,0.003 -0.22517,0.1458 -0.18836,0.27065 0.0687,0.35333 0.13318,0.70866 0.15874,1.06859 -0.004,0.1326 0.12817,0.25693 0.2604,0.21144 0.13295,-0.0318 0.15932,-0.18104 0.17096,-0.29686 0.0258,-0.24993 0.0616,-0.51041 -0.009,-0.75626 -0.0517,-0.15865 -0.13569,-0.30858 -0.24167,-0.43708 -0.0401,-0.041 -0.0952,-0.0586 -0.15148,-0.0605 z"
         style="opacity:1;vector-effect:none;fill:#6c5353;fill-opacity:1;stroke:none;stroke-width:0.0448051;stroke-linecap:round;stroke-linejoin:miter;stroke-miterlimit:4;stroke-dasharray:none;stroke-dashoffset:0;stroke-opacity:1" />
      <path
         transform="scale(0.26458333)"
         inkscape:connector-curvature="0"
         id="path32"
         d="m 252.80155,501.53005 c -0.14541,0.0522 -0.17258,0.25352 -0.0603,0.35274 0.1942,0.2003 0.3644,0.42146 0.52825,0.64646 0.10878,0.13719 0.35507,0.0561 0.35892,-0.11994 0.0361,-0.32576 -0.1991,-0.60471 -0.46481,-0.75911 -0.11008,-0.0626 -0.22645,-0.1619 -0.36203,-0.12015 z"
         style="opacity:1;vector-effect:none;fill:#6c5353;fill-opacity:1;stroke:none;stroke-width:0.06336398;stroke-linecap:round;stroke-linejoin:miter;stroke-miterlimit:4;stroke-dasharray:none;stroke-dashoffset:0;stroke-opacity:1" />
      <path
         transform="scale(0.26458333)"
         inkscape:connector-curvature="0"
         id="path34"
         d="m 102.5393,886.89092 c -0.18566,0.0463 -0.17468,0.26779 -0.20775,0.41633 -0.0251,0.14292 -0.0748,0.30254 0.0251,0.4295 0.0971,0.16937 0.16702,0.35918 0.28409,0.51462 0.11387,0.1281 0.34301,0.0332 0.34199,-0.13575 -0.0538,-0.35574 -0.13171,-0.69701 -0.19087,-1.04588 -0.0184,-0.11797 -0.13396,-0.20437 -0.25257,-0.17882 z"
         style="opacity:1;vector-effect:none;fill:#6c5353;fill-opacity:1;stroke:none;stroke-width:0.06336398;stroke-linecap:round;stroke-linejoin:miter;stroke-miterlimit:4;stroke-dasharray:none;stroke-dashoffset:0;stroke-opacity:1" />
      <path
         transform="scale(0.26458333)"
         inkscape:connector-curvature="0"
         id="path36"
         d="m 627.81723,928.45084 c -0.22717,0.19572 -0.10255,0.555 -0.1581,0.81986 -0.10479,2.78508 -0.22033,5.57881 0.017,8.36065 0.072,0.9583 -0.11001,1.96104 -0.11056,2.95507 -0.10552,3.57752 0.10909,7.16342 0.19448,10.73217 10e-4,0.27702 0.43501,0.26355 0.42915,-0.0111 0.11685,-1.35693 0.10882,-2.7228 0.15223,-4.08387 0.0575,-4.28209 0.0555,-8.56549 -0.014,-12.84744 -0.0422,-1.91966 -0.10823,-3.84632 -0.20615,-5.75903 -0.0289,-0.14306 -0.16509,-0.2158 -0.30402,-0.16627 z"
         style="opacity:1;vector-effect:none;fill:#6c5353;fill-opacity:1;stroke:none;stroke-width:0.17922041;stroke-linecap:round;stroke-linejoin:miter;stroke-miterlimit:4;stroke-dasharray:none;stroke-dashoffset:0;stroke-opacity:1" />
      <path
         transform="scale(0.26458333)"
         inkscape:connector-curvature="0"
         id="path38"
         d="m 333.81777,964.3492 c -2.54227,0.27826 -4.18479,2.59971 -5.48732,4.57178 -4.52529,7.55862 -6.3466,16.30465 -8.55725,24.72836 -2.36979,8.93986 -3.65565,18.14506 -4.04705,27.37956 0.0741,1.879 -0.41494,4.1893 0.98581,5.7111 1.06439,0.8839 2.35645,-0.3124 3.31917,-0.8028 2.26449,-1.4095 4.43956,-3.2617 5.23721,-5.9086 1.95003,-5.6652 1.70405,-11.7803 3.09725,-17.5694 0.45425,-1.5276 0.61371,-3.37197 1.80777,-4.52695 0.65109,-0.014 0.71006,1.00883 0.90057,1.47593 0.92518,4.80072 0.66556,9.85942 0.24079,14.74842 -0.45514,4.2925 -1.57756,9.0872 -5.29781,11.7622 -1.84062,1.4177 -4.60958,2.0576 -5.47653,4.4615 -0.45747,1.9217 1.49156,3.2913 3.0002,3.9874 3.63021,1.786 7.85703,1.9402 11.72841,0.9165 3.65335,-0.9049 7.49818,-2.1082 10.08519,-5.0097 3.19893,-3.017 4.92975,-7.2939 5.74888,-11.5405 0.13638,-2.5288 0.35055,-5.139 -0.25393,-7.6237 -0.63049,-2.4711 -2.09067,-4.5879 -3.23499,-6.8253 -0.32787,-0.5469 -0.39394,-1.8814 0.54404,-1.7444 2.42397,0.9718 4.12799,3.1877 5.39007,5.3918 3.24293,6.1607 2.37415,13.9812 -1.36268,19.7604 -1.51769,2.4026 -3.8699,4.0726 -5.68976,6.2067 -0.66841,0.6451 -0.77879,1.9866 0.27654,2.2951 2.02991,0.5954 4.20422,0.024 6.25153,-0.2321 4.263,-0.897 8.59598,-2.226 12.12879,-4.8563 2.68088,-1.9834 3.3133,-5.4625 3.62488,-8.5674 0.82963,-9.3248 0.91524,-18.6972 1.3026,-28.04702 0.12027,-4.42419 0.33263,-8.85051 0.34521,-13.27505 -2.13954,-1.27892 -4.56119,-2.18514 -6.81446,-3.30604 -6.60549,-2.9812 -13.09865,-6.26473 -19.92988,-8.70865 -2.5317,-0.43752 -3.67408,-3.11431 -5.96631,-4.034 -1.20534,-0.60383 -2.55403,-0.85617 -3.89694,-0.81884 z"
         style="opacity:1;vector-effect:none;fill:#6c5353;fill-opacity:1;stroke:none;stroke-width:0.71688163;stroke-linecap:round;stroke-linejoin:miter;stroke-miterlimit:4;stroke-dasharray:none;stroke-dashoffset:0;stroke-opacity:1" />
      <path
         transform="scale(0.26458333)"
         inkscape:connector-curvature="0"
         id="path40"
         d="m 182.81064,916.37774 c -1.41806,-0.0613 -2.67868,1.01616 -2.95086,2.3903 -0.72084,3.10026 0.77463,6.13554 2.03035,8.87633 2.64616,6.21151 4.00496,12.8632 6.04408,19.28522 0.66623,1.92305 1.78627,4.09072 3.96562,4.54653 2.07827,0.40256 4.36185,0.65584 6.36068,-0.20341 2.50476,-1.19553 3.48444,-4.04142 4.30462,-6.48875 1.00965,-3.27455 1.60237,-6.79086 3.74487,-9.56571 0.39879,-0.58392 1.27879,-0.48931 1.52032,0.18497 0.67237,1.39219 0.42124,3.00003 0.46438,4.50659 -0.0591,3.21578 -1.0769,6.39771 -2.89776,9.05372 -0.83658,1.31397 -1.67137,3.21021 -0.59102,4.62741 1.35913,1.52796 3.62689,1.56791 5.52415,1.58573 2.2823,0.10836 4.63243,-0.30527 6.56208,-1.5872 3.47037,-2.27771 6.09648,-6.09375 6.27686,-10.32198 0.3026,-3.68079 -0.31553,-7.39082 0.15791,-11.05937 0.0539,-0.63352 0.71732,-0.3391 1.02913,-0.0927 1.46681,0.9372 2.69197,2.40398 2.85369,4.19299 0.50906,4.34842 -0.35903,8.70678 -0.23981,13.07088 0.0127,0.97778 0.33992,2.32955 1.52966,2.39596 1.73245,0.11212 3.88477,-0.32155 4.65614,-2.08087 1.26773,-2.80023 1.46659,-5.93086 1.90194,-8.93561 0.45058,-4.32167 0.55165,-8.70178 0.0942,-13.02577 -0.34576,-1.46028 -0.45568,-3.17998 -1.58097,-4.29035 -1.29836,-0.71488 -2.81035,0.0205 -4.15542,0.22457 -6.26413,1.03036 -12.62864,1.50085 -18.97515,1.74283 -5.67524,0.0896 -11.52469,-0.2674 -16.79933,-2.51393 -2.4551,-1.0154 -4.39685,-2.84166 -6.25885,-4.67853 -1.23498,-1.10491 -2.91032,-1.81366 -4.57153,-1.83982 z"
         style="opacity:1;vector-effect:none;fill:#6c5353;fill-opacity:1;stroke:none;stroke-width:0.50691187;stroke-linecap:round;stroke-linejoin:miter;stroke-miterlimit:4;stroke-dasharray:none;stroke-dashoffset:0;stroke-opacity:1" />
      <path
         transform="scale(0.26458333)"
         inkscape:connector-curvature="0"
         id="path42"
         d="m 50.850069,605.46919 c -3.889978,-0.026 -7.537655,1.79328 -10.647327,3.99013 -3.792176,2.72761 -6.555723,6.91921 -7.253605,11.56834 -0.906967,5.25939 0.184814,10.70874 2.278392,15.55969 0.751714,1.74123 2.143975,3.45994 4.162977,3.6403 1.476433,0.18421 3.232275,0.10585 4.226683,-1.17425 1.010608,-1.2573 0.64557,-3.05788 0.172422,-4.46354 -0.761425,-2.24977 -2.279405,-4.33059 -2.163519,-6.80515 -0.103128,-5.37681 2.935743,-10.3598 6.757675,-13.93152 1.100236,-1.05938 2.583945,-2.16649 4.2043,-1.62461 2.863285,0.85333 5.635475,2.71004 6.833848,5.57391 1.490274,3.49007 1.70922,7.33742 1.854595,11.08218 0.09152,2.76833 -0.54123,5.65506 -2.379882,7.80233 -3.436098,4.18671 -8.351558,6.92242 -13.392141,8.748 -3.094186,1.09448 -6.3841,1.70041 -9.665636,1.32124 -1.711306,-0.11856 -3.520837,-0.2651 -5.087168,0.59139 -2.425888,1.16704 -4.143112,3.33094 -6.0896,5.11964 -0.592351,0.6512 -1.320907,1.2147 -1.792877,1.96 0.291612,0.92242 1.068255,1.65717 1.570551,2.48356 1.722879,2.19535 3.137657,4.85517 5.693813,6.202 0.696823,0.45618 1.493667,0.23273 2.18418,-0.0959 2.859845,-0.76499 5.864955,-0.4335 8.803315,-0.58751 4.634462,10e-4 8.930922,-2.39556 12.323456,-5.39438 5.72594,-5.14259 9.246606,-12.28381 11.278051,-19.61275 0.96075,-3.34496 1.833804,-6.77829 1.667794,-10.28862 0.06468,-2.1246 -0.139804,-4.25184 -0.779941,-6.28586 -0.888067,-3.36306 -2.515247,-6.48695 -4.316878,-9.44245 -2.358852,-3.3763 -6.128279,-6.22824 -10.443478,-5.93614 z"
         style="opacity:1;vector-effect:none;fill:#6c5353;fill-opacity:1;stroke:none;stroke-width:0.50691187;stroke-linecap:round;stroke-linejoin:miter;stroke-miterlimit:4;stroke-dasharray:none;stroke-dashoffset:0;stroke-opacity:1" />
      <path
         transform="scale(0.26458333)"
         inkscape:connector-curvature="0"
         id="path44"
         d="m 74.502421,643.0142 c -3.036639,-0.0985 -6.200484,1.05992 -8.086383,3.51682 -1.372624,1.76904 -2.129059,4.16729 -1.617966,6.38258 0.617844,1.41257 2.407553,1.56036 3.744343,1.68782 2.761134,0.11123 5.547205,0.21959 8.298652,-0.0831 1.192895,-0.07 2.32264,-0.92185 2.457695,-2.15417 0.132099,-2.34797 0.05818,-4.71205 0.04673,-7.05948 -0.38633,-0.8967 -0.914373,-1.95844 -2.020366,-2.05455 -0.925763,-0.19753 -1.878745,-0.23824 -2.822708,-0.23588 z"
         style="opacity:1;vector-effect:none;fill:#6c5353;fill-opacity:1;stroke:none;stroke-width:0.50691187;stroke-linecap:round;stroke-linejoin:miter;stroke-miterlimit:4;stroke-dasharray:none;stroke-dashoffset:0;stroke-opacity:1" />
      <path
         transform="scale(0.26458333)"
         inkscape:connector-curvature="0"
         id="path46"
         d="m 404.02364,329.68746 c -1.92237,0.084 -4.49359,0.37734 -5.29009,2.43981 -0.62515,2.60384 1.26032,4.94856 2.87001,6.77685 3.00321,3.08502 5.79085,6.39804 7.94648,10.14156 2.02629,3.55528 3.607,7.34141 5.39987,11.01558 -1.87816,6.3123 -4.22335,12.51369 -5.4981,18.98836 -0.9699,5.81384 0.81265,11.58955 1.98397,17.23369 2.47502,11.08584 5.82746,21.95638 9.78828,32.59807 2.72683,7.28203 5.39189,14.59719 8.4081,21.76343 0.87084,1.73397 2.84724,2.92303 4.80006,2.38422 3.7311,-0.77568 6.32384,-3.86804 8.763,-6.55242 1.67236,-1.83627 2.35478,-4.42855 1.79914,-6.85026 -1.12022,-7.0754 -2.17136,-14.15349 -3.14834,-21.25028 -0.97418,-7.16427 -2.53972,-14.24426 -3.7371,-21.35465 -0.24054,-2.17767 -0.43195,-4.45262 0.12076,-6.5881 0.89731,-2.65859 3.63072,-3.96222 6.12668,-4.7074 4.15985,-1.43861 8.81256,-1.25846 12.81047,0.61876 8.25168,3.62692 15.00326,9.94386 20.82001,16.7135 2.63515,3.24747 5.49822,6.54527 6.76934,10.56656 0.20132,1.03092 0.25584,2.55989 1.61089,2.70487 2.57041,0.39956 5.00681,-0.98033 7.31213,-1.9156 6.68041,-3.18438 12.98146,-7.14719 19.87492,-9.88999 2.01364,-0.84009 4.73294,-1.27642 5.61056,-3.57767 0.71587,-3.23474 -1.22115,-6.28639 -2.75425,-8.9792 -3.32961,-5.21145 -6.85622,-10.35849 -11.12001,-14.85856 -5.19062,-5.35258 -12.08813,-8.52817 -18.74985,-11.62712 -8.59199,-3.68659 -17.62427,-6.22476 -26.64254,-8.62904 -5.13831,-1.39148 -10.39609,-2.23339 -15.65648,-2.98439 -4.33064,-0.66331 -8.73088,-1.72432 -12.39315,-4.25929 -5.68961,-3.71909 -10.24825,-8.84564 -15.26384,-13.37396 -3.2387,-3.02259 -6.86769,-6.45298 -11.58486,-6.53237 -0.32507,-0.0163 -0.65063,-0.0224 -0.97606,-0.015 z"
         style="opacity:1;vector-effect:none;fill:#6c5353;fill-opacity:1;stroke:none;stroke-width:0.71688163;stroke-linecap:round;stroke-linejoin:miter;stroke-miterlimit:4;stroke-dasharray:none;stroke-dashoffset:0;stroke-opacity:1" />
      <path
         transform="scale(0.26458333)"
         inkscape:connector-curvature="0"
         id="path48"
         d="m 599.3438,380.44171 c -4.9954,-0.0618 -9.70184,1.85671 -14.1094,4.01749 -5.22311,2.40881 -10.22952,5.30655 -15.58916,7.40819 -1.54351,0.59422 -3.40154,0.41398 -4.58402,-0.81734 -3.05582,-2.51592 -7.38942,-2.40576 -11.05849,-1.61222 -4.9314,1.20104 -9.46765,4.02895 -12.79245,7.85124 -1.09909,1.43353 -2.48021,3.46832 -1.52984,5.30747 1.16647,1.5099 3.38475,0.97134 4.9885,1.58306 5.02504,1.6317 9.48777,4.69249 13.37478,8.21236 2.13834,1.77897 3.42697,4.31395 5.43966,6.19971 1.91788,1.72853 4.67511,0.8012 6.77262,-0.0428 2.47775,-1.0303 5.50501,-2.42193 6.09048,-5.34121 0.37334,-2.26693 0.49985,-4.65456 1.79756,-6.6436 3.28281,-5.60756 8.48667,-9.90308 14.02016,-13.20187 3.71538,-2.06763 7.82889,-3.95814 12.15175,-3.92442 2.93559,0.42208 5.41578,2.39085 7.41961,4.49142 1.75385,1.73262 2.58579,4.11897 2.90384,6.51416 0.18342,1.20839 1.91626,1.9887 2.71357,0.86649 1.57787,-2.26378 1.46009,-5.21102 1.59693,-7.85475 -0.0628,-2.52605 0.10897,-5.18452 -0.81393,-7.57999 -1.61894,-2.76602 -5.00773,-3.70801 -7.92933,-4.38806 -3.56657,-0.74075 -7.22082,-1.08702 -10.86284,-1.04534 z"
         style="opacity:1;vector-effect:none;fill:#6c5353;fill-opacity:1;stroke:none;stroke-width:0.71688163;stroke-linecap:round;stroke-linejoin:miter;stroke-miterlimit:4;stroke-dasharray:none;stroke-dashoffset:0;stroke-opacity:1" />
      <path
         transform="scale(0.26458333)"
         inkscape:connector-curvature="0"
         id="path50"
         d="m 629.0541,650.16594 c -1.86269,0.0377 -2.43217,2.13495 -2.58765,3.65067 -0.39697,3.32017 -0.33873,6.66804 -1.02233,9.95021 -0.16633,3.41787 0.61452,6.81812 1.43175,10.11613 0.38625,1.70409 1.8542,3.2415 3.69546,3.1365 2.38512,0.008 4.81843,0.14647 7.17377,-0.0205 -0.65636,-7.08436 -0.76494,-14.46149 -3.56928,-21.14294 -0.9827,-2.14695 -2.08407,-4.70492 -4.44933,-5.60558 -0.21851,-0.0599 -0.44569,-0.0906 -0.67239,-0.0845 z"
         style="opacity:1;vector-effect:none;fill:#ffd5d5;fill-opacity:1;stroke:none;stroke-width:0.71688163;stroke-linecap:round;stroke-linejoin:miter;stroke-miterlimit:4;stroke-dasharray:none;stroke-dashoffset:0;stroke-opacity:1" />
      <path
         transform="scale(0.26458333)"
         inkscape:connector-curvature="0"
         id="path52"
         d="m 583.80977,636.07806 c -2.70942,0.35139 -4.49069,2.89403 -5.45149,5.25391 -0.98113,2.60642 -0.66317,5.54441 -1.9844,8.03937 -1.70471,4.46007 -5.64983,7.86441 -6.5598,12.69137 -0.39416,1.7827 -0.1803,4.15526 1.73159,4.97249 2.15533,0.85296 4.80286,0.43858 6.5792,-1.07299 3.90517,-3.25994 6.19532,-8.04096 7.77182,-12.78278 1.32517,-4.49687 2.12214,-9.35421 1.0705,-13.98882 -0.36913,-1.51337 -1.34999,-3.27096 -3.15742,-3.11255 z"
         style="opacity:1;vector-effect:none;fill:#ffd5d5;fill-opacity:1;stroke:none;stroke-width:0.71688163;stroke-linecap:round;stroke-linejoin:miter;stroke-miterlimit:4;stroke-dasharray:none;stroke-dashoffset:0;stroke-opacity:1" />
      <path
         transform="scale(0.26458333)"
         inkscape:connector-curvature="0"
         id="path54"
         d="m 603.64862,393.90025 c -4.3261,0.25774 -8.37123,2.08876 -12.26723,3.84983 -2.22567,1.21027 -5.06435,2.2677 -5.99622,4.85891 -0.81645,3.15565 0.5417,6.34653 1.17844,9.4091 0.36249,2.32435 0.091,4.73194 0.13956,7.09076 -0.25557,4.8616 -2.78783,9.29763 -5.84288,12.99485 -0.42494,0.78218 -1.534,1.47886 -1.35793,2.46076 2.8257,4.06359 5.41051,8.37255 8.90805,11.91103 0.87567,0.69938 2.00397,1.98136 3.22943,1.39731 1.46775,-1.3038 1.91432,-3.38618 2.45497,-5.20038 1.24226,-5.22379 0.89332,-10.66278 0.56923,-15.97352 -0.31087,-3.08106 -0.69144,-6.53978 1.18094,-9.2566 2.39933,-3.41552 6.35189,-5.29596 9.62845,-7.75354 2.06096,-1.534 4.40198,-3.38174 4.57651,-6.1681 0.25609,-2.71096 0.0985,-5.8564 -1.80276,-7.989 -1.16621,-1.25306 -2.93714,-1.69337 -4.59856,-1.63141 z"
         style="opacity:1;vector-effect:none;fill:#ffd5d5;fill-opacity:1;stroke:none;stroke-width:0.71688163;stroke-linecap:round;stroke-linejoin:miter;stroke-miterlimit:4;stroke-dasharray:none;stroke-dashoffset:0;stroke-opacity:1" />
      <path
         transform="scale(0.26458333)"
         inkscape:connector-curvature="0"
         id="path56"
         d="m 443.43307,390.58673 c -0.0857,3.9146 -0.10451,7.87548 0.29097,11.78744 0.31972,2.28696 0.631,4.75787 2.05825,6.65634 0.57013,0.75653 1.47234,1.18589 2.41071,1.1949 2.46453,0.90514 4.50869,2.65703 6.513,4.3049 2.43153,2.23316 4.83706,4.55963 6.76097,7.259 1.24113,1.5665 1.5553,3.7221 3.02719,5.11211 1.34183,1.10831 3.20769,0.40524 4.62367,-0.16676 3.18397,-1.4826 6.4041,-3.07723 9.03568,-5.44307 1.59664,-1.42029 2.62915,-3.53812 2.3699,-5.70519 -0.10748,-3.09138 -1.61426,-5.889 -2.89602,-8.62941 -2.85308,-5.66067 -7.84348,-10.0192 -13.36594,-12.99151 -4.07821,-2.14432 -8.63523,-3.59297 -13.28409,-3.44119 -2.4974,0.0152 -5.02652,-0.0783 -7.50367,0.0432 z"
         style="opacity:1;vector-effect:none;fill:#ffd5d5;fill-opacity:1;stroke:none;stroke-width:0.50691187;stroke-linecap:round;stroke-linejoin:miter;stroke-miterlimit:4;stroke-dasharray:none;stroke-dashoffset:0;stroke-opacity:1" />
      <path
         transform="scale(0.26458333)"
         inkscape:connector-curvature="0"
         id="path58"
         d="m 449.07388,415.18951 c -0.97176,0.0438 -1.28871,1.17801 -1.41818,1.9676 -0.40542,2.75699 0.04,5.548 0.35116,8.29176 0.37814,2.56689 0.73117,5.15698 1.46044,7.65136 0.39414,1.26109 1.43087,2.44067 2.82801,2.4986 1.62619,0.0448 3.1883,-0.71359 4.46003,-1.67565 1.30157,-1.13601 1.27811,-3.07931 0.98989,-4.64354 -0.72533,-3.50853 -2.52192,-6.67902 -4.36168,-9.71142 -0.99665,-1.48869 -1.95913,-3.11841 -3.48214,-4.12983 -0.25096,-0.14445 -0.53342,-0.25681 -0.82753,-0.24888 z"
         style="opacity:1;vector-effect:none;fill:#483737;fill-opacity:1;stroke:none;stroke-width:0.35844082;stroke-linecap:round;stroke-linejoin:miter;stroke-miterlimit:4;stroke-dasharray:none;stroke-dashoffset:0;stroke-opacity:1" />
      <path
         transform="scale(0.26458333)"
         inkscape:connector-curvature="0"
         id="path60"
         d="m 581.06627,409.68626 c -0.78877,0.0506 -1.14407,0.89868 -1.37422,1.54246 -0.53953,1.42054 -0.30232,2.95552 -0.61147,4.40771 -0.30881,1.36298 -1.29551,2.50314 -2.54249,3.1098 -1.43332,0.74153 -3.10244,1.14931 -4.22421,2.38612 -0.80818,0.76859 -1.05358,1.98847 -0.71411,3.03529 0.53477,1.71195 1.772,3.0877 2.98877,4.35826 0.92907,0.93314 2.01657,1.78527 3.29788,2.15517 0.75047,0.08 1.58563,0.10674 2.20484,-0.40043 1.25408,-0.92684 1.68563,-2.53146 2.02897,-3.97604 0.52943,-2.46837 0.73028,-4.99583 0.7165,-7.51759 0.0129,-2.6349 0.074,-5.32611 -0.6812,-7.87916 -0.17795,-0.50297 -0.44293,-1.23589 -1.08926,-1.22159 z"
         style="opacity:1;vector-effect:none;fill:#483737;fill-opacity:1;stroke:none;stroke-width:0.25345594;stroke-linecap:round;stroke-linejoin:miter;stroke-miterlimit:4;stroke-dasharray:none;stroke-dashoffset:0;stroke-opacity:1" />
      <path
         transform="scale(0.26458333)"
         inkscape:connector-curvature="0"
         id="path62"
         d="m 523.06961,705.40097 c -22.07807,0.33533 -43.58908,6.56863 -64.04451,14.46215 -7.46539,2.88335 -15.76144,4.23396 -22.32423,9.06424 -3.81146,3.24893 -7.29522,7.05146 -8.976,11.86397 -2.84628,7.29601 -4.10218,15.386 -2.93851,23.163 1.70225,4.61715 5.32818,8.21894 8.08421,12.21951 4.03353,4.932 7.61829,10.3845 12.55295,14.47927 3.98508,2.39124 8.88469,0.77225 13.2426,1.51801 6.86963,1.05585 13.24692,4.98379 17.51793,10.47741 3.98222,4.42887 7.12167,9.91561 12.26001,13.13456 4.67514,1.56841 9.7149,1.64817 14.35849,3.38039 3.53491,1.49567 7.81554,1.35602 10.66992,4.21175 9.01586,8.4742 16.53264,18.51071 23.27489,28.87142 8.6055,13.77901 14.72718,29.42879 16.21494,45.66654 0.82335,9.16658 0.0452,19.36503 -6.3969,26.51 -1.17677,1.10928 -0.65481,2.88958 0.82648,3.38735 3.20733,1.95277 6.87474,3.05496 10.65043,2.74309 10.09292,-0.0296 19.86294,-3.2571 29.21373,-6.77327 5.97136,-2.40377 12.53286,-5.77063 14.82879,-12.24775 2.35023,-4.92729 2.2378,-10.93285 -0.75899,-15.56593 -4.40527,-6.81246 -9.71123,-13.00192 -14.40596,-19.61916 -7.43435,-9.88235 -14.85024,-20.11088 -24.69919,-27.75404 -8.61807,-5.70919 -16.55321,-12.42623 -24.21307,-19.35351 -2.70263,-2.09489 -3.34349,-6.01488 -1.79072,-8.99746 2.17878,-3.80498 5.658,-6.75802 7.6674,-10.71943 3.40453,-6.06145 6.98071,-12.22635 8.66757,-19.02233 0.51834,-2.80119 -2.92633,-3.82225 -4.79892,-4.89771 -7.11017,-3.01523 -13.43715,-7.448 -19.371,-12.36184 -4.34025,-3.57257 -9.3665,-6.14779 -14.0169,-9.2333 -2.23501,-1.38506 -4.24489,-4.51099 -2.29581,-6.95767 1.63454,-2.03388 3.7464,-3.86028 4.17627,-6.57295 1.78615,-3.80861 6.99378,-5.09964 7.89269,-9.51922 1.08351,-2.38304 3.25944,-4.1437 4.14288,-6.68496 3.09474,-7.08214 5.66735,-14.44343 7.40291,-21.97777 0.6176,-2.31698 0.19408,-5.57557 -2.59912,-6.14718 -3.25122,-0.84152 -6.684,-0.68219 -10.01526,-0.74718 z"
         style="opacity:1;vector-effect:none;fill:#a02c2c;fill-opacity:1;stroke:none;stroke-width:1.43376327;stroke-linecap:round;stroke-linejoin:miter;stroke-miterlimit:4;stroke-dasharray:none;stroke-dashoffset:0;stroke-opacity:1" />
      <path
         transform="scale(0.26458333)"
         inkscape:connector-curvature="0"
         id="path64"
         d="m 604.81173,850.55854 c -2.59736,-0.0691 -4.3484,2.24731 -5.47931,4.29941 -1.98666,4.57065 -3.3547,9.40196 -4.47038,14.2527 -0.97777,4.43454 -1.16623,9.33143 1.11955,13.41762 2.47172,4.50335 6.08341,8.27181 9.81594,11.74929 0.7245,0.65997 2.17406,1.35362 2.82488,0.22714 1.20022,-2.44113 1.19251,-5.26518 1.79351,-7.87773 1.31896,-7.21925 2.81216,-14.48017 2.60364,-21.85985 -0.16794,-3.74433 -0.31491,-7.67777 -1.97647,-11.10994 -1.08524,-1.77977 -3.24726,-2.59393 -5.19129,-3.03324 -0.34396,-0.0518 -0.69242,-0.0718 -1.04007,-0.0654 z"
         style="opacity:1;vector-effect:none;fill:#ffffff;fill-opacity:1;stroke:none;stroke-width:0.71688163;stroke-linecap:round;stroke-linejoin:miter;stroke-miterlimit:4;stroke-dasharray:none;stroke-dashoffset:0;stroke-opacity:1" />
      <path
         transform="scale(0.26458333)"
         inkscape:connector-curvature="0"
         id="path66"
         d="m 497.57868,848.20848 c -1.76215,-0.11152 -2.69703,1.65298 -2.88439,3.16637 -0.35265,3.39586 -1.4999,6.60177 -2.99719,9.65733 -1.99341,4.32323 -4.52291,8.61715 -4.72744,13.49944 -0.54067,4.03863 -0.0888,8.22715 1.68013,11.92715 2.47656,5.33679 5.33414,10.59462 9.21808,15.0479 1.00699,1.1449 2.65368,2.4544 4.24849,1.73251 2.07753,-1.39422 2.75505,-4.05205 3.34153,-6.34228 0.928,-6.04571 0.50457,-12.20207 0.21663,-18.28338 -0.60063,-8.26094 -1.27289,-16.56643 -3.0939,-24.6629 -0.53168,-2.05889 -1.11307,-4.60832 -3.35523,-5.4416 -0.51918,-0.21603 -1.08382,-0.32695 -1.64671,-0.30054 z"
         style="opacity:1;vector-effect:none;fill:#ffffff;fill-opacity:1;stroke:none;stroke-width:0.71688163;stroke-linecap:round;stroke-linejoin:miter;stroke-miterlimit:4;stroke-dasharray:none;stroke-dashoffset:0;stroke-opacity:1" />
      <path
         transform="scale(0.26458333)"
         inkscape:connector-curvature="0"
         id="path68"
         d="m 545.3972,700.55165 c -0.86077,0.25704 -0.92425,1.4599 -1.37296,2.11805 -3.50758,8.4901 -6.26838,17.27532 -10.27356,25.55917 -3.18157,6.8953 -7.43302,13.1785 -11.84996,19.32931 -1.89581,2.96831 -4.11917,5.91852 -4.8831,9.41974 -0.36413,2.02967 1.20026,3.70331 2.29511,5.22573 4.8276,5.6693 10.8451,10.19704 17.01546,14.30457 3.94073,2.4353 7.9816,5.0503 12.58715,5.98475 2.60736,0.29882 5.182,-0.61315 7.67007,-1.27859 6.50642,-2.03344 12.80459,-5.32539 17.47418,-10.37295 2.56295,-3.27888 3.97867,-7.27356 5.58279,-11.07113 3.89729,-10.13525 7.17303,-20.55319 9.18338,-31.23561 0.63804,-3.72273 0.54925,-7.54003 0.26332,-11.29117 -0.0404,-1.27487 -1.15726,-2.18668 -2.39146,-2.19527 -3.94347,-0.23655 -7.90714,-0.4542 -11.73833,-1.52564 -6.25576,-1.50598 -12.32111,-3.86024 -17.71471,-7.40677 -3.73087,-2.08086 -7.50829,-4.18795 -11.57675,-5.53149 -0.0887,-0.0199 -0.17929,-0.0369 -0.27063,-0.0327 z"
         style="opacity:1;vector-effect:none;fill:#ffffff;fill-opacity:1;stroke:none;stroke-width:0.71688163;stroke-linecap:round;stroke-linejoin:miter;stroke-miterlimit:4;stroke-dasharray:none;stroke-dashoffset:0;stroke-opacity:1" />
      <path
         transform="scale(0.26458333)"
         inkscape:connector-curvature="0"
         id="path70"
         d="m 610.79519,705.65494 c -3.41011,0.13101 -5.65516,3.08101 -7.75946,5.3847 -1.52966,1.46733 -3.04083,3.21817 -5.1266,3.85242 -1.65619,0.29397 -2.04542,2.31414 -2.38233,3.69419 -0.77783,4.03977 -1.01989,8.15201 -2.12557,12.12625 -3.05823,12.36377 -7.46992,24.34616 -11.88273,36.2779 -0.36928,0.84382 -0.42699,2.12436 0.6724,2.42624 2.6252,0.56226 5.36229,0.30622 8.01841,0.67043 6.98123,0.85522 13.81737,2.73371 20.67707,4.29289 6.39112,1.4636 12.71211,3.26743 19.16049,4.46199 2.43951,0.26934 5.3796,0.49283 7.20499,-1.49749 3.19291,-3.14509 4.83161,-7.576 5.12659,-11.99603 0.73389,-9.03057 0.46479,-18.10577 0.51619,-27.15711 -0.12697,-5.9563 0.11513,-11.97523 -0.89047,-17.86969 -0.37046,-2.24424 -1.74361,-4.70327 -4.22253,-4.99511 -3.562,-0.52507 -7.27271,-0.23626 -10.55317,-1.90362 -4.65043,-1.87453 -8.49575,-5.2425 -13.14507,-7.12166 -1.04833,-0.3958 -2.15996,-0.67958 -3.28821,-0.6463 z"
         style="opacity:1;vector-effect:none;fill:#ffffff;fill-opacity:1;stroke:none;stroke-width:0.71688163;stroke-linecap:round;stroke-linejoin:miter;stroke-miterlimit:4;stroke-dasharray:none;stroke-dashoffset:0;stroke-opacity:1" />
      <path
         transform="scale(0.26458333)"
         inkscape:connector-curvature="0"
         id="path72"
         d="m 532.61184,404.95284 c -6.00396,0.0896 -12.18893,0.51869 -17.67463,3.1951 -14.37275,6.25805 -28.37845,13.32954 -42.33601,20.45583 -7.27384,3.68308 -14.20377,8.13236 -20.05133,13.85505 -6.61413,6.30425 -13.10631,12.76505 -19.15339,19.61868 -3.75709,4.63049 -6.16837,10.1747 -8.54192,15.5972 -1.1884,2.39973 -1.25964,5.27001 -2.71989,7.50296 -1.71258,1.45438 -4.25396,0.88728 -6.31486,1.2094 -5.11394,0.11893 -10.10502,1.95133 -14.06066,5.1981 -7.22493,5.72408 -13.30932,13.04617 -17.20195,21.42737 -3.22328,6.85776 -4.03903,14.6615 -3.24809,22.13541 0.69117,5.23465 5.33632,8.48177 9.0139,11.70261 7.753,6.29229 15.74522,12.36134 24.33626,17.47016 2.50598,1.26776 5.3252,1.66045 7.83353,2.94963 13.30406,6.25202 27.16122,11.31848 41.38968,15.02043 12.5313,3.20652 25.3262,5.80736 38.28596,6.25547 5.30956,-0.0259 10.66014,0.17629 15.94271,-0.37222 1.04797,-0.76382 1.44828,-2.26652 2.31754,-3.24709 3.599,-5.60643 7.56144,-10.97489 12.13367,-15.82035 7.29526,-7.81587 14.97485,-15.32425 21.40918,-23.90137 13.71973,-17.59864 23.51193,-38.13901 28.97477,-59.75416 2.12878,-8.53453 4.48637,-17.16376 4.59666,-26.01572 -0.0487,-5.89322 -2.58002,-11.42521 -6.0119,-16.10685 -3.58187,-5.30748 -8.0397,-10.04504 -11.10537,-15.67936 -0.23934,-1.39177 -1.64428,-2.15368 -2.96045,-2.12957 -3.10183,-1.19178 -4.15079,-4.77179 -6.15703,-7.12712 -3.26438,-4.24316 -7.52522,-7.85911 -12.43365,-10.04059 -1.62782,-0.57051 -3.61348,-0.24943 -4.8558,-1.72839 -2.6762,-2.01579 -6.29785,-1.47659 -9.43871,-1.67427 -0.65608,-0.004 -1.31214,-0.002 -1.96822,0.004 z m -17.6702,112.37948 c 0.86927,0.12003 2.13551,-0.0973 2.79417,0.54752 -1.24242,2.49549 -4.12365,3.58579 -6.75562,3.82311 -2.98682,0.52861 -4.79949,3.43063 -5.08519,6.27823 -0.53142,1.98615 0.19828,4.54978 -1.43743,6.09799 -1.05786,-10e-4 -1.6205,-1.43294 -1.98839,-2.29093 -1.01099,-3.77903 1.39623,-7.42843 3.78698,-10.13068 2.26172,-2.3611 5.34702,-4.26306 8.68548,-4.32524 z m 20.29761,1.12111 c 2.2258,0.0952 4.72351,0.53305 6.30313,2.21862 0.46802,1.39836 -1.47053,1.92436 -2.49409,2.14089 -4.79008,1.1441 -10.0105,-0.39577 -14.64188,1.6096 -3.76041,2.09822 -7.03789,5.10571 -9.64827,8.52125 -2.46146,2.96704 -2.18078,7.06089 -1.30164,10.56454 0.33004,1.58869 0.92959,3.37207 1.12947,4.83639 -1.97354,-1.07009 -4.19983,-2.39617 -4.5917,-4.82438 -1.18878,-4.25217 0.15949,-8.79321 2.80057,-12.24518 4.64499,-6.2595 11.54992,-11.06344 19.22619,-12.60429 1.06639,-0.17281 2.1484,-0.24617 3.21822,-0.21744 z m -1.27853,14.40378 c 2.45089,0.47604 3.42441,3.55025 3.17985,5.72167 -0.62533,4.17739 -3.07022,7.958 -6.07577,10.84726 -1.90879,1.6915 -4.91563,3.29712 -7.34217,1.74128 -1.64312,-1.24118 -1.72974,-3.4919 -0.93714,-5.23514 2.05411,-4.95568 5.95394,-8.88523 9.84455,-12.46015 0.38739,-0.30961 0.79646,-0.68378 1.33068,-0.61492 z"
         style="opacity:1;vector-effect:none;fill:#ffffff;fill-opacity:1;stroke:none;stroke-width:1.01382375;stroke-linecap:round;stroke-linejoin:miter;stroke-miterlimit:4;stroke-dasharray:none;stroke-dashoffset:0;stroke-opacity:1" />
      <path
         transform="scale(0.26458333)"
         inkscape:connector-curvature="0"
         id="path74"
         d="m 594.08764,465.91309 c -1.13619,0.57158 -1.14934,2.24108 -1.6465,3.293 -3.84923,13.11712 -6.37043,26.66203 -11.24016,39.45543 -2.86308,6.29914 -6.59685,12.17603 -9.84033,18.29392 -6.09095,10.55726 -13.84818,20.05479 -21.69457,29.34718 -8.44899,10.10943 -18.33151,18.92679 -26.55699,29.22989 -0.51096,0.93954 -2.013,2.20663 -1.18841,3.33218 1.22507,0.7655 2.54008,-0.67888 3.62125,-1.17023 8.80022,-5.84568 17.40636,-12.20416 27.31912,-16.07485 4.56032,-1.9537 9.36821,-3.53713 13.55441,-6.24124 1.39432,-1.07036 -0.17554,-2.65181 -0.55276,-3.83116 -0.58134,-1.45878 -1.72508,-2.85215 -1.81638,-4.43823 1.22806,-3.06121 3.30647,-5.79507 5.75462,-8.00718 1.06278,-0.88662 2.82892,-1.18045 3.68802,0.17168 1.52747,1.73765 3.12493,3.79403 3.44254,6.1344 -0.47265,2.24653 -2.42796,4.10851 -2.42031,6.46793 0.29611,1.38602 1.91806,1.61175 3.05638,1.15309 2.06713,-0.24122 3.76023,-2.04254 3.60488,-4.16765 -0.0349,-5.25615 -1.10387,-10.58381 -2.75039,-15.49882 2.92681,0.6384 4.93943,3.28088 5.457,6.13882 1.09641,3.95967 1.02078,8.19144 2.41932,12.06661 1.51731,2.9815 5.37464,2.77113 8.21404,2.60319 4.35025,-0.14572 8.83297,-2.45246 10.51235,-6.64983 3.06624,-7.11592 4.96065,-14.67605 6.91349,-22.1558 2.36901,-9.42116 3.98784,-19.03236 4.51632,-28.73994 0.0392,-2.25688 0.58997,-4.62146 0.31736,-6.81326 -6.43354,-10.398 -12.41907,-21.10491 -19.57771,-31.03265 -0.91286,-0.99457 -1.69874,-2.54198 -3.10659,-2.86648 z m -6.12603,70.73643 c 1.8624,0.92089 2.49075,3.23183 3.19657,5.05116 1.224,4.2539 1.23408,8.9226 -0.0945,13.15673 -0.22895,0.71632 -1.1327,2.03626 -1.84474,0.97894 -1.99663,-1.91205 -0.43923,-4.75586 -0.37633,-7.07398 0.39003,-3.90175 -1.47859,-7.64085 -1.3661,-11.47137 0.0439,-0.2611 0.13679,-0.68181 0.48505,-0.64148 z"
         style="opacity:1;vector-effect:none;fill:#ffffff;fill-opacity:1;stroke:none;stroke-width:1.01382375;stroke-linecap:round;stroke-linejoin:miter;stroke-miterlimit:4;stroke-dasharray:none;stroke-dashoffset:0;stroke-opacity:1" />
      <path
         transform="scale(0.26458333)"
         inkscape:connector-curvature="0"
         id="path76"
         d="m 499.15537,822.0736 c -1.56356,0.0279 -3.87333,0.13129 -4.34567,1.98657 -0.47292,2.79793 1.34739,5.28923 2.58704,7.63655 3.72835,6.16014 7.70467,12.34473 9.56435,19.37633 2.2948,8.44496 3.29524,17.16029 4.57584,25.80028 0.0176,6.18386 0.15722,12.40094 -1.13146,18.47608 -0.47236,3.27231 -1.445,6.55552 -1.16144,9.88472 0.38057,2.25158 2.7547,3.23776 4.2601,4.65144 3.50697,2.61288 6.80331,5.57354 10.65008,7.68849 4.86672,2.37857 10.28015,4.10469 15.75372,3.78147 1.85356,-0.20105 4.29504,-0.33773 5.19234,-2.28363 1.7832,-4.1873 2.2049,-8.79681 2.85238,-13.26045 0.83206,-6.31688 0.88507,-12.73015 0.42679,-19.07869 -1.30605,-9.03819 -5.00966,-17.50296 -8.8131,-25.73002 -5.14314,-10.92304 -12.31134,-20.90676 -21.24584,-29.04728 -4.68242,-4.19867 -9.91127,-8.33067 -16.21398,-9.6321 -0.97221,-0.18124 -1.96208,-0.26945 -2.95115,-0.24976 z"
         style="opacity:1;vector-effect:none;fill:#ffd5d5;fill-opacity:1;stroke:none;stroke-width:0.71688163;stroke-linecap:round;stroke-linejoin:miter;stroke-miterlimit:4;stroke-dasharray:none;stroke-dashoffset:0;stroke-opacity:1" />
      <path
         transform="scale(0.26458333)"
         inkscape:connector-curvature="0"
         id="path78"
         d="m 458.68979,796.46011 c -1.41854,-0.23442 -2.99861,0.98631 -2.14171,2.46903 1.84791,4.04827 5.12906,7.21004 7.34849,11.03528 3.99716,6.72643 4.6182,14.73162 5.44903,22.34092 0.71566,8.55563 1.86278,17.26965 5.58284,25.10846 1.71091,3.65372 3.09041,7.45452 4.80097,11.10491 0.61837,1.73052 3.35771,1.40812 3.79955,-0.28489 0.47047,-1.66563 0.61587,-3.42683 1.39592,-5.00694 1.66985,-3.84535 3.54192,-7.63345 4.49177,-11.74387 0.96907,-3.67287 3.27781,-6.85703 6.26775,-9.15597 1.40556,-1.22811 2.65967,-2.98355 2.22219,-4.95227 -0.49544,-2.85848 -2.58574,-5.07553 -4.07922,-7.46066 -6.91657,-9.66489 -14.35429,-19.08452 -23.27906,-26.98836 -3.22728,-2.66482 -6.64309,-5.55179 -10.85744,-6.39492 -0.33091,-0.0509 -0.66622,-0.0765 -1.00108,-0.0707 z"
         style="opacity:1;vector-effect:none;fill:#ffd5d5;fill-opacity:1;stroke:none;stroke-width:0.71688163;stroke-linecap:round;stroke-linejoin:miter;stroke-miterlimit:4;stroke-dasharray:none;stroke-dashoffset:0;stroke-opacity:1" />
      <path
         transform="scale(0.26458333)"
         inkscape:connector-curvature="0"
         id="path80"
         d="m 739.57562,1010.5297 c -5.40765,0.6286 -10.83646,1.2159 -16.18115,2.2671 -2.43648,0.5094 -5.29576,1.5712 -6.0669,4.2126 -0.75236,2.8168 -0.23875,5.7919 -0.0603,8.655 0.4059,3.9932 0.8635,8.2925 -1.11907,11.9786 -3.25975,6.3793 -7.51411,12.2129 -11.41811,18.2173 -2.55144,4.0021 -5.70125,7.8297 -6.73031,12.5792 -1.72553,6.498 -2.7766,13.2269 -2.71256,19.9605 0.0324,3.7589 2.14303,7.1464 4.48207,9.9409 1.10435,1.2399 2.94374,2.7591 4.68855,1.8979 1.67997,-1.2046 1.63878,-3.6036 1.57721,-5.4613 -0.14043,-3.2773 -1.06186,-6.4378 -1.98697,-9.5588 -0.1102,-0.9849 -0.59758,-2.6272 0.711,-3.0245 1.47035,0 1.65481,1.8895 2.56817,2.6972 1.52343,1.7148 4.09952,1.1787 5.86438,2.4986 2.56906,1.6492 5.10267,3.8887 6.11309,6.87 0.90835,3.2645 -0.93327,6.5604 -0.29567,9.8344 0.6668,1.752 2.83349,2.0933 4.37941,2.6951 4.80195,1.4268 9.70282,2.6609 14.68965,3.1946 1.35978,0.068 1.4619,-1.6622 1.47314,-2.6398 -0.0593,-3.0023 -1.67116,-5.6921 -2.79767,-8.3963 -2.30708,-5.1777 -5.43903,-10.1463 -6.26066,-15.8397 -0.53727,-4.7157 0.33163,-9.4128 1.8667,-13.8716 2.64863,-8.557 6.12837,-16.9074 7.72509,-25.7556 0.82159,-5.1214 0.39962,-10.3566 -0.49389,-15.4391 -0.50479,-3.9116 -1.13452,-7.9019 -0.72667,-11.8333 0.17252,-1.8883 0.89587,-3.6938 1.04504,-5.5667 -0.0678,-0.1354 -0.21529,-0.1173 -0.33359,-0.1123 z"
         style="opacity:1;vector-effect:none;fill:#ffeeaa;fill-opacity:1;stroke:none;stroke-width:0.71688163;stroke-linecap:round;stroke-linejoin:miter;stroke-miterlimit:4;stroke-dasharray:none;stroke-dashoffset:0;stroke-opacity:1" />
      <path
         transform="scale(0.26458333)"
         inkscape:connector-curvature="0"
         id="path82"
         d="m 712.41194,1090.6048 c -0.89416,-0.031 -1.8165,0.6524 -1.76081,1.6061 -0.0274,1.8945 0.73627,3.6858 0.94252,5.5553 0.27252,1.3865 0.21924,2.8199 0.53584,4.1954 0.41616,1.3336 1.91743,2.2264 3.28143,1.8163 0.72286,-0.1461 1.53432,-0.5566 1.78398,-1.2704 0.0214,-3.4005 -0.68876,-6.8492 -2.2788,-9.8688 -0.54419,-0.9241 -1.27632,-2.0914 -2.50416,-2.0339 z"
         style="opacity:1;vector-effect:none;fill:#ffeeaa;fill-opacity:1;stroke:none;stroke-width:0.35844082;stroke-linecap:round;stroke-linejoin:miter;stroke-miterlimit:4;stroke-dasharray:none;stroke-dashoffset:0;stroke-opacity:1" />
      <path
         transform="scale(0.26458333)"
         inkscape:connector-curvature="0"
         id="path84"
         d="m 731.57333,979.59938 c -6.71779,0.21998 -13.81863,-0.0888 -19.95328,3.1258 -7.40518,2.82746 -15.01502,5.74041 -20.97325,11.16996 -3.62239,3.44555 -7.86478,6.67896 -9.96512,11.33856 -1.20665,3.5916 -1.22523,7.7302 0.16558,11.262 1.60061,2.4955 5.10697,2.1854 7.70137,2.4412 9.62841,-0.1491 18.75699,-4.0597 27.0348,-8.6392 7.21164,-2.823 14.87073,-4.8142 22.58998,-5.3784 10.94096,0.023 21.41982,3.7817 31.2173,8.374 4.14919,1.5959 8.35033,4.3612 12.90522,3.9913 1.55783,-4.618 -1.46585,-9.157 -3.68255,-13.0046 -6.22816,-9.3803 -14.17139,-18.33744 -24.71651,-22.8565 -6.13617,-2.43629 -12.90133,-1.48831 -19.34108,-1.8329 -0.99419,-0.005 -1.9883,10e-4 -2.98246,0.009 z"
         style="opacity:1;vector-effect:none;fill:#deaa87;fill-opacity:1;stroke:none;stroke-width:1.43376327;stroke-linecap:round;stroke-linejoin:miter;stroke-miterlimit:4;stroke-dasharray:none;stroke-dashoffset:0;stroke-opacity:1" />
      <path
         inkscape:connector-curvature="0"
         id="path21"
         d="m 192.68998,294.4998 c -3.95725,-0.77624 -7.42894,-2.1498 -8.50238,-3.36392 -1.2107,-1.36934 -3.53221,-3.13451 -4.95449,-3.76712 -0.96845,-0.43075 -1.27124,-1.46547 -0.55787,-1.90636 0.21654,-0.1338 0.51325,-0.0499 0.65934,0.18651 0.38019,0.61514 2.33065,0.53237 2.32877,-0.0988 -0.003,-1.07958 -1.74777,-3.34272 -2.97427,-3.85843 -0.6971,-0.29311 -1.13742,-0.66297 -0.97849,-0.82192 0.61459,-0.61459 1.73139,-0.23687 2.89703,0.97978 0.66855,0.69782 1.44637,1.26877 1.72849,1.26877 0.46358,0 4.61046,-5.98149 5.32102,-7.67508 0.16081,-0.38326 0.49601,-0.82269 0.74493,-0.97652 0.53306,-0.32946 0.61955,-4.88194 0.0927,-4.88194 -0.51223,0 -3.06749,0.83499 -4.15285,1.35704 -1.25472,0.60349 -3.70823,0.0754 -5.06258,-1.08946 -0.96882,-0.83335 -1.08095,-1.17212 -0.83027,-2.50839 0.64514,-3.43888 4.99839,-7.11822 10.82905,-9.15267 5.47117,-1.90901 11.32468,-0.23413 15.62466,4.47074 1.12596,1.23199 2.47236,3.11818 2.99194,4.19154 0.82066,1.69525 0.87239,2.08676 0.3938,2.98099 -0.47972,0.89638 -0.74632,0.99286 -2.06263,0.74641 -0.83143,-0.15569 -1.98749,-0.63102 -2.569,-1.05632 -1.12033,-0.81935 -4.74802,-2.04223 -6.08106,-2.04991 -0.74748,-0.005 -0.77677,0.26963 -0.49437,4.62667 0.28954,4.46729 0.25287,4.77246 -1.03567,8.62142 -0.7347,2.1946 -1.2735,4.53539 -1.19732,5.20172 l 0.13843,1.21153 0.71279,-1.48658 c 0.67254,-1.40259 1.99605,-2.86825 3.21498,-3.56027 0.29941,-0.16998 -0.0473,0.5305 -0.77069,1.55664 -1.4169,2.01018 -1.94927,4.44296 -1.49832,6.84681 0.29274,1.56035 1.09024,2.09644 1.09024,0.73285 0,-0.43083 0.82777,-1.3686 1.86657,-2.11462 1.91515,-1.37535 2.78558,-1.66207 2.78558,-0.91753 0,0.23261 -0.35113,0.42292 -0.7803,0.42292 -1.2001,0 -2.2283,1.43472 -2.477,3.45628 -0.12388,1.00664 -0.52472,2.06815 -0.89085,2.35891 -0.74601,0.59247 -2.75221,0.61718 -5.55002,0.0684 z m 2.93141,-1.59477 c 0,-0.43247 -0.57095,-1.85624 -1.26877,-3.16393 -1.49921,-2.80943 -1.57644,-4.35169 -0.38669,-7.72022 1.95053,-5.52244 2.18023,-6.8519 1.68007,-9.72403 -0.25781,-1.48048 -0.34579,-3.18176 -0.19549,-3.78061 l 0.27329,-1.08883 -2.27156,0.28949 c -3.69799,0.47127 -3.90748,0.68507 -3.59556,3.66949 0.28832,2.75847 0.43517,2.4392 -4.47155,9.72126 -0.43302,0.64266 -0.95522,2.53147 -1.16924,4.22922 -0.33014,2.61898 -0.2787,3.25341 0.35147,4.33531 1.03781,1.78178 2.17265,1.92354 2.17265,0.27139 0,-0.69973 -0.18306,-1.75367 -0.40678,-2.34211 -0.26142,-0.68763 -0.26035,-1.16035 0.003,-1.3231 0.22537,-0.13923 0.52394,0.0442 0.66349,0.40795 0.13954,0.36365 0.58081,0.66118 0.98059,0.66118 0.39978,0 1.16385,0.46515 1.69796,1.03366 0.78266,0.83313 0.91766,1.31827 0.69584,2.50069 -0.25836,1.37726 -0.19034,1.49373 1.11154,1.90324 0.76271,0.23989 1.86254,0.51605 2.44406,0.61363 0.58152,0.0975 1.20003,0.20335 1.37449,0.23504 0.17446,0.0317 0.3172,-0.29624 0.3172,-0.72872 z m -5.92093,-1.27543 c 0,-1.39789 -0.6216,-3.01334 -1.1595,-3.01334 -0.44782,0 -0.55685,0.27607 -0.37583,0.95157 0.14019,0.52337 0.25761,1.28463 0.26079,1.69171 0.003,0.40706 0.29123,0.74012 0.64015,0.74012 0.34892,0 0.63439,-0.16654 0.63439,-0.37006 z m -3.93318,-22.8079 c 1.19171,-0.41969 2.42145,-0.95746 2.73276,-1.19506 0.99895,-0.76243 5.04861,-1.84853 6.85271,-1.83787 2.51053,0.0143 4.97041,0.66021 8.03438,2.10784 3.03991,1.4363 3.65318,1.53867 3.65318,0.60981 0,-1.93502 -3.55352,-6.48088 -6.34385,-8.11542 -1.70419,-0.99831 -2.34953,-1.11762 -6.17278,-1.14137 -2.46086,-0.0159 -4.70043,0.18353 -5.28653,0.4693 -0.55932,0.2727 -1.94371,0.83062 -3.07647,1.23984 -1.21276,0.43812 -2.90816,1.5706 -4.1235,2.75439 -1.7895,1.74304 -2.06395,2.23483 -2.06395,3.69849 0,1.25212 0.19116,1.7381 0.74012,1.88154 1.53332,0.40071 2.95341,0.26823 5.05393,-0.47149 z M 64.478287,284.41615 c -1.897918,-0.37096 -4.027963,-1.86043 -4.776501,-3.3401 -0.314318,-0.62134 -0.798792,-2.46192 -1.076586,-4.09016 -0.988163,-5.79171 -1.332418,-7.15701 -2.410079,-9.55837 -1.284883,-2.8631 -1.190923,-3.35576 1.797543,-9.42483 1.017758,-2.06687 1.850454,-3.81836 1.850454,-3.89219 0,-0.0738 -1.094314,-0.0956 -2.431803,-0.0483 -1.337494,0.0473 -3.517885,-0.0695 -4.845317,-0.25944 l -2.413512,-0.34533 -0.124024,3.3058 -0.124024,3.30578 -2.114615,-0.10822 c -3.038785,-0.15552 -7.360068,-0.97734 -8.633277,-1.64173 -0.60167,-0.31398 -1.296051,-0.57203 -1.543068,-0.57346 -0.584928,-0.003 -2.299881,-2.3275 -2.299881,-3.11681 0,-0.33599 -0.8715,-2.2631 -1.936669,-4.28246 -1.06517,-2.01935 -2.206427,-4.57991 -2.536125,-5.69012 -0.329697,-1.11022 -1.171037,-2.73782 -1.869635,-3.61689 -0.6986,-0.87908 -1.270183,-1.82066 -1.270183,-2.09239 0,-0.27174 -0.487671,-1.14957 -1.083713,-1.95073 -1.000049,-1.34421 -1.063197,-1.68522 -0.817972,-4.41712 0.146161,-1.62826 0.824141,-4.7982 1.506635,-7.04433 0.682492,-2.24614 1.240896,-4.29785 1.240896,-4.55935 0,-0.26151 -0.651582,-1.04756 -1.447961,-1.74679 -1.729265,-1.51831 -5.318806,-8.50842 -5.318806,-10.35761 0,-0.70766 -0.237894,-1.52452 -0.528653,-1.81523 -0.738973,-0.73883 -0.69835,-12.55322 0.05475,-15.92314 0.311897,-1.39564 1.212222,-3.92149 2.000724,-5.613 0.7885,-1.69151 1.433639,-3.36793 1.433639,-3.72538 0,-0.35744 -0.555231,-1.35243 -1.233846,-2.21107 -0.678615,-0.85864 -1.470002,-2.36998 -1.758636,-3.35858 l -0.524787,-1.79743 h -3.18757 c -2.900892,0 -3.296823,0.10455 -4.402401,1.16306 -1.023855,0.9802 -1.548851,1.15277 -3.339545,1.09773 -1.9531332,-0.0599 -2.1062581,0.005 -1.8962124,0.8085 0.2500549,0.9562 -0.3633434,2.42872 -1.0117237,2.42872 -0.2244222,0 -0.4080424,-0.76126 -0.4080424,-1.69169 0,-1.9539 -0.6595008,-2.21686 -1.3258139,-0.52866 -0.4248692,1.07649 -0.4824629,1.10008 -0.7738458,0.31719 -0.1934411,-0.51973 -0.075207,-1.21271 0.30668,-1.79742 0.7681183,-1.17607 0.1328151,-1.26784 -1.6178683,-0.23369 -1.2436028,0.73462 -1.990016,0.57434 -1.4434856,-0.30997 0.1679922,-0.27181 0.9483117,-0.76283 1.734042,-1.09112 1.415997,-0.59165 1.9173793,-1.40502 0.8999474,-1.45994 -4.24380309,-0.22914 -5.47510414,-1.44148 -1.855914,-1.82735 1.6953051,-0.18075 1.7884212,-0.57832 0.3299086,-1.40857 -1.4804976,-0.84275 -1.6298232,-1.18165 -0.6810687,-1.54573 0.4046345,-0.15521 1.1056407,0.26405 1.8681998,1.1175 1.5677358,1.75461 2.0094688,1.30421 0.9241112,-0.94221 -0.6923713,-1.43304 -0.7404558,-1.79765 -0.2613304,-1.9815 0.9037194,-0.34681 1.3519436,0.12627 1.6561972,1.74811 0.1532113,0.81669 0.4848351,1.48491 0.7369376,1.48491 0.3135149,0 0.3711742,-1.03581 0.1824533,-3.27765 -0.3384731,-4.02078 0.2955084,-5.31611 3.3446901,-6.83374 1.914775,-0.95301 2.156978,-0.98021 3.764846,-0.42291 2.285951,0.79231 3.569571,3.28457 3.605271,6.99994 0.01886,1.96284 0.188512,2.66078 0.693936,2.85471 1.538761,0.59048 1.794011,0.28677 2.005671,-2.38654 0.534231,-6.74749 1.484598,-9.81031 4.325559,-13.94033 0.802039,-1.16596 1.458254,-2.29085 1.458254,-2.49973 0,-0.20889 0.702541,-1.37702 1.561201,-2.59582 0.858661,-1.2188 2.014613,-2.8821 2.568786,-3.69624 1.689907,-2.48261 8.00072,-7.6174 10.720123,-8.72238 3.003712,-1.22051 3.77246,-1.2392 6.9705,-0.16939 3.199802,1.07038 4.084898,1.06263 5.075178,-0.0444 2.297668,-2.56871 6.33815,-3.88873 11.697413,-3.82148 2.409421,0.0302 2.441454,0.0144 3.267053,-1.6038 1.876802,-3.67884 8.741948,-8.95017 12.363586,-9.49327 2.106483,-0.31589 6.764394,0.60653 9.426067,1.86666 0.930425,0.44052 2.596953,1.04029 3.703415,1.33286 l 2.011728,0.53192 2.230794,-2.2031 c 1.226941,-1.21171 2.388728,-2.20309 2.581748,-2.20309 0.19301,0 1.28177,-0.77935 2.41947,-1.73189 1.78481,-1.49433 2.41925,-1.76368 4.62542,-1.96373 l 2.55686,-0.23185 -0.28254,-1.31392 c -0.15537,-0.72265 -0.72421,-2.45581 -1.26401,-3.85146 -0.96808,-2.50301 -1.99542,-7.45588 -1.97378,-9.51575 0.006,-0.58153 0.2245,-2.008901 0.48532,-3.171933 0.6071,-2.707212 0.29694,-4.045897 -1.41105,-6.090233 -0.75772,-0.906928 -1.6241,-2.24387 -1.92528,-2.970973 -0.48153,-1.162551 -0.45396,-1.425449 0.22861,-2.179693 1.27032,-1.403693 3.7912,-0.776957 5.89067,1.464499 2.72986,2.914484 4.32246,3.793727 8.24209,4.550288 3.75762,0.725297 7.72384,2.084009 12.10723,4.147575 2.05506,0.967462 3.1071,1.855159 5.11986,4.32003 1.39334,1.7063 2.66873,3.53056 2.83423,4.05392 0.45474,1.43814 1.98084,1.18756 4.26552,-0.70039 1.09952,-0.90859 2.61448,-1.98337 3.36659,-2.3884 1.27766,-0.68807 1.45918,-0.69068 2.76406,-0.0398 1.83658,0.91622 2.01201,0.89272 4.14887,-0.55547 2.39783,-1.625081 5.89434,-2.370966 7.94381,-1.694582 2.45833,0.811322 4.39919,2.782262 4.39919,4.467362 0,1.28005 -0.33386,1.69286 -3.1284,3.86823 -3.682,2.8662 -4.27767,3.71423 -3.69163,5.25563 0.40727,1.07122 -0.15746,4.08665 -0.90549,4.83466 -0.17052,0.17051 -0.31002,0.65692 -0.31002,1.08092 0,1.24327 2.14638,6.36199 3.34089,7.96736 0.60488,0.81295 1.73659,2.71572 2.51487,4.22837 1.59814,3.10606 1.60462,4.57129 0.0429,9.66903 -0.45292,1.47831 -0.82347,3.09881 -0.82347,3.60112 0,0.50231 -0.38064,1.62346 -0.84586,2.49145 -1.20993,2.25751 -1.07394,2.78084 0.95158,3.66187 2.00022,0.87002 6.30369,4.88295 7.29756,6.80488 0.35366,0.68388 0.76285,2.39008 0.90934,3.79156 0.14642,1.40148 0.40316,2.54815 0.57041,2.54815 0.61711,0 6.59197,4.20482 7.72693,5.43784 0.64531,0.70106 1.45775,1.95548 1.80542,2.78756 0.56864,1.36097 0.56265,1.65039 -0.0598,2.88187 -0.38052,0.75293 -1.05336,1.76518 -1.49519,2.24948 -0.7933,0.86951 -0.7902,0.8865 0.24925,1.3601 2.23589,1.01874 1.9036,4.70445 -0.67649,7.50352 -1.94388,2.10885 -4.66532,3.57792 -6.62808,3.57792 -1.20838,0 -1.3467,0.12772 -1.3467,1.2438 0,0.68411 0.16649,1.34671 0.36997,1.47248 0.93208,0.57606 0.13139,10.7299 -1.01967,12.93186 -0.30399,0.58152 -0.66518,1.4121 -0.80263,1.84573 -0.18057,0.56974 -0.51235,0.72206 -1.1962,0.54925 -6.203,-1.56776 -9.16852,-2.10998 -12.45486,-2.27723 -3.3646,-0.17125 -4.05672,-0.0868 -5.07508,0.61901 -0.64853,0.44952 -1.48819,0.92825 -1.86594,1.06384 -0.37773,0.13555 -1.4158,1.73667 -2.30679,3.55793 -0.891,1.82128 -2.17812,4.01788 -2.86026,4.88135 -1.10523,1.39908 -1.18692,1.69833 -0.75042,2.74902 0.2694,0.64846 1.83789,2.22576 3.48554,3.5051 1.64766,1.27935 4.30327,3.72003 5.90138,5.42377 1.5981,1.70373 3.07611,2.99233 3.28451,2.86353 0.20839,-0.12884 0.49277,-0.80357 0.63196,-1.49952 0.40345,-2.01723 2.26315,-4.62429 3.52447,-4.94086 0.9217,-0.23132 1.31279,-0.0572 2.11951,0.9436 1.76486,2.18941 1.95498,3.88279 0.99467,8.85908 -0.47385,2.45543 -0.86155,4.54991 -0.86155,4.65439 0,0.10455 0.37763,0.19 0.83917,0.19 1.23665,0 3.18893,2.05648 4.01494,4.22924 0.98685,2.59586 1.31215,7.514 0.66321,10.02731 -0.9547,3.69757 -1.34783,4.31878 -3.76998,5.95732 -3.97409,2.6884 -4.34602,2.76452 -12.07401,2.47112 -7.49813,-0.28465 -7.67385,-0.31788 -10.18509,-1.92592 -0.93042,-0.59578 -2.18152,-1.30009 -2.7802,-1.56511 -0.59868,-0.265 -1.83573,-1.38702 -2.749,-2.49334 -2.29575,-2.78101 -6.33324,-6.97339 -6.71578,-6.97339 -0.17391,0 -1.67688,1.20095 -3.33991,2.66878 -6.81272,6.01302 -9.68297,7.84669 -14.05366,8.9783 -3.09663,0.80175 -9.75416,1.07675 -11.6431,0.48093 -1.005518,-0.31717 -1.128088,-0.22757 -1.374487,1.00445 -0.148823,0.74395 -0.270545,3.6783 -0.270545,6.52078 0,4.40044 -0.109973,5.26155 -0.740113,5.79715 -1.055057,0.8967 -3.723715,2.06235 -5.308145,2.31856 -2.101081,0.33977 -7.454334,-0.54279 -8.381419,-1.38179 -1.157228,-1.04727 -1.55123,-0.4203 -1.889046,3.00598 -0.457748,4.64282 -0.92798,5.0217 -8.422275,6.7861 -2.656861,0.62552 -6.972864,0.72547 -9.552745,0.22124 z m 6.080755,-2.24947 c 0.746571,-0.52336 1.497203,-1.14188 1.668093,-1.37449 0.510897,-0.69539 0.360738,-2.45648 -0.320888,-3.7635 -0.883415,-1.694 -0.37554,-1.96515 0.841375,-0.44921 1.372508,1.70976 1.525608,2.9163 0.600346,4.73114 -0.431406,0.84617 -0.720453,1.60241 -0.642321,1.68053 0.07816,0.0782 1.169553,-0.11909 2.425406,-0.43827 2.926903,-0.74383 3.443378,-1.62343 3.206728,-5.46127 -0.09686,-1.5701 -0.01774,-2.85472 0.175542,-2.85472 0.714074,0 1.195815,1.64501 1.167842,3.98783 -0.03948,3.30346 0.760526,4.01336 1.15098,1.02139 0.101501,-0.77792 0.378432,-2.46111 0.61537,-3.74045 0.236938,-1.27935 0.699385,-4.41956 1.027643,-6.97824 0.686518,-5.35099 2.811431,-12.65709 4.071217,-13.99808 0.473396,-0.50392 1.577605,-1.03084 2.453778,-1.17094 1.233028,-0.19718 1.969225,-0.71017 3.257671,-2.27008 2.879238,-3.4859 3.838658,-4.92112 4.829761,-7.22499 0.868437,-2.01875 0.93474,-2.63938 0.677103,-6.33818 -0.157128,-2.25518 -0.32773,-4.48095 -0.379232,-4.94617 -0.05611,-0.5074 0.157127,-0.84585 0.532955,-0.84585 0.737652,0 1.827702,6.1944 1.539737,8.74993 -0.269928,2.39558 -2.093872,5.66539 -5.563593,9.97391 -1.736922,2.15684 -3.152939,4.15516 -3.14669,4.44069 0.0096,0.43439 3.03563,1.94202 6.543938,3.26023 4.503187,1.692 12.377187,1.64904 16.916917,-0.0923 2.11679,-0.81196 5.72682,-3.30181 9.51577,-6.56301 1.97715,-1.70177 3.83273,-3.28518 4.12349,-3.51867 0.9006,-0.72318 0.59126,-1.56912 -1.02439,-2.80143 -1.14818,-0.87578 -2.03017,-1.18457 -3.38337,-1.18457 -1.00671,0 -1.83035,-0.0409 -1.83035,-0.0908 0,-0.05 0.38176,-0.29517 0.84836,-0.54488 0.61451,-0.32888 1.32089,-0.31245 2.56266,0.0596 1.32532,0.39708 2.72966,1.57628 6.18923,5.19704 2.46121,2.57586 5.44737,5.48485 6.63591,6.46442 1.18854,0.97953 2.4505,2.02626 2.80435,2.32607 2.82847,2.39633 15.8415,3.54406 20.29132,1.78966 4.64358,-1.83082 5.29136,-3.12929 5.26248,-10.5489 -0.0255,-6.55221 -0.65723,-8.24699 -3.074,-8.24699 -1.29849,0 -1.78832,0.24593 -2.55491,1.28281 -1.53145,2.07139 -4.18327,3.72278 -7.84231,4.88369 -4.02386,1.27664 -6.07687,1.18054 -11.61318,-0.5436 -7.04134,-2.19284 -10.60062,-5.73254 -14.79718,-14.71574 -2.82597,-6.04935 -3.5013,-8.42611 -3.60465,-12.68636 -0.0627,-2.58324 -0.24628,-3.21496 -1.43679,-4.94258 -0.75073,-1.08943 -1.93879,-2.38939 -2.64014,-2.88881 -0.70137,-0.4994 -2.64196,-2.54438 -4.31247,-4.54441 -2.87135,-3.43773 -3.04687,-3.76918 -3.21312,-6.06758 -0.15409,-2.12916 -0.0112,-2.71987 1.15352,-4.75471 2.02507,-3.53946 3.60497,-4.68242 8.58639,-6.21169 2.39216,-0.73437 5.11064,-1.5952 6.04106,-1.91296 5.00091,-1.70783 10.07965,-2.35185 14.36777,-1.82193 0.9617,0.11877 1.29421,-0.0301 1.41488,-0.63343 0.15282,-0.7639 -0.0384,-1.28044 -1.97757,-5.3436 -1.26794,-2.65677 -1.27895,-7.75833 -0.0216,-10.03155 3.19599,-5.77836 5.03187,-7.30827 8.76981,-7.30827 1.17579,0 2.25541,0.19031 2.39918,0.42292 0.14369,0.2326 0.10741,0.42435 -0.0807,0.4261 -0.6188,0.006 -5.82482,0.8701 -6.53947,1.08571 -1.01385,0.30587 -3.68199,4.3597 -4.36655,6.63426 -0.66094,2.19616 -0.22033,6.99997 0.78373,8.54501 0.30749,0.4731 0.784,1.54668 1.05895,2.38571 0.67016,2.04513 3.29537,4.08009 6.75976,5.23989 4.10951,1.37579 6.71998,1.59597 8.51487,0.71818 2.22338,-1.08734 2.96562,-3.0858 3.30791,-8.90646 0.23747,-4.0384 0.41024,-4.93453 0.97201,-5.04192 0.54261,-0.10374 0.74131,0.38267 0.96537,2.36322 0.15521,1.37158 0.11222,2.9507 -0.0954,3.50915 -0.20769,0.55845 -0.50637,2.18322 -0.66374,3.61059 l -0.28614,2.59524 1.70551,1.25426 c 1.50624,1.10769 2.17231,1.28707 5.70008,1.53505 3.58515,0.25201 4.15969,0.18916 5.60548,-0.61309 2.377,-1.31898 3.46479,-2.46981 3.93526,-4.16336 0.69236,-2.49235 0.52945,-3.30506 -0.82262,-4.10373 -1.6649,-0.98348 -3.19655,-3.07196 -2.65215,-3.61636 0.27312,-0.27312 0.72487,-0.22358 1.31347,0.14402 1.39495,0.87117 2.35081,0.0166 2.48952,-2.22586 0.16055,-2.59573 -0.94038,-4.16219 -4.65344,-6.62107 -3.8833,-2.57164 -6.14265,-3.48193 -8.68652,-3.49983 l -2.00031,-0.0144 1.05236,-0.87543 c 0.84082,-0.69947 1.41468,-0.8258 2.85473,-0.62842 1.80162,0.24695 1.80237,0.24648 1.79308,-1.11936 -0.0185,-2.72968 -2.49186,-6.41405 -5.73197,-8.53867 -3.89569,-2.5545 -12.56102,-2.64906 -17.38485,-0.18974 -0.87024,0.4437 -1.79827,0.80671 -2.06225,0.80671 -0.80239,0 -2.96345,1.21028 -3.78807,2.12145 -0.59594,0.65852 -0.66125,0.9751 -0.27984,1.35652 0.27362,0.27362 0.4975,0.60632 0.4975,0.73931 0,0.2509 -8.20967,-0.44111 -14.24859,-1.20106 -1.90523,-0.23976 -4.18901,-0.79208 -5.07508,-1.22737 -0.88604,-0.43527 -2.46743,-1.03753 -3.51417,-1.33835 -2.51221,-0.72196 -4.12076,-1.35032 -8.50469,-3.32226 -3.64016,-1.63742 -9.48456,-6.71099 -10.037538,-8.71372 -0.854656,-3.09528 0.860268,-7.01983 4.655238,-10.65336 2.13205,-2.04135 3.05635,-2.63196 4.47373,-2.8586 1.4944,-0.23897 1.8319,-0.47519 2.06433,-1.44484 0.15281,-0.63754 0.82211,-1.97755 1.48733,-2.9778 1.28454,-1.93153 1.43487,-2.61333 0.83587,-3.79085 -0.20547,-0.4039 -0.61825,-1.25773 -0.9173,-1.8974 -0.45901,-0.9818 -0.80505,-1.16305 -2.22063,-1.16305 -2.00082,0 -4.89721,0.77216 -5.82609,1.55319 -0.36723,0.3088 -0.84645,0.56143 -1.06495,0.56143 -0.53033,0 -5.071748,4.3833 -7.010875,6.76676 -2.944406,3.61913 -5.090835,7.2244 -5.707884,9.58729 -0.366844,1.40481 -0.650952,4.67621 -0.696652,8.0218 -0.04252,3.10724 -0.22463,5.65002 -0.404839,5.65062 -0.890608,0.003 -1.229335,-2.59413 -0.979449,-7.50934 0.299772,-5.89625 0.930057,-7.77155 4.300434,-12.795 1.082837,-1.61395 1.867723,-3.1979 1.744163,-3.51988 -0.284748,-0.74202 -5.340001,-2.8269 -8.12087,-3.34916 -2.929414,-0.55019 -5.87115,-0.43605 -7.622556,0.29573 -2.383318,0.99582 -5.834209,3.50001 -6.874239,4.98842 -3.418444,4.89213 -4.329255,7.07128 -4.690153,11.22122 -0.302378,3.47693 -0.9396,4.14855 -1.396549,1.4719 -0.22495,-1.3177 -0.08727,-2.4335 0.516954,-4.18971 0.452953,-1.31653 0.823553,-2.55421 0.823553,-2.7504 0,-0.49667 -3.050288,-0.44525 -6.106921,0.10294 -4.22822,0.75833 -5.848628,1.79066 -11.915986,7.59145 -1.356678,1.29707 -1.854471,3.13457 -1.854471,6.84545 0,2.13845 -0.901824,1.95207 -1.366062,-0.28234 -0.450976,-2.17054 0.956698,-6.016 2.887147,-7.88707 2.184472,-2.11728 1.917328,-2.63603 -1.732548,-3.36444 -5.306755,-1.05907 -11.500566,2.97331 -16.628208,10.82552 -1.554433,2.38037 -3.206876,4.96089 -3.672091,5.7345 -0.465215,0.77358 -1.211766,1.98384 -1.659001,2.68946 -1.058794,1.6705 -2.342415,8.82523 -2.354693,13.12478 -0.0052,1.86086 0.213864,4.85197 0.487064,6.6469 0.421815,2.77134 0.698684,3.45925 1.835868,4.56146 l 1.339141,1.29794 -0.712515,1.99385 c -0.391884,1.09661 -1.103803,2.85025 -1.582041,3.89699 -1.81695,3.9768 -2.767278,13.84418 -1.751463,18.18568 0.244913,1.04673 0.614695,2.92555 0.82174,4.17513 0.359774,2.17138 2.785105,7.52164 4.081239,9.00318 0.337821,0.38614 1.089684,0.8214 1.670804,0.96726 0.881602,0.22127 1.387812,-0.0876 3.05662,-1.86511 1.226407,-1.30629 2.35977,-2.13031 2.930055,-2.13031 1.394327,0 1.119908,0.71758 -0.475804,1.24422 -1.319169,0.43537 -2.823401,2.5258 -2.823401,3.92368 0,0.26787 -0.361458,0.87995 -0.803244,1.36015 -1.094554,1.18974 -2.063475,4.2487 -2.901693,9.16083 l -0.702482,4.11669 1.308193,2.53654 c 0.719508,1.39509 1.781348,3.17166 2.359645,3.94793 0.578296,0.77627 1.182171,1.9625 1.341951,2.63603 0.435116,1.83423 3.182981,7.4453 3.646128,7.4453 0.22201,0 0.403655,-0.5597 0.403655,-1.24381 0,-1.4739 0.549102,-1.94941 1.260813,-1.09185 0.462381,0.55714 0.439611,3.22386 -0.05062,5.92804 -0.197979,1.09208 2.163843,2.32697 4.45227,2.32788 l 1.644701,8.5e-4 -0.225223,-2.48376 c -0.123864,-1.36607 -0.572232,-3.01339 -0.996361,-3.66069 -0.604314,-0.92229 -0.636921,-1.13568 -0.150717,-0.98636 0.945917,0.29053 2.51589,3.76892 2.805754,6.21635 0.251939,2.12724 0.293758,2.18323 1.630588,2.18323 1.151855,0 1.406752,-0.18168 1.588461,-1.13223 0.404851,-2.11785 -0.509103,-9.95172 -1.321724,-11.32901 -0.420972,-0.71349 -0.893446,-1.93746 -1.04994,-2.71993 -0.156488,-0.78248 -0.950452,-2.15978 -1.764354,-3.06067 -1.628024,-1.80202 -1.783927,-2.27419 -0.867081,-2.62601 0.359294,-0.13794 0.711166,0.0749 0.85071,0.51467 0.130897,0.41238 0.803456,1.29156 1.494593,1.9537 1.219108,1.168 1.281764,1.18116 2.099079,0.44151 2.142364,-1.93882 4.228588,-8.74839 4.239938,-13.83945 0.0081,-3.61604 -0.367455,-4.94924 -1.910625,-6.78319 -0.576533,-0.68517 -0.922763,-1.44879 -0.769395,-1.69695 0.314016,-0.50809 0.899033,0.17259 2.566571,2.98626 0.781008,1.31781 1.142256,2.64314 1.292394,4.74147 0.269117,3.76131 -0.937291,10.1785 -2.331397,12.40122 -1.273129,2.02984 -1.014833,3.38321 0.827546,4.33593 1.114856,0.57652 2.073842,0.64667 5.558904,0.40664 2.316395,-0.15952 4.769918,-0.40173 5.45228,-0.53821 1.207468,-0.24148 1.233555,-0.30024 0.97483,-2.19636 -0.146258,-1.07152 -0.477968,-2.82405 -0.73722,-3.8945 -0.391236,-1.61535 -0.338664,-2.43664 0.309187,-4.82997 0.775904,-2.8664 2.688624,-5.9112 2.717268,-4.32548 0.008,0.40706 -0.138266,0.7401 -0.323478,0.7401 -0.39429,-1.8e-4 -1.354846,5.2623 -1.354846,7.42241 0,0.81728 0.285467,2.16919 0.634376,3.00425 0.34891,0.83508 0.634393,2.0365 0.634393,2.66987 0,0.63337 0.380622,1.49603 0.845835,1.91705 0.465213,0.42102 0.845851,0.91353 0.845851,1.09449 0,0.18094 -0.951573,1.89571 -2.11462,3.81058 -1.163031,1.91487 -2.114603,3.71233 -2.114603,3.99436 0,0.28203 -0.314543,0.77381 -0.698986,1.09287 -0.896266,0.74384 -4.70123,8.50575 -5.024351,10.2494 -0.165058,0.89069 0.109813,2.26969 0.835524,4.19176 0.594827,1.57541 1.081506,3.33841 1.081506,3.91778 0,0.57936 0.176997,1.38386 0.393347,1.78775 0.216334,0.40391 0.622276,2.19993 0.902101,3.99117 0.616889,3.949 1.641606,5.24833 3.770372,4.78078 2.217208,-0.48698 3.038955,-4.57019 1.172287,-5.82515 -1.297077,-0.872 -0.547725,-1.50034 0.852212,-0.71459 1.495701,0.83951 2.062926,3.36791 1.161113,5.17564 -0.351354,0.70431 -0.638819,1.5368 -0.638819,1.84997 0,0.9115 2.419475,0.67618 3.929146,-0.38218 z M 165.21274,179.67071 c -1.09119,-1.38719 -1.52771,-3.62476 -0.92637,-4.74836 0.2539,-0.47443 0.46164,-1.54716 0.46164,-2.38388 0,-1.88333 0.91661,-2.34577 2.42193,-1.22189 2.50409,1.86957 3.64028,7.16115 1.87973,8.75442 -1.1603,1.05005 -2.83338,0.87551 -3.83693,-0.40029 z m 3.25951,-2.81181 c -0.21818,-2.59317 -1.14451,-4.75789 -2.036,-4.75789 -0.42555,0 -0.64056,0.47464 -0.67055,1.48024 -0.0243,0.81412 -0.11141,1.67054 -0.19361,1.90314 -0.0822,0.23261 -0.006,1.13661 0.16676,2.00888 0.28331,1.42074 0.4519,1.58597 1.61822,1.58597 h 1.30198 z m -18.23881,0.51308 c -1.26682,-0.99647 -1.17048,-1.57396 0.65419,-3.92103 0.89984,-1.15751 1.18142,-1.89195 1.00097,-2.61091 -0.17817,-0.70993 0.0668,-1.37814 0.84376,-2.3015 1.34264,-1.59564 2.38357,-1.65291 3.34596,-0.18413 0.695,1.0607 0.69366,1.24334 -0.0265,3.62192 -0.77308,2.55331 -3.26067,6.25706 -4.20249,6.25706 -0.28643,0 -1.01358,-0.38763 -1.61587,-0.86141 z m 3.71955,-2.43028 c 2.02844,-3.0652 1.81703,-8.05036 -0.26162,-6.1692 -0.43187,0.39084 -0.78521,1.21508 -0.78521,1.83167 0,0.61657 -0.47579,1.76595 -1.0573,2.55414 -1.41508,1.91803 -1.41767,3.38339 -0.006,3.38339 0.74795,0 1.35684,-0.46168 2.11014,-1.6 z m -63.925066,98.47755 c 2.493883,-0.94818 3.714012,-4.91201 2.184264,-7.09604 -0.941342,-1.34396 -0.008,-1.59827 1.027978,-0.28032 1.539035,1.95657 1.067669,5.39145 -0.96089,7.00204 -0.492675,0.39114 -0.781275,0.82567 -0.641346,0.96559 0.499802,0.4998 3.865704,-0.33619 4.871304,-1.2099 0.973839,-0.84612 1.03466,-1.19095 1.238255,-7.0222 l 0.214111,-6.13238 -3.40834,-1.58596 c -1.874596,-0.87227 -3.572101,-1.58595 -3.772243,-1.58595 -0.200125,0 -0.600793,-0.28549 -0.890368,-0.63439 -0.289575,-0.34892 -0.958014,-0.63438 -1.485438,-0.63438 -1.060715,0 -2.242991,2.06334 -3.15027,5.49799 -1.132965,4.28903 -1.273214,5.00949 -1.545493,7.9391 -0.305128,3.28305 -0.08968,3.60688 1.527909,2.29702 0.726304,-0.58812 1.004385,-1.39732 1.23031,-3.58002 0.438471,-4.2363 1.417729,-4.68107 1.369231,-0.6219 -0.03485,2.92213 -0.618951,4.4259 -1.955526,5.03489 -1.393335,0.63484 -1.35379,1.44075 0.09719,1.98169 1.186321,0.44224 2.232984,0.35568 4.049318,-0.33488 z M 58.124811,251.57319 c 0.69607,-0.80055 0.933264,-1.56746 0.882897,-2.85472 -0.09719,-2.48498 -0.06921,-2.5635 0.688932,-1.93425 0.518617,0.43043 0.635079,1.09793 0.492178,2.82113 -0.173799,2.09573 -0.12404,2.24827 0.695134,2.13123 0.725519,-0.10357 0.938097,-0.53946 1.196166,-2.45214 0.172617,-1.27935 0.208007,-2.96363 0.07865,-3.74282 -0.202492,-1.21974 -0.36376,-1.37865 -1.159691,-1.14272 -0.508467,0.15074 -2.455471,0.36668 -4.32667,0.4799 -3.549813,0.21482 -5.80779,-0.3391 -6.939151,-1.70231 -0.300724,-0.36235 -0.904099,-0.65881 -1.34083,-0.65881 -0.92344,0 -1.062023,1.2502 -0.296093,2.67106 0.273884,0.50807 0.819936,2.16082 1.213454,3.67278 0.643833,2.47371 0.83206,2.76288 1.879628,2.88779 1.470531,0.17531 2.007817,-0.36245 2.554005,-2.55632 0.239581,-0.96231 0.667791,-1.82708 0.951576,-1.92166 0.761354,-0.25379 0.65339,2.47456 -0.142901,3.61144 -0.857104,1.22368 -0.466529,1.78505 1.241959,1.78505 0.956373,0 1.670694,-0.33548 2.330767,-1.09463 z m 7.2269,-6.37767 c 0.01998,-1.0491 -0.537542,-1.83201 -1.304605,-1.83201 -0.852037,0 -1.058157,1.32061 -0.519992,3.33139 l 0.269068,1.00531 0.773073,-1.00531 c 0.425171,-0.55292 0.777294,-1.22764 0.782456,-1.49938 z m 87.131529,0.10822 c 3.85257,-1.12318 5.78487,-2.21464 6.51626,-3.68072 1.05025,-2.10528 0.84793,-3.66585 -0.72826,-5.61712 -0.77091,-0.95439 -2.28505,-2.9723 -3.36476,-4.48424 -2.37369,-3.32398 -5.26033,-6.48157 -6.52439,-7.13679 -0.51107,-0.26491 -1.84328,-1.24989 -2.96047,-2.18884 -1.11717,-0.93894 -2.45943,-2.06511 -2.9828,-2.50261 -1.26666,-1.05883 -1.203,-2.59465 0.15968,-3.85193 1.06994,-0.98717 3.5409,-5.82191 3.5409,-6.92818 0,-0.29561 -0.84067,-0.85856 -1.86815,-1.25097 -1.0275,-0.3924 -2.69276,-1.43784 -3.70059,-2.32325 -1.00781,-0.88537 -2.64124,-2.02139 -3.62982,-2.5245 -1.89459,-0.96417 -2.31591,-2.05535 -1.16304,-3.01215 0.34891,-0.28958 0.63439,-0.78428 0.63439,-1.09935 0,-0.31507 0.47578,-0.8846 1.05731,-1.26562 0.58152,-0.38102 1.0573,-0.9469 1.0573,-1.2575 0,-0.31059 0.25263,-0.71692 0.56137,-0.90293 0.30876,-0.18603 1.10315,-2.01935 1.76531,-4.07406 1.41816,-4.40066 1.36248,-4.49489 -2.66171,-4.50467 -4.0464,-0.01 -11.06379,1.57562 -15.9475,3.60309 -0.69783,0.28971 -2.36749,0.8397 -3.71038,1.22224 -3.75193,1.06877 -5.73985,3.69327 -6.11059,8.06734 -0.20645,2.43561 -0.14946,2.6239 1.41956,4.68796 3.92523,5.16381 4.16202,5.36964 5.93194,5.15687 2.20955,-0.26563 4.84074,0.92213 6.33588,2.86012 2.5615,3.32023 2.89667,3.60747 4.38058,3.75413 0.81412,0.0804 2.01598,0.35915 2.6708,0.61928 0.65482,0.26011 1.44789,0.47295 1.76239,0.47295 1.03396,0 6.0513,6.03555 8.05051,9.68425 3.75131,6.84647 4.62877,14.5309 1.99723,17.49113 -0.7299,0.82104 -0.74448,0.79186 0.74429,1.4901 1.26443,0.59305 3.60064,0.41902 6.76678,-0.50403 z m -8.52097,-1.89266 c 0.34981,-0.22168 0.73012,-1.80254 0.9794,-4.07114 0.48946,-4.45433 0.10838,-6.39631 -2.26238,-11.52774 -2.47673,-5.36086 -7.47775,-10.24699 -10.48795,-10.24699 -1.60608,0 -1.64453,0.70363 -0.16641,3.0451 2.12891,3.37244 2.47016,4.52464 3.38206,11.4192 0.14466,1.09346 0.0216,3.26738 -0.27345,4.83093 -0.52765,2.79641 -0.51986,2.85517 0.47685,3.59749 0.55728,0.41505 1.55194,1.17062 2.21035,1.67903 1.75158,1.35252 4.96558,2.0193 6.14153,1.27412 z m -10.34701,-5.90624 c 0.58872,-2.05279 -0.28076,-11.77964 -1.12879,-12.62767 -0.7628,-0.76281 -1.57231,-0.39507 -1.57231,0.71425 0,0.43265 -0.31765,1.42057 -0.70593,2.19538 -1.14482,2.28463 -1.24299,2.59897 -1.34417,4.30451 -0.0729,1.22953 0.29226,2.29157 1.495,4.34762 1.76551,3.01809 2.61643,3.29665 3.2562,1.06591 z m 27.59573,-1.66046 c 0.057,-0.40034 0.32891,-1.92797 0.60398,-3.39474 0.57409,-3.06094 0.32985,-6.3626 -0.51003,-6.89473 -1.45754,-0.92353 -2.39502,-0.42321 -3.05753,1.63178 -1.53077,4.74817 -1.37699,5.73986 1.34371,8.66552 1.125,1.20975 1.44641,1.2082 1.61987,-0.008 z m -33.25467,-6.56803 c 9.9e-4,-0.27703 0.26897,-1.01424 0.59452,-1.63824 0.32556,-0.624 0.71963,-1.716 0.87571,-2.42665 0.15601,-0.71067 0.74497,-1.65487 1.30864,-2.09825 1.26335,-0.99374 1.27706,-1.46169 0.0926,-3.15665 -3.79951,-5.43662 -7.62778,-9.15812 -9.42085,-9.15812 -0.94045,0 -0.79622,0.53649 0.62501,2.32485 1.47919,1.86133 1.93262,3.42675 2.30673,7.96365 0.17382,2.108 0.63961,4.10483 1.2825,5.49799 0.55524,1.20324 1.11558,2.53283 1.2452,2.95465 0.24744,0.8053 1.08559,0.60291 1.09006,-0.26323 z m 20.97415,-23.2967 c 1.18617,-0.55234 2.55627,-1.56542 3.04466,-2.25128 1.38466,-1.94458 3.89148,-9.90771 3.89148,-12.36162 0,-2.12852 -0.006,-2.13739 -1.37449,-2.14197 -1.78519,-0.006 -5.12639,-1.02767 -6.57616,-2.01096 -1.00107,-0.67899 -3.26278,-1.79075 -3.64295,-1.79075 -0.0742,0 -0.56308,1.18946 -1.08644,2.64325 -1.53292,4.25831 -2.77351,6.72059 -4.61977,9.16923 -0.95243,1.26321 -1.73171,2.69785 -1.73171,3.1881 0,1.58514 6.56604,6.55075 8.66992,6.55666 0.69783,0.002 2.23928,-0.44835 3.42546,-1.00066 z m 20.27278,-1.20787 c 0.73328,-1.21246 0.83128,-2.16157 0.83128,-8.05096 0,-7.3257 -0.0505,-7.47248 -2.57961,-7.48498 -0.74795,-0.003 -2.11004,-0.548 -3.17192,-1.26755 -2.34666,-1.59012 -3.13085,-1.59147 -4.46351,-0.008 -0.58718,0.69782 -1.31855,1.26877 -1.62524,1.26877 -0.3667,0 -0.62258,0.7603 -0.74724,2.22034 -0.15362,1.79827 -1.66701,6.7415 -3.49609,11.41892 -0.2433,0.62218 -0.0446,0.74011 1.24728,0.74011 1.35658,0 3.09034,0.35722 9.76126,2.01121 2.88622,0.71562 3.35462,0.62199 4.24379,-0.84818 z M 10.584921,175.213 c 2.432102,0.12595 4.954121,-2.14735 6.138768,-5.53324 1.074146,-3.07005 1.068417,-4.67867 -0.02471,-6.93678 -1.222265,-2.52484 -3.080197,-3.14287 -5.447871,-1.81216 -2.4089964,1.35393 -3.1661065,3.94058 -2.0537763,7.01666 0.3747003,1.03623 0.7628614,1.40453 1.4802293,1.40453 1.067587,0 1.25783,-0.79095 0.52127,-2.16722 -0.618187,-1.15509 -0.131297,-3.03523 1.141762,-4.40887 0.909944,-0.98184 1.203683,-1.07994 2.062255,-0.68876 1.271422,0.5793 1.725685,1.51067 1.861516,3.81664 0.08451,1.43469 -0.108407,2.0727 -0.878587,2.9057 -1.352698,1.46305 -4.215291,2.64107 -5.8078563,2.39009 -1.0017718,-0.15793 -1.5506791,0.0449 -2.3881896,0.88246 l -1.0874534,1.08745 0.903002,1.26815 c 0.5085241,0.71415 1.108892,1.14091 1.3743079,0.97687 0.2592188,-0.16021 1.2516189,-0.25089 2.2053334,-0.20152 z m 10.369293,-3.53491 c 0,-1.37738 -0.09225,-1.48024 -1.327876,-1.48024 -1.397164,0 -2.441728,0.9409 -2.46498,2.22035 -0.01087,0.59722 0.353999,0.74011 1.889703,0.74011 1.893083,0 1.903153,-0.008 1.903153,-1.48022 z m -6.555306,-5.92671 c 0,-1.86494 -0.110053,-2.12446 -0.951577,-2.24397 -0.85033,-0.12068 -0.951575,0.0443 -0.951575,1.55138 0,2.20411 0.370031,3.09666 1.216252,2.93369 0.524394,-0.10103 0.6869,-0.63118 0.6869,-2.2411 z M 138.36811,153.57172 c 0.73149,-1.11943 2.35107,-3.04164 3.59906,-4.2716 6.20498,-6.1153 10.11558,-12.80163 12.16555,-20.80061 1.93171,-7.5376 1.79964,-8.54566 -1.69949,-12.97241 -0.90294,-1.14228 -1.64169,-2.2501 -1.64169,-2.46181 0,-0.21171 -0.28058,-0.38494 -0.62352,-0.38494 -0.34293,0 -0.91367,-0.56112 -1.26831,-1.24692 -0.73791,-1.42693 -3.14875,-3.40524 -4.14977,-3.40524 -0.37139,0 -0.79286,-0.19031 -0.93662,-0.42292 -0.35287,-0.57096 -4.65152,-0.53709 -6.52528,0.0515 -0.83063,0.26086 -4.6335,2.02128 -8.45079,3.91202 -6.41666,3.17823 -7.19877,3.69465 -10.3616,6.84169 -1.88161,1.87216 -3.63214,3.69097 -3.89008,4.04178 -0.93313,1.26901 -2.25286,3.99854 -2.48339,5.13621 -0.20177,0.99578 -0.44341,1.16302 -1.68028,1.16302 -2.21378,0 -3.63387,0.7157 -5.71786,2.88164 -2.54004,2.63993 -3.81739,5.45407 -3.81739,8.41011 0,2.07648 0.14898,2.46949 1.38756,3.65859 1.80846,1.7363 7.41987,5.77289 8.0251,5.77289 0.25874,0 1.24419,0.37192 2.18992,0.82647 6.55455,3.15043 15.86311,5.46047 21.59266,5.35853 l 2.95625,-0.0526 z m 0.0177,-7.76242 c -0.64771,-0.64773 -0.18776,-1.93449 1.26716,-3.54489 1.3614,-1.50691 1.62426,-1.6395 2.16945,-1.09432 0.75552,0.75553 0.45302,2.22811 -0.7796,3.79514 -0.84291,1.07158 -2.04698,1.45408 -2.65701,0.84407 z m -2.92518,-1.02068 c -0.4869,-0.2836 -0.74014,-0.94939 -0.74014,-1.94596 0,-3.03256 5.13545,-6.65502 7.92896,-5.59292 1.62179,0.61659 0.53304,1.4253 -1.73144,1.28606 -1.47381,-0.0907 -2.10277,0.11061 -3.18097,1.01787 -1.91619,1.61235 -2.28244,2.47053 -1.80005,4.21768 0.22386,0.81073 0.37479,1.46827 0.33538,1.4612 -0.0395,-0.006 -0.40468,-0.20686 -0.81174,-0.44393 z m -2.59652,-4.01454 c -0.55818,-1.45463 1.50135,-3.98712 3.2425,-3.98712 1.0676,0 1.17639,0.0948 0.72851,0.63437 -0.28958,0.34891 -0.84576,0.63439 -1.23597,0.63439 -1.04949,0 -1.72449,0.8608 -1.72449,2.1992 0,1.28363 -0.59908,1.59142 -1.01055,0.51916 z m 7.59088,13.6699 c 2.86849,-2.00082 3.90274,-2.56134 6.84747,-3.71115 1.45379,-0.56765 2.64328,-1.18071 2.64328,-1.36235 0,-0.18162 -0.23218,-0.702 -0.51596,-1.15638 -0.42895,-0.6869 -0.37117,-1.02001 0.34294,-1.97647 1.1679,-1.5643 1.69003,-1.65196 2.4977,-0.41931 0.57101,0.87147 0.59609,1.19376 0.14866,1.91018 -0.63544,1.0175 -0.3512,1.45606 0.68582,1.05811 0.59447,-0.22812 0.70032,-0.63122 0.5302,-2.01885 -0.11685,-0.9536 -0.35762,-2.089 -0.5349,-2.52313 -0.28301,-0.6931 -0.21511,-0.73195 0.55705,-0.3187 0.65393,0.34996 0.95249,1.05597 1.16464,2.75398 0.25932,2.07552 0.39399,2.30509 1.47959,2.52221 0.67457,0.13491 1.72999,-0.0284 2.42518,-0.37517 1.08052,-0.53903 1.39523,-1.1732 2.57595,-5.19068 0.73979,-2.51714 1.45598,-6.08712 1.59153,-7.93332 l 0.24649,-3.35669 -2.88228,-4.75396 c -1.70783,-2.81687 -2.99353,-4.54016 -3.15533,-4.22923 -0.15025,0.2886 -0.60029,1.85694 -1.00025,3.48519 -1.28473,5.23018 -2.01902,7.58318 -2.77158,8.88138 -0.40453,0.69782 -1.30844,2.33232 -2.00868,3.63219 -1.45983,2.70993 -5.59258,7.93633 -8.98943,11.3683 -2.44397,2.46924 -4.22923,4.52923 -4.22923,4.88011 0,0.3955 0.38794,0.20306 2.35111,-1.16626 z m 15.19786,-7.51066 c -0.14498,-0.23469 -0.14546,-0.7991 -9.9e-4,-1.25424 0.14451,-0.45516 0.0769,-1.5002 -0.15009,-2.32231 -0.44299,-1.60435 0.047,-2.03327 0.77298,-0.6767 0.93912,1.75476 0.34509,5.81778 -0.62185,4.25325 z m -38.9336,-28.30388 c 0.99642,-1.04007 1.14254,-1.46734 0.9038,-2.64327 -0.15666,-0.77148 -0.44062,-2.63973 -0.63109,-4.15168 -0.19047,-1.51195 -0.59345,-3.90846 -0.89551,-5.32556 -0.63601,-2.98384 -0.42647,-3.83167 1.0894,-4.40801 1.97355,-0.75034 3.40561,-0.45618 5.84743,1.20107 2.26505,1.53729 5.34333,5.17294 5.34333,6.31081 0,0.89489 1.22219,0.59745 4.05539,-0.98696 1.49192,-0.83433 3.23569,-1.66188 3.87502,-1.83899 1.63532,-0.45301 1.38115,-1.64751 -1.06236,-4.99277 -1.82799,-2.502561 -2.70307,-3.19298 -6.1548,-4.856006 -2.2165,-1.067891 -8.17543,-2.814388 -10.51638,-3.082193 -3.40626,-0.389686 -4.36457,-0.899814 -7.53352,-4.010267 -2.15235,-2.112623 -2.83381,-2.540655 -4.04481,-2.540655 -1.8739,0 -1.96787,1.137217 -0.22957,2.777896 0.67474,0.636838 1.64999,2.061408 2.1672,3.165696 l 0.94041,2.007796 -0.88671,2.824953 c -0.76038,2.42247 -0.82185,3.13643 -0.43131,5.01141 1.07275,5.15059 1.94384,7.88086 5.0492,15.82575 0.50935,1.30314 1.69486,1.19315 3.11488,-0.28902 z m 40.49601,-1.96606 c 0.16192,-0.91133 0.18583,-2.5597 0.0533,-3.66304 -0.27404,-2.27859 0.053,-2.85334 2.50402,-4.4006 1.21978,-0.77 1.59218,-1.28081 1.59218,-2.18396 0,-2.3043 -1.28451,-2.7006 -4.35333,-1.34312 -2.21481,0.97971 -2.42744,1.35872 -1.88149,3.35361 0.51815,1.89326 0.15825,3.99224 -0.91927,5.36216 l -0.86127,1.09494 1.29493,1.8821 c 0.7122,1.03516 1.51581,1.80849 1.78579,1.7185 0.27,-0.09 0.62337,-0.90927 0.78529,-1.82059 z m -36.49975,-1.82951 c 0.70569,-0.44692 0.42215,-1.7879 -0.79509,-3.76043 -1.45217,-2.35318 -1.87666,-1.02974 -1.02411,3.19286 0.20119,0.9965 0.83144,1.19312 1.8192,0.56757 z m 33.19283,-1.83634 c 0.40892,-1.52585 0.30505,-4.54642 -0.15633,-4.54642 -0.23262,0 -0.42293,0.48051 -0.42293,1.06778 0,0.74981 -0.31485,1.18747 -1.05731,1.46975 -1.23119,0.46811 -1.33547,1.10626 -0.35737,2.18705 0.94187,1.04076 1.6851,0.97435 1.99396,-0.17816 z m -28.4735,-0.84584 c 1.93318,-1.10385 2.10778,-2.0362 0.84489,-4.51168 -1.2056,-2.36317 -4.26234,-4.26397 -6.85701,-4.26397 h -2.04209 l 0.006,1.58596 c 0.008,2.19445 0.411,3.48911 1.08614,3.48911 0.82046,0 3.57531,2.52216 4.0134,3.67442 0.46252,1.21655 0.85803,1.22004 2.9489,0.0262 z m 25.90345,-1.6917 c 0.79328,-0.36841 1.13933,-0.85197 1.14162,-1.59533 0.006,-2.26707 4.52302,-5.91154 7.32524,-5.91154 1.11783,0 2.82823,1.6005 2.82823,2.6465 0,0.45793 0.2288,0.7311 0.52864,0.63115 0.32709,-0.10902 0.52866,-0.96688 0.52866,-2.2499 0,-1.85386 -0.12549,-2.1338 -1.18366,-2.64097 -0.65101,-0.31203 -2.17354,-0.5877 -3.38339,-0.61259 -1.80699,-0.0372 -2.80125,0.26763 -5.56888,1.70738 -2.98751,1.55412 -3.4464,1.68275 -4.05106,1.13554 -1.08153,-0.97876 -3.25994,-0.74491 -5.08513,0.54592 -1.79161,1.26707 -2.21245,2.64327 -0.80832,2.64327 1.15689,0 4.03965,1.86787 4.89316,3.17048 0.78547,1.19879 1.22004,1.28005 2.83489,0.53009 z"
         style="fill:#000000;stroke-width:0.42292294" />
    </g>
  </g>
</svg>
