<?xml version="1.0" encoding="UTF-8" standalone="no"?>
<!-- Created with Inkscape (http://www.inkscape.org/) -->

<svg
   xmlns:dc="http://purl.org/dc/elements/1.1/"
   xmlns:cc="http://creativecommons.org/ns#"
   xmlns:rdf="http://www.w3.org/1999/02/22-rdf-syntax-ns#"
   xmlns:svg="http://www.w3.org/2000/svg"
   xmlns="http://www.w3.org/2000/svg"
   xmlns:sodipodi="http://sodipodi.sourceforge.net/DTD/sodipodi-0.dtd"
   xmlns:inkscape="http://www.inkscape.org/namespaces/inkscape"
   id="svg4156"
   version="1.1"
   inkscape:version="0.91 r13725"
   width="243.75"
   height="395.625"
   viewBox="0 0 243.75 395.625"
   sodipodi:docname="ComicCharacter55.svg">
  <metadata
     id="metadata4162">
    <rdf:RDF>
      <cc:Work
         rdf:about="">
        <dc:format>image/svg+xml</dc:format>
        <dc:type
           rdf:resource="http://purl.org/dc/dcmitype/StillImage" />
        <dc:title></dc:title>
      </cc:Work>
    </rdf:RDF>
  </metadata>
  <defs
     id="defs4160" />
  <sodipodi:namedview
     pagecolor="#ffffff"
     bordercolor="#666666"
     borderopacity="1"
     objecttolerance="10"
     gridtolerance="10"
     guidetolerance="10"
     inkscape:pageopacity="0"
     inkscape:pageshadow="2"
     inkscape:window-width="1600"
     inkscape:window-height="837"
     id="namedview4158"
     showgrid="false"
     inkscape:zoom="1.6935229"
     inkscape:cx="121.875"
     inkscape:cy="197.8125"
     inkscape:window-x="-8"
     inkscape:window-y="-8"
     inkscape:window-maximized="1"
     inkscape:current-layer="svg4156" />
  <path
     style="fill:#000000"
     d="m 66.293303,395.0433 c -0.319932,-0.31993 -2.516593,-0.94317 -4.881467,-1.38498 -6.344655,-1.18531 -15.345311,-9.28332 -10.318086,-9.28332 0.773437,0 1.40625,-0.42188 1.40625,-0.9375 0,-1.46542 -1.096762,-1.11472 -3.461514,1.10685 l -2.176111,2.04435 -2.623112,-2.5131 c -2.018577,-1.93392 -3.55737,-2.5131 -6.676922,-2.5131 -2.229595,0 -7.433494,-1.14441 -11.564217,-2.54313 -6.58343,-2.22923 -7.667788,-2.91979 -8.785516,-5.59489 -0.701309,-1.67847 -1.275108,-4.30701 -1.275108,-5.84121 0,-4.49263 2.738644,-5.69864 13.099224,-5.76846 8.573915,-0.0577 17.94933,-1.45634 20.416401,-3.04557 0.644531,-0.41519 1.171875,-1.89212 1.171875,-3.28205 0,-2.87549 -2.572012,-5.09058 -16.835602,-14.49936 -4.876769,-3.21689 -9.939269,-7.36162 -11.25,-9.2105 -1.310731,-1.84888 -4.281586,-5.79216 -6.601898,-8.76286 -5.404899,-6.91988 -9.7649837,-13.74527 -12.7882542,-20.01905 -1.9633518,-4.07428 -2.2220464,-5.43009 -1.4310358,-7.5 0.5310573,-1.38967 1.2473419,-5.4798 1.5917434,-9.08917 0.6180023,-6.47675 2.2254928,-11.69536 4.4152715,-14.33388 1.5082775,-1.81736 4.7022101,-10.60841 8.2412951,-22.68351 1.131198,-3.85957 3.31352,-9.67741 4.849605,-12.92854 2.799777,-5.92574 2.921018,-8.64782 0.385173,-8.64782 -0.746651,0 -1.570336,-0.52734 -1.83041,-1.17188 -0.297117,-0.73633 -0.50037,-0.77899 -0.546875,-0.11478 -0.04071,0.58139 0.558799,1.58226 1.332237,2.22416 1.789184,1.48489 1.790903,3.20118 0.0047,4.68361 -2.134008,1.77107 -5.725614,-0.99608 -6.474561,-4.9883 -1.025479,-5.46628 1.100127,-20.50967 3.195035,-22.61197 2.402337,-2.41083 3.275581,-1.34147 1.967876,2.40981 -0.633144,1.81623 -0.817432,5.34512 -0.460881,8.82526 l 0.594116,5.79891 5.960545,-3.62116 c 3.278306,-1.99164 6.60937,-3.62116 7.402371,-3.62116 2.197121,0 12.274419,-4.28914 15.539151,-6.61383 2.223898,-1.58356 2.756202,-2.52472 2.292009,-4.0525 -0.332535,-1.09446 -0.684088,-4.20406 -0.781229,-6.91024 -0.09714,-2.70617 -0.276379,-4.92101 -0.398308,-4.92187 -0.121929,-8.6e-4 -4.762554,1.71359 -10.3125,3.80986 -5.549946,2.09629 -11.731403,3.88926 -13.736571,3.98438 L 21.302229,201.09375 20.942495,195 c -0.369947,-6.26674 0.828572,-10.23769 3.340294,-11.0671 0.9985,-0.32973 1.146295,0.10274 0.615478,1.80096 -1.802616,5.76707 -1.684662,7.0288 0.809902,8.6633 1.830288,1.19925 2.884422,1.35606 4.239752,0.63071 0.992097,-0.53095 2.969029,-0.96537 4.39318,-0.96537 1.424152,0 4.12634,-1.06512 6.004864,-2.36694 1.878523,-1.30182 5.276199,-2.68304 7.550391,-3.06936 3.3668,-0.57194 4.193076,-1.10941 4.448109,-2.89336 0.172268,-1.20502 -0.07538,-1.95078 -0.550343,-1.65724 -2.979437,1.84139 -7.478142,-7.21219 -9.161451,-18.4373 -0.724055,-4.82835 0.955427,-6.37729 1.962722,-1.81018 1.419398,6.43561 4.856098,15.62446 5.984322,16.00053 0.74143,0.24715 0.979403,-0.0131 0.589203,-0.64453 -0.379579,-0.61416 -0.04055,-1.05912 0.807004,-1.05912 0.803867,0 1.461578,-0.40864 1.461578,-0.90808 0,-0.49944 -0.575345,-0.68729 -1.278544,-0.41745 -0.928542,0.35631 -1.411473,-0.68872 -1.764128,-3.81746 -0.267071,-2.36946 -1.145769,-5.03759 -1.952661,-5.92919 -1.828833,-2.02084 -0.770051,-7.78347 1.987123,-10.8153 1.009731,-1.11032 2.580241,-4.33908 3.490023,-7.17502 0.909783,-2.83594 2.900706,-7.64854 4.424274,-10.69467 2.627204,-5.25268 2.680933,-5.58835 1.041393,-6.50588 -2.347602,-1.31378 -2.320071,-1.33368 -4.538788,3.28183 -1.691347,3.51844 -2.325925,4.04805 -4.646469,3.87791 -3.562231,-0.26119 -4.973796,-1.70653 -3.721646,-3.81071 1.843831,-3.09847 0.569332,-4.89848 -3.468375,-4.89848 -8.403851,0 -12.72639,-5.52141 -12.208376,-15.5944 0.316372,-6.15195 0.05181,-6.59759 -4.93453,-8.31185 -2.050725,-0.70502 -3.720845,-2.73999 -6.734901,-8.206191 -2.20437,-3.997781 -4.141303,-8.427471 -4.304295,-9.843752 -0.266976,-2.31982 -0.738811,-2.62591 -4.760287,-3.088101 C 1.332808,84.26434 -2.2770302,75.516831 3.437437,69.202416 4.3280112,68.218342 7.4749248,66.12427 10.430578,64.548923 18.325804,60.340812 27.1875,49.093706 27.1875,43.281339 c 0,-3.720557 4.897248,-9.531339 8.032882,-9.531339 1.337712,0 2.658263,-0.834677 3.337267,-2.109375 1.426899,-2.678724 3.63993,-4.385144 5.736525,-4.42331 0.900859,-0.0164 3.231079,-1.469134 5.178268,-3.228303 1.947189,-1.759168 4.760562,-3.341199 6.251941,-3.515625 2.222667,-0.259953 2.894862,-0.949746 3.727982,-3.825573 1.67352,-5.776785 3.280813,-6.9084331 11.524071,-8.1137567 6.628014,-0.9691439 8.367451,-0.8786505 15.621105,0.8126803 4.489412,1.0467944 10.993884,1.9087054 14.454389,1.9153574 3.62514,0.0069 8.80945,0.801293 12.23196,1.874142 5.7071,1.788995 7.74349,1.818267 13.61706,0.195745 2.34796,-0.648605 2.70542,-1.219971 2.86862,-4.5852259 0.3498,-7.2126609 6.20316,-12.017943 6.93332,-5.6918649 0.16316,1.4135599 0.6905,2.5701088 1.17188,2.5701088 0.48138,0 0.87523,0.6328125 0.87523,1.40625 0,0.9312291 0.93135,1.40625 2.75717,1.40625 3.37803,0 3.49072,0.1757018 4.6233,7.208384 1.11347,6.914001 0.40941,13.416616 -1.45264,13.416616 -0.98556,0 -1.18113,0.781049 -0.76291,3.046875 0.30931,1.675781 0.67226,10.429687 0.80657,19.453125 0.15503,10.415999 0.6498,17.153922 1.3551,18.453993 0.62598,1.153869 1.11091,5.790672 1.11091,10.622292 l 0,8.574549 -3.75,1.473043 c -2.0625,0.810173 -3.75,1.849975 -3.75,2.31067 0,0.460696 2.13629,4.003481 4.74732,7.872853 4.34174,6.43418 5.55222,10.04029 3.26785,9.73508 -0.4901,-0.0654 -1.21479,0.75599 -1.61042,1.82549 -0.59735,1.6148 -1.5193,1.94453 -5.43704,1.94453 -4.63522,0 -5.91763,1.087 -3.92639,3.32813 0.43523,0.48984 1.74054,3.29346 2.9007,6.23027 1.83803,4.65279 2.09702,6.94409 2.01336,17.8125 -0.0528,6.86007 -0.53219,15.84785 -1.06531,19.97285 -0.53311,4.125 -1.20512,9.29585 -1.49334,11.49077 -0.41198,3.1373 -0.0159,4.96263 1.85209,8.53505 2.27631,4.35336 2.31763,4.71415 0.98328,8.58709 -1.79546,5.2114 -0.66287,8.06781 4.45317,11.23084 2.08499,1.28906 5.73387,4.66406 8.10864,7.5 2.37476,2.83594 5.2318,6 6.34897,7.03125 1.11716,1.03125 3.02945,4.19531 4.24953,7.03125 1.85727,4.317 2.21059,6.68215 2.1708,14.53125 -0.0511,10.07642 -2.79124,21.62256 -6.00723,25.3125 -0.8988,1.03125 -2.12361,2.82422 -2.72181,3.98437 -0.5982,1.16016 -1.62801,2.10938 -2.28846,2.10938 -2.06668,0 -12.44557,10.63571 -13.1561,13.48164 -0.52774,2.11377 -0.2092,3.19539 1.46635,4.97893 2.5984,2.76586 2.73677,8.09986 0.3164,12.19722 -1.54818,2.62084 -1.54989,2.93871 -0.0316,5.87473 2.23041,4.31317 1.25032,13.15498 -1.45822,13.15498 -1.28069,0 -1.80754,-0.65287 -1.80754,-2.23989 0,-2.37849 -3.19507,-7.05812 -4.16187,-6.09567 -0.3153,0.31389 0.59635,2.84514 2.02588,5.625 3.36488,6.54336 8.28939,11.02743 7.09513,6.46056 -0.86995,-3.32669 0.35204,-2.4979 10.64375,7.21885 5.74524,5.42428 7.81117,9.45472 7.83288,15.28115 0.0145,3.90237 3.24417,8.18033 6.73042,8.91513 1.71328,0.36109 5.51413,1.45153 8.44633,2.42317 5.25938,1.74282 24.3058,3.56469 19.51248,1.86647 -1.28906,-0.4567 -3.50391,-0.87243 -4.92188,-0.92382 -3.05919,-0.11089 -3.15376,-0.45531 -0.77746,-2.83161 1.43736,-1.43736 4.03876,-1.99173 12.89344,-2.74767 6.10103,-0.52085 12.27913,-1.39805 13.72912,-1.94933 1.44999,-0.55129 4.48655,-1.00234 6.74792,-1.00234 2.26136,0 6.25873,-0.46048 8.88303,-1.02329 2.62429,-0.56282 5.49271,-0.74241 6.37426,-0.3991 1.46784,0.57162 1.44492,0.76035 -0.27218,2.24095 -1.03125,0.88922 -2.33959,2.43473 -2.90742,3.43448 -0.75693,1.33267 -1.88269,1.75412 -4.21875,1.57939 -1.75248,-0.13108 -3.81914,0.18404 -4.59258,0.70027 -1.15281,0.76943 -1.03606,0.94117 0.64779,0.95295 2.00987,0.0141 3.75319,1.55087 2.81898,2.48508 -0.25904,0.25905 -2.51614,0.76353 -5.01575,1.12109 -2.71654,0.38858 -4.54477,1.1306 -4.54477,1.84458 0,1.94142 -2.51581,2.97144 -7.29504,2.98675 -3.40499,0.0109 -4.62807,0.40874 -5.08787,1.65497 -0.79514,2.1551 -2.14191,3.01497 -4.74967,3.03253 -1.40462,0.009 -2.43676,0.81439 -3.02367,2.3581 -0.4901,1.28906 -1.32341,2.34375 -1.8518,2.34375 -0.52838,0 -0.9607,0.58373 -0.9607,1.29716 0,1.23231 -3.82252,4.87305 -10.38227,9.88856 -2.14464,1.63977 -5.22375,2.61102 -10.97193,3.4609 -4.39485,0.64979 -10.11739,2.09635 -12.71678,3.21457 -4.00704,1.72379 -5.71545,1.93566 -11.228,1.39246 -3.57602,-0.35237 -7.54915,-1.03885 -8.8292,-1.52552 -1.48793,-0.56572 -6.87128,-0.50642 -14.9259,0.16439 -15.81618,1.31722 -17.84658,0.94925 -21.24109,-3.84945 -2.93181,-4.1446 -5.86176,-4.80329 -10.64448,-2.39304 -7.175665,3.61618 -18.174828,7.92616 -22.62212,8.86439 -5.47678,1.15541 -10.806096,1.36771 -11.707427,0.46638 z m 9.089237,-8.32455 c -0.844626,-1.28906 -1.918764,-2.34375 -2.386974,-2.34375 -0.46821,0 -0.160233,1.05469 0.684394,2.34375 0.844626,1.28906 1.918764,2.34375 2.386974,2.34375 0.46821,0 0.160233,-1.05469 -0.684394,-2.34375 z m 57.92399,-1.51327 c 1.85929,-1.99197 3.39588,-2.70548 5.82639,-2.70548 4.19,0 5.24208,-1.84725 5.24208,-9.20403 0,-4.72723 0.27661,-5.64962 1.81485,-6.05188 2.20443,-0.57647 6.10137,1.33406 8.6069,4.21965 1.57488,1.81378 1.78568,3.12202 1.41985,8.81182 -0.39809,6.19161 -0.27477,6.76467 1.68094,7.81133 1.1608,0.62123 3.33719,0.98943 4.83643,0.81819 2.19302,-0.25047 2.81932,-0.85618 3.20391,-3.09855 0.75853,-4.42274 6.44358,-6.48745 10.94885,-3.97643 1.15548,0.64401 4.29172,1.0003 7.21946,0.82019 6.21829,-0.38256 9.36764,-2.81223 10.33601,-7.97405 1.06224,-5.66224 -4.0466,-10.85391 -10.6922,-10.86554 l -3.28125,-0.006 3.08469,2.8056 c 3.64217,3.31262 4.67861,5.70171 4.12117,9.49974 -0.4871,3.31883 -4.01283,5.44912 -6.12177,3.69885 -0.72335,-0.60033 -2.01447,-0.82317 -2.86916,-0.49519 -1.33287,0.51147 -1.47696,0.0803 -1.01279,-3.03071 0.59231,-3.96979 -2.11355,-9.72087 -4.57357,-9.72087 -0.71788,0 -1.83042,-0.63281 -2.47232,-1.40625 -0.6419,-0.77344 -1.58896,-1.40625 -2.10458,-1.40625 -0.54572,0 -0.47505,0.55722 0.16913,1.33342 1.30733,1.57522 0.96096,10.38533 -0.4083,10.38533 -0.51563,0 -1.07744,-1.47487 -1.24847,-3.27749 -0.5166,-5.44465 -4.40351,-8.1484 -4.3856,-3.05064 0.0103,2.94423 -1.72158,4.03085 -2.14739,1.34729 -0.15481,-0.97563 -1.73684,-3.18448 -3.51562,-4.90855 -1.7788,-1.72407 -3.24912,-4.00113 -3.2674,-5.06014 -0.0317,-1.83527 -0.0889,-1.82528 -1.22058,0.2133 C 151.00538,363.41785 150,362.49349 150,358.4375 c 0,-2.24525 -0.42413,-3.125 -1.50655,-3.125 -1.06533,0 -1.31012,-0.4805 -0.83583,-1.64063 3.42558,-8.37911 2.25426,-22.73437 -1.85499,-22.73437 -1.20384,0 -1.13305,0.55642 0.44555,3.50174 1.2388,2.31135 1.87682,5.29116 1.87682,8.76559 0,4.36093 -0.48243,5.92983 -2.8125,9.14639 -1.54688,2.1354 -2.8125,4.7624 -2.8125,5.83777 0,2.60428 -4.93948,7.43601 -7.60184,7.43601 -2.06548,0 -6.46066,-3.30008 -6.46066,-4.85092 0,-0.42574 0.81885,-0.77408 1.81967,-0.77408 2.37651,0 3.31716,-1.61022 1.92241,-3.29079 -0.60877,-0.73352 -0.91107,-1.8752 -0.6718,-2.53707 0.23928,-0.66186 -0.20003,-1.93277 -0.97624,-2.82422 -1.20029,-1.37848 -1.23522,-2.2497 -0.23366,-5.82692 0.6477,-2.31336 0.91393,-4.8933 0.59162,-5.73321 -0.38298,-0.99803 0.42583,-2.47231 2.33456,-4.25532 2.65043,-2.47587 2.85026,-3.05302 2.16048,-6.23972 -0.41805,-1.93133 -0.78644,-4.00907 -0.81864,-4.61721 -0.14586,-2.75383 -1.24624,-1.89426 -1.77026,1.38283 -0.31848,1.99166 -1.62496,5.06439 -2.90329,6.82829 -1.27833,1.7639 -3.70415,5.90918 -5.3907,9.21174 -1.68656,3.30256 -3.81127,6.19942 -4.72156,6.43747 -2.29461,0.60005 -2.08838,1.5304 1.15912,5.22909 3.01913,3.43861 4.57604,8.4253 2.94516,9.43325 -0.5471,0.33812 -1.68977,-0.76715 -2.54778,-2.46443 -0.85567,-1.69265 -2.81414,-4.25232 -4.35214,-5.68818 -2.16465,-2.02087 -2.66534,-3.13278 -2.21631,-4.92187 0.6782,-2.70215 -0.14734,-2.99862 -1.8673,-0.67061 -0.88258,1.1946 -1.49635,1.36081 -2.25761,0.61138 -1.59458,-1.56982 0.6536,-5.66005 4.29045,-7.80584 6.75683,-3.98663 7.56627,-11.91297 2.06475,-20.21876 -3.47373,-5.24436 -4.87096,-13.6024 -2.27396,-13.6024 1.10113,0 1.52553,0.86146 1.52553,3.09656 0,2.00856 1.05374,4.52943 2.99907,7.17466 2.93542,3.99154 4.74146,3.99419 2.60589,0.004 -0.59354,-1.10901 -1.0592,-4.61457 -1.03484,-7.79012 0.0244,-3.17555 -0.35465,-6.40484 -0.84229,-7.1762 -0.7054,-1.11581 -0.88955,-0.95534 -0.90098,0.78502 -0.0201,3.06626 -2.22426,2.06319 -2.91668,-1.32734 -0.55528,-2.71902 -0.57114,-2.70799 -2.68931,1.87015 -3.07469,6.64556 -2.19344,13.50169 2.38713,18.57184 2.84569,3.14984 3.26676,4.207 3.02114,7.58515 -0.34754,4.78005 -1.74281,5.09199 -2.88031,0.64395 -0.78958,-3.08746 -3.97565,-7.5 -5.4154,-7.5 -0.35873,0 -1.17741,2.00391 -1.81928,4.45313 -2.25504,8.60464 -3.15554,10.54687 -4.88997,10.54687 -2.03426,0 -2.1771,-2.12625 -0.33287,-4.95485 3.53516,-5.42208 5.36371,-20.57038 2.85343,-23.6389 -1.50044,-1.8341 -1.5205,-1.82388 -0.91988,0.46875 1.56976,5.99188 1.54761,6.35208 -0.50845,8.26759 -1.29226,1.20393 -1.85768,2.52525 -1.4903,3.48266 0.32561,0.84848 -0.24787,4.91724 -1.27439,9.04168 -1.99731,8.02502 -1.79087,9.34384 2.13789,13.65751 1.05479,1.15812 1.65452,2.36894 1.33276,2.69071 -1.3537,1.3537 -5.1626,-0.75962 -6.779113,-3.7613 -1.704628,-3.1653 -1.698891,-3.41624 0.295237,-12.91282 1.657796,-7.89485 1.853026,-10.46448 1.056316,-13.90353 -1.610012,-6.94978 -2.990678,-6.94978 -2.325456,0 0.657178,6.86581 -0.628219,10.60131 -3.8061,11.06087 -2.313599,0.33457 -4.540396,-2.03299 -3.7788,-4.01768 0.299315,-0.77993 1.4012,-1.41811 2.448633,-1.41811 1.59411,0 1.904423,-0.60585 1.904423,-3.71819 0,-4.9069 -2.224767,-9.33555 -6.138474,-12.21931 -1.749457,-1.28906 -3.528602,-3.34947 -3.953656,-4.57868 -0.728317,-2.10622 -0.864901,-2.14286 -2.371598,-0.63616 -0.879324,0.87932 -1.59355,2.09597 -1.587167,2.70368 0.01335,1.27136 5.917496,5.32366 7.756497,5.32366 2.005481,0 3.481898,2.06713 3.481898,4.875 0,3.56734 -2.200325,3.36007 -3.321753,-0.3129 -0.734196,-2.40468 -1.790765,-3.26751 -5.821471,-4.75399 -2.70846,-0.99885 -5.377228,-2.66207 -5.930595,-3.69604 -1.07419,-2.00714 -0.626819,-2.50107 15.484804,-17.09623 3.741915,-3.38972 6.50094,-6.76519 7.158681,-8.75818 1.343814,-4.07179 0.344953,-5.23552 -4.715494,-5.4939 -3.586548,-0.18312 -3.829471,-0.005 -6.54652,4.80971 -1.551967,2.74993 -3.992803,6.23924 -5.42408,7.754 -12.214333,12.92685 -14.953339,23.44713 -6.840862,26.27515 4.157596,1.44935 3.669609,3.33853 -0.683335,2.64544 -3.984239,-0.63438 -7.752627,-4.29082 -7.700979,-7.47221 0.01837,-1.1314 0.613126,-4.48288 1.321686,-7.44773 0.708561,-2.96484 1.007791,-5.39062 0.664957,-5.39062 -0.869425,0 -4.963552,10.77844 -4.633545,12.19854 0.40686,1.75083 -1.758043,2.16455 -2.411793,0.46091 -0.637409,-1.66107 3.683808,-15.166 5.55056,-17.34695 0.662011,-0.77344 1.48693,-2.67188 1.833153,-4.21875 0.346225,-1.54688 1.394009,-4.92188 2.328412,-7.5 1.862429,-5.13865 3.303155,-11.51386 4.237296,-18.75 0.876735,-6.79146 -0.826266,-4.21193 -2.785213,4.21875 -2.104564,9.05737 -4.701473,15 -6.554943,15 -1.895485,0 -1.935182,0.26058 1.478575,-9.70547 2.391682,-6.98222 3.023807,-10.54806 3.401783,-19.18962 0.315356,-7.20987 0.124921,-10.95317 -0.593791,-11.67188 -0.785711,-0.78571 -1.063123,0.98094 -1.077807,6.86384 -0.02655,10.63707 -4.429591,23.86978 -7.343235,22.06905 -0.620887,-0.38373 -0.323676,-2.00602 0.835225,-4.55894 2.174742,-4.79071 2.321753,-7.24448 0.434034,-7.24448 -1.654924,0 -1.805514,-3.22646 -0.429117,-9.194 0.613401,-2.65947 0.615309,-4.57955 0.0056,-5.625 -0.819038,-1.40435 -0.928992,-1.35875 -0.954215,0.39569 -0.03059,2.12526 -3.346074,6.92331 -4.784087,6.92331 -1.28771,0 -1.054526,-2.5865 0.446703,-4.95486 0.723887,-1.14201 1.598455,-3.97483 1.943484,-6.29514 0.345029,-2.32031 0.852644,-5.00986 1.128029,-5.97678 0.323393,-1.13547 0.133146,-1.53086 -0.537234,-1.11654 C 60.467072,231.38449 60,232.44527 60,233.38897 c 0,0.94369 -0.873202,2.71176 -1.94045,3.92905 l -1.94045,2.21323 0.521373,-4.21875 c 0.578433,-4.68046 0.983485,-4.88255 -4.294148,2.14238 -2.169301,2.88749 -3.112419,1.45416 -1.321702,-2.0087 1.730253,-3.34595 1.802969,-3.88368 0.525168,-3.88368 -1.1196,0 -3.695028,5.53372 -10.035317,21.5625 -5.721988,14.46566 -6.464301,17.05712 -8.365732,29.20522 -2.65543,16.96534 -2.13518,19.13045 7.93475,33.02177 2.411892,3.32718 5.86182,8.44892 7.666508,11.38166 3.526287,5.73046 12.093007,14.29773 23.589604,23.59116 6.865766,5.55003 9.186299,6.54777 7.380326,3.17329 -0.461506,-0.86233 -0.510743,-2.09918 -0.109415,-2.74853 0.543752,-0.87981 1.482635,-0.5471 3.684585,1.30572 2.193746,1.84592 2.9549,2.11694 2.9549,1.05213 0,-2.3014 1.486451,-2.58668 3.874184,-0.74355 1.220761,0.94232 4.328941,2.23096 6.907066,2.86364 2.578125,0.63268 7.85156,2.95787 11.71875,5.16709 3.86719,2.20922 8.11153,4.27783 9.43187,4.59689 3.34357,0.808 10.25563,5.97783 10.25563,7.67064 0,1.80707 -2.54317,1.80364 -4.35268,-0.006 -0.77344,-0.77343 -2.01865,-1.40625 -2.76715,-1.40625 -1.14942,0 -1.12645,0.35781 0.14777,2.30252 2.60142,3.97026 0.48912,4.84333 -2.86362,1.18363 -3.53134,-3.85467 -7.01846,-5.78933 -12.09324,-6.70936 l -3.64766,-0.66129 3.03832,3.83619 c 1.67108,2.10991 4.07832,6.04252 5.34942,8.73914 1.27111,2.6966 3.44375,5.8638 4.8281,7.03821 2.25741,1.91507 3.14544,2.07324 8.61074,1.53361 5.09022,-0.50259 6.50962,-1.04722 8.61903,-3.30716 z m 40.27581,-10.72295 c 0.17815,-0.919 0.89155,-1.85992 1.58532,-2.09094 0.80684,-0.26867 1.14468,0.18211 0.9375,1.25088 -0.17815,0.919 -0.89155,1.85992 -1.58532,2.09094 -0.80684,0.26867 -1.14468,-0.18211 -0.9375,-1.25088 z M 137.8125,387.1875 c 1.13715,-0.73488 1.0026,-0.91153 -0.70313,-0.92315 -1.16015,-0.008 -2.10937,0.40752 -2.10937,0.92315 0,1.17461 0.99491,1.17461 2.8125,0 z m -70.513057,-2.78526 c -1.142635,-1.82965 -8.236943,-6.25359 -8.236943,-5.13647 0,0.34965 1.792969,2.23133 3.984375,4.18151 4.07473,3.62618 6.221898,4.10836 4.252568,0.95496 z m 16.997432,-1.23002 c -0.214844,-0.14591 -1.234375,-0.88419 -2.265625,-1.64063 -1.734381,-1.2722 -1.778504,-1.2523 -0.588333,0.26528 0.707666,0.90235 1.727198,1.64063 2.265625,1.64063 0.538426,0 0.803176,-0.11938 0.588333,-0.26528 z m 7.571719,-0.43785 c -0.01029,-1.12985 -12.990975,-9.11199 -13.686688,-8.41628 -0.182483,0.18249 1.53477,1.51163 3.816115,2.95365 2.281347,1.44203 4.869517,3.41924 5.751491,4.39381 1.591479,1.75857 4.131371,2.41762 4.119082,1.06882 z m 55.726826,-4.45312 0.55382,-3.75 -1.40414,4.21875 c -1.65738,4.97961 -1.70718,5.34536 -0.56806,4.17187 0.47551,-0.48984 1.11377,-2.57812 1.41838,-4.64062 z m 6.15458,0.29232 c 0,-1.51763 -0.52009,-3.68082 -1.15575,-4.80708 -1.05114,-1.86242 -1.20768,-1.58109 -1.72957,3.10851 -0.31559,2.83594 -0.39076,5.49314 -0.16703,5.9049 0.82858,1.52495 3.05235,-1.53954 3.05235,-4.20633 z m -55.785375,-0.76774 c -0.320934,-0.51929 -1.927866,-1.62763 -3.570947,-2.46298 -3.396764,-1.72691 -2.862946,-0.85716 0.989841,1.61277 3.108234,1.9926 3.332878,2.0666 2.581106,0.85021 z M 45.509353,376.8093 c 0.341006,-0.55176 1.455825,-1.31239 2.477377,-1.69028 1.606121,-0.59415 1.151243,-1.15592 -3.362759,-4.15305 -6.451755,-4.28372 -8.85912,-4.5096 -3.969518,-0.37244 2.424632,2.05152 3.507093,3.66855 3.272211,4.8882 -0.297478,1.54469 -1.241723,1.00368 -6.193184,-3.54834 -3.213205,-2.95399 -6.584137,-5.3521 -7.49096,-5.32913 -1.362648,0.0345 -1.263296,0.31921 0.572506,1.64062 1.221702,0.87938 4.174827,3.38206 6.5625,5.56151 4.320528,3.94376 6.950194,4.91484 8.131827,3.00291 z m 138.263687,-0.43081 c 0.91002,-1.09651 0.94177,-1.97911 0.13489,-3.75 -1.58472,-3.47809 -2.89,-2.79032 -2.72154,1.43401 0.16139,4.04729 0.72843,4.555 2.58665,2.31599 z M 51.671839,371.15138 c -2.229972,-2.39359 -2.416908,-2.09868 -1.012001,1.5965 0.695946,1.83048 1.260004,2.26977 1.984339,1.54544 0.724334,-0.72433 0.447942,-1.61744 -0.972338,-3.14194 z m 47.919555,1.27049 c -0.982453,-1.41796 -2.043591,-3.29285 -2.358085,-4.16641 -0.679931,-1.88866 -14.096717,-8.64658 -15.855216,-7.98614 -0.692978,0.26026 0.268653,1.10527 2.22166,1.95224 1.893927,0.82133 3.581427,2.09515 3.75,2.83069 0.285205,1.24446 11.556647,9.6109 13.260957,9.84321 0.42184,0.0575 -0.0368,-1.05562 -1.019316,-2.47359 z m -40.033167,-0.19072 c -0.303836,-0.49162 -1.905065,-1.85701 -3.558287,-3.03421 l -3.005859,-2.14036 2.160548,3.03421 c 1.188302,1.66882 2.789531,3.03421 3.558288,3.03421 0.768757,0 1.149147,-0.40223 0.84531,-0.89385 z M 22.03125,370.3125 c -0.318674,-0.51563 -1.081853,-0.93104 -1.695953,-0.92315 -0.67089,0.008 -0.555258,0.37709 0.289703,0.92315 1.801053,1.16393 2.125598,1.16393 1.40625,0 z M 69.375,369.375 c 0,-0.51563 -0.686093,-0.9375 -1.524652,-0.9375 -0.838559,0 -4.015238,-1.26563 -7.059289,-2.8125 -8.357234,-4.24684 -10.870034,-3.61252 -3.539127,0.8934 5.755028,3.53732 12.123068,5.03783 12.123068,2.8566 z M 47.34375,367.5 c -0.318674,-0.51563 -1.29279,-0.93104 -2.164703,-0.92315 -1.366196,0.0124 -1.390941,0.13996 -0.179047,0.92315 1.835974,1.1865 3.077046,1.1865 2.34375,0 z M 76.875,366.60667 c 0,-0.49132 -1.651938,-2.22085 -3.670973,-3.84339 -2.90953,-2.33816 -4.642695,-2.98244 -8.355735,-3.10613 -3.111848,-0.10366 -5.343679,-0.75237 -6.647276,-1.93211 -1.079381,-0.97682 -2.275668,-1.46289 -2.658415,-1.08014 -0.949366,0.94936 1.899824,2.91461 9.144899,6.30772 3.351562,1.56965 6.726562,3.21013 7.5,3.64551 1.933241,1.08825 4.6875,1.09328 4.6875,0.008 z M 51.09375,364.6875 c -0.318674,-0.51563 -1.001282,-0.9375 -1.516907,-0.9375 -0.515625,0 -0.676767,0.42187 -0.358093,0.9375 0.318674,0.51562 1.001282,0.9375 1.516907,0.9375 0.515625,0 0.676767,-0.42188 0.358093,-0.9375 z m 56.64063,-0.33295 c -0.21485,-0.18313 -3.76563,-1.40637 -7.89063,-2.71831 -7.847554,-2.4959 -11.094657,-2.42432 -6.461969,0.14243 3.609531,1.99988 16.361949,4.28857 14.352599,2.57588 z m 51.64062,-1.89601 c 0,-0.19467 -0.73828,-0.93296 -1.64063,-1.64063 -1.48693,-1.16613 -1.52009,-1.13297 -0.35396,0.35396 1.22472,1.56165 1.99459,2.05827 1.99459,1.28667 z m 42.43972,-0.26098 c -0.63472,-0.2568 -1.90035,-0.27243 -2.8125,-0.0348 -0.91216,0.2377 -0.39285,0.44781 1.15403,0.46692 1.54687,0.0191 2.29318,-0.17537 1.65847,-0.43218 z m -63.03265,-3.19499 c 0.76866,-1.43624 0.74757,-2.28191 -0.0818,-3.28125 -1.54368,-1.86002 -4.05843,-1.75692 -3.33182,0.13661 0.31298,0.8156 0.56905,2.29217 0.56905,3.28125 0,2.36882 1.54338,2.29471 2.84457,-0.13661 z M 76.875,358.09558 c 0,-0.53181 -0.738281,-1.24615 -1.640625,-1.58742 -2.072109,-0.78369 -13.085899,-9.26904 -16.098035,-12.40242 -1.478991,-1.53853 -2.404337,-1.958 -2.655712,-1.20387 -0.239488,0.71846 -1.245241,0.9417 -2.651966,0.58863 -1.246389,-0.31282 -2.266162,-0.35166 -2.266162,-0.0863 0,0.95695 9.27541,7.11877 14.279327,9.48601 2.813523,1.331 5.879545,3.26428 6.813385,4.29617 1.806861,1.99655 4.219788,2.51645 4.219788,0.90922 z m 97.96875,0.0294 c -0.31868,-0.51563 -1.50373,-0.90785 -2.63346,-0.8716 -1.98033,0.0636 -1.98677,0.0948 -0.17904,0.8716 2.58045,1.10886 3.49781,1.10886 2.8125,0 z m -13.02216,-12.65625 c 0.3282,-2.51491 0.0287,-4.36754 -0.9093,-5.625 -0.98327,-1.31812 -1.35992,-1.45733 -1.26819,-0.46875 0.0717,0.77344 -0.21906,4.6665 -0.64627,8.65126 -0.92645,8.64123 0.24618,13.18327 1.51805,5.87999 0.44898,-2.57813 1.03655,-6.375 1.30571,-8.4375 z m 55.42451,12.08984 c -0.31153,-0.31152 -1.12013,-0.34482 -1.79688,-0.074 -0.74787,0.29927 -0.52573,0.52142 0.56641,0.5664 0.98827,0.0407 1.54199,-0.18087 1.23047,-0.49239 z m 7.98827,-0.99198 c -0.64453,-0.26007 -1.69921,-0.26007 -2.34375,0 -0.64453,0.26007 -0.11718,0.47287 1.17188,0.47287 1.28906,0 1.81641,-0.2128 1.17187,-0.47287 z m -80.88086,-7.77647 c 1.06282,-1.98587 1.30576,-8.75587 0.34856,-9.71307 -0.33573,-0.33574 -1.17948,0.1213 -1.875,1.01562 -1.19093,1.53136 -1.35162,1.51687 -2.75924,-0.24894 -1.45214,-1.82164 -1.5255,-1.82499 -2.57813,-0.11801 -0.59589,0.96634 -2.05921,3.23902 -3.25179,5.0504 -2.44709,3.71678 -1.9938,4.71713 2.91279,6.42829 3.36211,1.17253 5.70316,0.38784 7.20281,-2.41429 z M 51.5625,347.8125 c 0,-0.51563 -0.446773,-0.9375 -0.992828,-0.9375 -0.546056,0 -0.732096,0.42187 -0.413422,0.9375 0.318674,0.51562 0.765446,0.9375 0.992828,0.9375 0.227383,0 0.413422,-0.42188 0.413422,-0.9375 z m -4.630252,-3.6696 c -1.069986,-1.50266 -4.579183,-4.80656 -7.798214,-7.34202 C 31.285963,330.6194 23.4375,323.0818 23.4375,321.72608 c 0,-0.60559 0.809246,-1.10108 1.798325,-1.10108 0.989077,0 2.435108,-0.24436 3.213401,-0.54302 0.886391,-0.34013 2.931229,0.97333 5.473198,3.51563 5.857749,5.8585 17.596899,15.19557 18.264932,14.52753 0.313491,-0.31349 -0.708779,-1.76452 -2.271712,-3.22452 -1.562932,-1.46 -4.468489,-5.16476 -6.456795,-8.2328 -3.77863,-5.8306 -7.349911,-10.62411 -11.99902,-16.10557 -2.629813,-3.10064 -2.760821,-3.67615 -2.799522,-12.29818 -0.05157,-11.49056 2.320731,-25.6789 5.901422,-35.29532 3.20246,-8.60063 5.544586,-15.43808 6.904406,-20.15625 0.520127,-1.80469 1.639015,-4.125 2.486419,-5.15625 2.444295,-2.97459 5.032983,-8.04571 4.420039,-8.65866 -0.308051,-0.30805 -0.569474,-0.17337 -0.580939,0.29928 -0.01147,0.47266 -0.815431,1.89327 -1.786591,3.15692 -1.552794,2.02045 -1.956944,2.13886 -3.351131,0.98179 -1.376144,-1.1421 -1.703295,-1.10507 -2.478745,0.28058 -1.481126,2.64663 -2.884905,1.87288 -2.206437,-1.21616 1.002273,-4.56332 -0.253387,-3.2463 -3.289958,3.45071 -2.065151,4.55459 -3.121166,5.98192 -3.870997,5.23209 -0.749831,-0.74983 -0.433638,-2.69711 1.159059,-7.13805 2.114225,-5.89513 2.134881,-6.22289 0.595582,-9.45084 -0.87703,-1.83915 -2.044252,-3.34391 -2.593824,-3.34391 -1.538497,0 -6.531112,2.7656 -6.531112,3.61782 0,1.67006 1.212036,1.76241 3.780904,0.28809 2.159311,-1.23929 2.93488,-1.31513 3.871406,-0.3786 2.072384,2.07239 -2.389524,14.87468 -5.551528,15.92868 -0.639805,0.21327 -1.163282,-0.28021 -1.163282,-1.09662 0,-3.64305 -1.691419,-0.83247 -4.043374,6.71875 -5.824399,18.69992 -7.458064,23.29514 -10.3930516,29.23385 -4.509281,9.12416 -5.1728813,17.96853 -2.0424387,27.22133 1.275983,3.77147 3.3489503,7.95765 4.6065943,9.30259 1.257643,1.34495 2.606705,3.49956 2.997916,4.78802 1.119122,3.68587 12.1682,14.59141 22.936854,22.63888 5.414062,4.04596 9.977946,7.35763 10.141963,7.35925 0.164018,0.002 -0.57723,-1.22649 -1.647215,-2.72914 z m 106.437572,-6.2814 c -0.27416,-0.71445 -0.92315,-1.299 -1.44219,-1.299 -0.62565,0 -0.63557,0.81052 -0.0294,2.40478 0.50287,1.32263 0.98801,3.74841 1.07809,5.39063 0.12322,2.24627 0.25397,1.97238 0.5279,-1.10579 0.20025,-2.2504 0.13979,-4.67618 -0.13437,-5.39062 z m -17.55856,-0.87809 c 0.29632,-1.52916 0.13831,-1.59802 -1.17188,-0.51065 -1.79181,1.48707 -2.0149,3.22514 -0.34251,2.66831 0.64454,-0.21461 1.326,-1.18556 1.51439,-2.15766 z M 153.75,329.58658 c 0,-0.22738 -0.42188,-0.67416 -0.9375,-0.99283 -0.51563,-0.31867 -0.9375,-0.13264 -0.9375,0.41342 0,0.54606 0.42187,0.99283 0.9375,0.99283 0.51562,0 0.9375,-0.18604 0.9375,-0.41342 z m -24.01729,-7.60402 c 0.32015,-0.8343 0.16299,-1.21062 -0.36844,-0.88217 -0.50972,0.31502 -0.92677,0.96975 -0.92677,1.45494 0,1.34853 0.67197,1.05137 1.29521,-0.57277 z m -4.97192,-8.22177 c -1.20606,-1.20606 -1.41515,1.97325 -0.30766,4.67816 0.57709,1.4095 0.75826,1.23473 1.01079,-0.97503 0.16922,-1.48078 -0.14719,-3.14719 -0.70313,-3.70313 z m -22.87511,-4.24198 c -2.060099,-5.14869 -9.18262,-14.47187 -10.244599,-13.40989 -0.517038,0.51704 0.845909,3.09509 3.438697,6.50438 2.362369,3.10631 4.295222,5.91331 4.295222,6.23776 0,1.09506 3.06248,5.27395 3.5256,4.81085 0.25251,-0.25252 -0.20421,-2.11691 -1.01492,-4.1431 z M 134.0625,309.375 c 0,-1.10035 -0.72058,-1.10035 -3.28125,0 -1.66148,0.71396 -1.58141,0.81322 0.70312,0.8716 1.41797,0.0362 2.57813,-0.35598 2.57813,-0.8716 z m 8.4375,-0.46875 c 0,-0.77344 -0.40864,-1.40625 -0.90808,-1.40625 -0.49944,0 -0.66524,0.63281 -0.36845,1.40625 0.2968,0.77344 0.70543,1.40625 0.90808,1.40625 0.20264,0 0.36845,-0.63281 0.36845,-1.40625 z m -35.00411,-4.45313 c -0.26007,-0.64453 -0.47287,-0.11718 -0.47287,1.17188 0,1.28906 0.2128,1.81641 0.47287,1.17187 0.26007,-0.64453 0.26007,-1.69921 0,-2.34375 z m 30.65725,-3.54049 c 1.20529,-2.41607 1.23616,-3.49489 0.20787,-7.26563 -1.01394,-3.71812 -2.95869,-6.20436 -12.12717,-15.50386 -11.0269,-11.18446 -14.5273,-15.57047 -11.49915,-14.40847 0.83342,0.31982 1.51531,0.38059 1.51531,0.13505 0,-0.24554 -3.47062,-3.80699 -7.7125,-7.91432 -5.65097,-5.47172 -7.43437,-7.74603 -6.67195,-8.50845 0.76243,-0.76243 2.52641,0.4212 6.59924,4.42811 3.05728,3.00778 7.74715,7.32363 10.42195,9.59077 2.67479,2.26713 4.86326,4.71781 4.86326,5.44594 0,0.72814 -0.42187,1.06316 -0.9375,0.74448 -2.43189,-1.50299 -0.46116,1.74118 3.98438,6.55895 5.25905,5.69942 8.20312,7.86018 8.20312,6.02058 0,-1.1902 -6.31673,-7.60543 -8.92702,-9.06621 -1.63746,-0.91637 -1.20796,-3.04457 0.61444,-3.04457 1.4585,0 12.06258,10.42729 12.06258,11.86146 0,1.97906 1.68011,1.47947 2.3737,-0.70583 0.34378,-1.08316 0.18289,-2.41154 -0.35753,-2.95196 -1.49489,-1.49489 1.22063,-5.9966 4.04485,-6.70543 2.6675,-0.66951 3.12735,-2.20645 0.91426,-3.05569 -0.88097,-0.33806 -2.52768,0.45967 -4.14257,2.00683 -3.33795,3.19796 -4.98875,2.51162 -3.59252,-1.49363 0.82917,-2.37854 1.40391,-2.80121 3.3129,-2.43628 2.43784,0.46603 2.48191,0.10685 0.6945,-5.6601 -0.85157,-2.74755 1.85099,-2.92687 3.53248,-0.23437 1.59798,2.55878 2.29068,2.37023 4.09243,-1.11395 1.19305,-2.30712 1.30547,-3.37352 0.49282,-4.67478 -1.84205,-2.94959 -1.3237,-4.62748 1.23145,-3.98618 2.04632,0.5136 2.39389,0.16621 3.33665,-3.33495 0.81308,-3.01953 0.78613,-4.22907 -0.11849,-5.31907 -0.93157,-1.12248 -0.93379,-1.79045 -0.0109,-3.26834 1.50054,-2.40274 0.54435,-5.42159 -2.5543,-8.06433 -2.21772,-1.89143 -2.31506,-2.22568 -0.95796,-3.28951 2.30411,-1.80623 0.5494,-5.20891 -3.57476,-6.9321 -3.28706,-1.37342 -3.39239,-1.5411 -1.73101,-2.75593 1.69063,-1.23622 1.69597,-1.37427 0.12048,-3.11515 -0.90669,-1.00189 -3.29846,-2.10036 -5.31504,-2.44107 -3.68739,-0.62298 -5.29882,-3.2419 -2.02588,-3.29251 1.19602,-0.0185 0.62461,-0.96912 -2.10864,-3.50797 -3.55977,-3.3066 -3.7335,-3.7252 -3.43742,-8.28235 0.27366,-4.21229 0.0728,-4.86225 -1.64137,-5.3105 -2.48374,-0.64951 -2.53066,-2.58584 -0.0782,-3.22717 1.84886,-0.48349 2.69587,-3.08414 1.00447,-3.08414 -0.4788,0 -1.58027,-0.70973 -2.44772,-1.57718 -1.4779,-1.47791 -1.46897,-1.6563 0.14202,-2.83429 2.68409,-1.96266 1.81308,-7.55366 -1.75691,-11.27761 -1.5991,-1.66806 -2.72534,-3.19295 -2.50278,-3.38863 0.22257,-0.1957 1.38889,-0.86841 2.59182,-1.49491 2.01421,-1.04903 2.06981,-1.26877 0.70313,-2.77894 -1.90253,-2.10227 -1.86732,-2.57952 0.23076,-3.12818 1.37587,-0.3598 1.94166,-2.07009 2.86256,-8.65304 0.63127,-4.51253 0.92611,-8.42626 0.65519,-8.69718 -0.54543,-0.54546 -2.42001,3.90315 -2.42001,5.74306 0,0.64131 -0.60268,1.98495 -1.33929,2.98584 -1.27585,1.7336 -1.37052,1.73926 -1.99825,0.1194 -0.36242,-0.93522 -0.19066,-2.72819 0.3817,-3.98437 0.91615,-2.01074 0.81366,-2.28397 -0.85674,-2.28397 -1.66624,0 -1.82975,-0.4283 -1.34218,-3.51562 0.30535,-1.9336 0.76547,-4.88672 1.02246,-6.5625 0.63123,-4.11608 -1.21209,-3.94745 -2.97516,0.27216 -1.85148,4.43122 -3.59261,3.27419 -2.88139,-1.91476 0.69753,-5.08901 -0.4941,-6.37308 -1.76447,-1.90136 -1.25769,4.42701 -2.70499,4.66302 -3.04844,0.49708 -0.41472,-5.03064 -1.33134,-6.58066 -1.98614,-3.35859 -0.77582,3.8176 -2.49015,4.00699 -3.74284,0.4135 -0.81513,-2.33828 -1.31047,-2.7762 -2.16907,-1.9176 -1.63536,1.63537 -2.44491,1.3667 -2.78186,-0.92325 -0.41582,-2.82593 -5.306692,-4.46847 -6.88368,-2.31181 -1.436025,1.96388 -2.896753,1.95818 -3.653644,-0.0142 -0.460706,-1.20057 -1.201548,-0.59245 -3.289893,2.70053 -2.746769,4.3312 -4.48926,5.98833 -5.370335,5.10726 -0.768175,-0.76818 0.476963,-3.91568 3.047487,-7.70356 1.292174,-1.90413 2.117618,-3.69383 1.834321,-3.97714 -0.616151,-0.61615 -0.346403,-0.96003 -4.253424,5.42242 -3.498636,5.71532 -6.494728,9.375 -7.675081,9.375 -1.452338,-1e-5 -0.776722,-2.06793 2.038419,-6.23918 C 83.50829,121.67611 84.067363,120 82.609089,120 c -1.583426,0 -7.389568,7.27544 -8.506147,10.65871 -0.651748,1.97482 -1.781594,3.46373 -2.691272,3.54658 -0.862356,0.0786 -1.989795,0.24082 -2.50542,0.36061 -0.515625,0.1198 -1.589405,0.26648 -2.386177,0.32596 -0.796771,0.0594 -2.74369,2.74486 -4.326486,5.96751 -6.155976,12.5339 -6.412337,13.5366 -6.412337,25.08057 0,10.74788 0.02409,10.86629 3.046875,14.97524 4.089419,5.55886 4.028242,7.52232 -0.234375,7.52232 -4.847395,0 -6.513525,2.2118 -6.854897,9.09992 -0.353234,7.12747 1.296138,10.43221 8.482244,16.99529 2.028592,1.85271 10.091403,5.08489 10.091403,4.04538 0,-1.07047 -4.539488,-5.34861 -8.351299,-7.8705 -4.046055,-2.67687 -6.455958,-6.04159 -6.827096,-9.53204 -0.384566,-3.61674 1.714388,-4.22824 2.484111,-0.72372 0.33523,1.52629 2.087859,3.93462 3.959105,5.44029 8.051052,6.47814 10.026747,8.4763 11.231157,11.35886 1.005226,2.40584 1.831915,3.06152 3.860037,3.06152 1.773241,0 4.116235,1.40414 7.487418,4.48716 7.083201,6.47774 6.535083,9.76237 -0.988956,5.9264 -1.913712,-0.97566 -3.479477,-1.58374 -3.479477,-1.35127 0,0.23246 1.356063,2.11009 3.013474,4.17252 2.081552,2.59022 2.673499,3.95998 1.91413,4.42929 -0.729228,0.4507 -0.0053,1.55239 2.150264,3.27237 3.380135,2.69706 7.922132,10.49727 7.922132,13.60507 0,0.98526 0.605691,2.29405 1.345988,2.90844 0.740296,0.6144 1.596234,2.25645 1.902093,3.64901 0.600263,2.73297 5.100089,8.84527 5.155709,7.00322 0.0186,-0.6141 -0.36974,-1.36589 -0.86285,-1.67066 -0.99137,-0.6127 -0.26707,-3.30655 0.88904,-3.30655 0.83632,0 3.58632,3.97204 3.96952,5.73346 0.14121,0.64913 -0.587,1.24 -1.61825,1.31303 -1.03125,0.073 -2.84912,0.20495 -4.03971,0.29315 -2.737468,0.20279 -1.73784,2.03536 1.11025,2.03536 1.38397,0 4.36519,2.29315 8.61654,6.62784 10.39936,10.60321 18.26906,18.19119 19.21633,18.52841 0.48281,0.17188 0.87784,0.77147 0.87784,1.33243 0,1.45976 2.88597,4.44882 4.29539,4.44882 0.65575,0 1.82924,-1.27682 2.60775,-2.83737 z M 77.5,208.4375 c -0.34375,-0.34375 -0.625,-2.46668 -0.625,-4.71762 0,-4.58772 -1.743659,-9.4806 -4.064466,-11.40527 -1.044508,-0.86624 -1.353059,-2.03359 -0.955834,-3.61626 0.3786,-1.50846 0.126086,-2.62873 -0.712187,-3.15962 C 69.138641,184.26966 68.751767,184.47797 67.5,187.5 c -1.613243,3.89471 -3.75,3.66577 -3.75,-0.40178 0,-3.51213 1.990006,-6.16072 4.628831,-6.16072 1.434132,0 1.666356,-0.78849 1.573661,-5.34323 -0.110231,-5.41638 0.491693,-6.31541 5.378923,-8.03385 1.052003,-0.36991 1.427718,-23.01653 0.42873,-25.84222 -1.252356,-3.54234 0.240953,-4.51759 2.527152,-1.65042 l 2.046646,2.56673 2.254904,-5.24156 c 1.569406,-3.64811 2.909432,-5.4128 4.407937,-5.80484 3.291946,-0.86125 3.59906,0.34361 0.825495,3.23859 -1.380378,1.44081 -2.509779,3.02469 -2.509779,3.51973 0,0.49505 -0.907688,2.58134 -2.017085,4.6362 -2.369435,4.38876 -5.306702,16.96624 -5.343837,22.8825 -0.01685,2.68391 -0.707299,5.06786 -1.957551,6.75892 -2.387435,3.22917 -2.39199,3.7252 -0.06142,6.68805 1.303933,1.65768 1.708067,3.18766 1.334877,5.0536 -0.443174,2.21588 -0.04053,3.0419 2.34104,4.80267 1.581949,1.16958 3.725299,3.79076 4.762999,5.82481 2.187645,4.28814 2.936769,12.25213 1.209929,12.86281 -1.128889,0.39924 -1.514834,-0.70817 -2.600475,-7.46167 -0.310504,-1.93156 -1.634111,-4.67375 -2.941349,-6.09375 l -2.376802,-2.58182 0.633155,2.34375 c 1.041167,3.85409 2.208547,13.49897 1.727979,14.27654 -0.549543,0.88918 -1.6888,0.93362 -2.523964,0.0985 z m 24.53568,90.52886 c -3.452999,-4.81426 -5.333652,-6.51308 -6.005952,-5.42527 -0.330647,0.535 0.376594,2.10163 1.571644,3.48144 5.364248,6.19354 8.453788,7.54789 4.434308,1.94383 z M 86.71875,300 c 0.318674,-0.51563 0.132634,-0.9375 -0.413422,-0.9375 -0.546055,0 -0.992828,0.42187 -0.992828,0.9375 0,0.51562 0.186039,0.9375 0.413422,0.9375 0.227382,0 0.674154,-0.42188 0.992828,-0.9375 z m 22.96875,-0.95844 c 0,-1.75597 -7.71209,-9.35406 -9.4944,-9.35406 -0.965578,0 -1.7556,0.42187 -1.7556,0.9375 0,0.51562 0.611813,0.9375 1.359591,0.9375 0.747769,0 2.946489,1.89844 4.886029,4.21875 3.46921,4.15028 5.00438,5.15044 5.00438,3.26031 z m 34.6875,-6.01334 c 0,-1.40055 -2.60879,-3.85693 -3.33013,-3.13559 -0.25978,0.25979 -0.0395,1.61091 0.48965,3.00252 0.9433,2.48106 2.84048,2.56995 2.84048,0.13307 z m -35.54894,-4.91131 c -1.04968,-1.97211 -2.76184,-4.58161 -3.80479,-5.79889 l -1.89627,-2.21324 -1.84381,2.21324 c -2.228793,2.67535 -2.399671,3.75 -0.47909,3.013 0.93213,-0.35769 2.78706,0.99737 5.34814,3.9069 4.3439,4.93494 5.61559,4.40217 2.67582,-1.12101 z M 87.10241,273.10919 c 1.170337,-4.08073 -0.321687,-5.98046 -1.666703,-2.12214 -1.356419,3.89102 -1.416791,7.24403 -0.106847,5.93409 0.524624,-0.52462 1.322721,-2.24 1.77355,-3.81195 z m -3.713991,-8.83608 c 0.926917,-4.48775 -0.31866,-11.14811 -2.084846,-11.14811 -0.521552,0 -0.570817,1.05333 -0.120581,2.57812 0.941966,3.19014 0.985856,7.34713 0.160844,15.23438 -0.670246,6.40766 -0.624703,6.25921 2.044583,-6.66439 z m 70.368431,2.90845 c 1.19282,-1.03453 1.96216,-2.08755 1.70965,-2.34006 -0.25251,-0.25251 -1.44837,0.59392 -2.65747,1.88094 -2.63917,2.80928 -2.0763,3.08192 0.94782,0.45912 z m -0.91805,-4.73069 c 0.56637,-1.05827 0.8845,-2.6403 0.70696,-3.51563 -0.23208,-1.14418 -0.77573,-0.69465 -1.93428,1.59942 -1.87788,3.71842 -1.90032,3.84034 -0.70696,3.84034 0.49748,0 1.3679,-0.86586 1.93428,-1.92413 z m 8.77816,-6.53234 c 1.71758,-4.29266 1.87189,-5.60603 0.65866,-5.60603 -0.46715,0 -1.52184,1.97359 -2.34375,4.38576 -1.75127,5.13971 -1.73141,4.98924 -0.65866,4.98924 0.45963,0 1.51432,-1.69604 2.34375,-3.76898 z M 76.875,251.30533 c 0,-2.54769 -0.421875,-4.89291 -0.9375,-5.21158 C 75.355445,245.73402 75,247.49027 75,250.72592 c 0,2.86637 0.421875,5.21158 0.9375,5.21158 0.515625,0 0.9375,-2.08448 0.9375,-4.63217 z m 14.0625,1.4134 c 0,-2.58959 -9.439889,-12.99282 -10.071181,-11.09894 C 80.437728,242.90557 88.768087,255 90.082292,255 c 0.470364,0 0.855208,-1.02657 0.855208,-2.28127 z M 157.5,252.5456 c 0,-0.77344 -0.42188,-1.14553 -0.9375,-0.82685 -0.51563,0.31867 -0.9375,1.21222 -0.9375,1.98565 0,0.77344 0.42187,1.14552 0.9375,0.82685 0.51562,-0.31868 0.9375,-1.21222 0.9375,-1.98565 z m 6.1104,-21.65334 c -0.30691,-1.65769 -0.92999,-3.24388 -1.38462,-3.52486 -0.92264,-0.57021 -0.25257,16.95748 0.73381,19.1951 0.8104,1.83841 1.37509,-11.75824 0.65081,-15.67024 z M 80.625,236.5239 c 0,-0.93899 -6.782538,-7.7739 -7.714339,-7.7739 -0.771708,0 1.496586,5.05725 3.258802,7.26562 0.989253,1.23972 4.455537,1.63515 4.455537,0.50828 z m -34.799951,-13.38858 3.168799,-0.0103 -0.475514,-4.21875 c -0.261533,-2.32031 -0.21093,-4.21229 0.112451,-4.2044 1.385808,0.0339 2.715231,1.58084 3.613055,4.2044 l 0.962486,2.8125 0.704098,-2.65036 c 0.442868,-1.66703 0.253065,-3.49312 -0.511581,-4.92187 -1.387336,-2.59226 -2.46655,-2.82216 -4.575023,-0.9746 -0.814039,0.71331 -4.222257,2.25813 -7.57382,3.43295 -7.524642,2.63759 -7.946302,2.99697 -6.558599,5.58991 0.943327,1.76264 1.642684,1.99635 4.539975,1.51723 1.883681,-0.31151 4.850834,-0.57102 6.593673,-0.57669 z M 154.6875,217.67918 c 0,-0.41707 -0.63967,-1.57723 -1.42148,-2.57812 -1.31813,-1.68749 -1.34128,-1.63235 -0.31828,0.75831 1.10383,2.57953 1.73976,3.24473 1.73976,1.81981 z m -8.40955,-11.37697 c -1.10102,-2.05727 -2.73253,-3.28514 -3.43356,-2.58411 -0.41792,0.41793 3.27889,4.4069 4.08413,4.4069 0.17872,0 -0.11404,-0.82026 -0.65057,-1.82279 z m -6.64496,-7.90281 c -1.99177,-3.3758 -3.69549,-4.4264 -3.69549,-2.27883 0,1.20381 4.79332,6.58612 5.36037,6.01905 0.18745,-0.18745 -0.56174,-1.87054 -1.66488,-3.74022 z M 138.75,188.4375 c 0,-0.51563 -0.42188,-0.9375 -0.9375,-0.9375 -0.51563,0 -0.9375,0.42187 -0.9375,0.9375 0,0.51562 0.42187,0.9375 0.9375,0.9375 0.51562,0 0.9375,-0.42188 0.9375,-0.9375 z m -81.5625,-4.10396 c 0,-0.19467 -0.64247,-0.88716 -1.427711,-1.53885 -1.193763,-0.99073 -1.330948,-0.93274 -0.837198,0.35396 0.504277,1.31412 2.264909,2.23521 2.264909,1.18489 z m 78.7268,-4.86332 c -0.50287,-1.32263 -0.94104,-3.53747 -0.97373,-4.92188 l -0.0594,-2.51709 -0.91577,2.29295 c -0.62642,1.56846 -0.57171,3.1236 0.17316,4.92187 1.36374,3.29235 3.02186,3.50164 1.77576,0.22415 z m 0.78389,-14.00147 -0.045,-2.8125 -0.71566,2.8125 c -0.39361,1.54687 -0.73592,3.65625 -0.76069,4.6875 -0.045,1.875 -0.045,1.875 0.76069,0 0.44314,-1.03125 0.78545,-3.14063 0.76069,-4.6875 z m 0.94915,-32.14662 c -0.26,-2.46534 -0.52062,-2.71857 -1.81495,-1.76347 -1.0593,0.78168 -1.37438,2.04859 -1.05338,4.23569 0.39971,2.72336 0.63067,2.94777 1.81496,1.76347 0.77053,-0.77053 1.22577,-2.60106 1.05337,-4.23569 z m -7.33484,1.20912 c 0,-0.77344 -0.16581,-1.40625 -0.36845,-1.40625 -0.20265,0 -0.61128,0.63281 -0.90808,1.40625 -0.29679,0.77344 -0.13099,1.40625 0.36845,1.40625 0.49944,0 0.90808,-0.63281 0.90808,-1.40625 z m -76.875,-5.21158 c 0,-2.1206 -0.01459,-2.12415 -3.414959,-0.83133 l -2.599522,0.98833 2.304116,1.20434 c 2.751588,1.43823 3.710365,1.08645 3.710365,-1.36134 z m 17.828275,-3.56812 c 0.0087,-0.84303 1.655891,-3.14893 3.660476,-5.1242 3.900134,-3.84311 5.446724,-7.18985 3.322559,-7.18985 -0.694734,0 -1.523886,0.42188 -1.84256,0.9375 -1.146752,1.85548 -2.366947,0.8876 -1.788173,-1.41843 0.342075,-1.36293 0.09572,-2.95305 -0.584483,-3.77265 -0.646681,-0.7792 -0.870235,-1.72228 -0.496788,-2.09572 0.373448,-0.37346 1.218356,0.0586 1.877573,0.96015 1.328478,1.81681 2.398121,2.13454 2.398121,0.71237 0,-1.50899 -3.118643,-4.80552 -5.390625,-5.69811 -1.160156,-0.45578 -2.109375,-1.26102 -2.109375,-1.78941 0,-1.331247 4.064771,-1.20842 5.4375,0.1643 0.795886,0.79589 1.125,0.81548 1.125,0.0669 0,-1.27615 -2.600548,-4.00444 -3.816965,-4.00444 -0.478794,0 -0.870535,-0.632813 -0.870535,-1.40625 0,-2.590595 3.067057,-1.442494 6.721635,2.516128 2.648747,2.869102 3.899967,3.643522 4.659562,2.883932 0.759595,-0.7596 -0.251445,-2.328341 -3.765125,-5.842026 -4.711132,-4.711129 -5.795517,-6.589284 -3.80444,-6.589284 1.409224,0 4.962901,1.95843 5.783387,3.187223 0.487675,0.730361 0.692961,0.709223 0.703125,-0.0724 0.0079,-0.607159 -1.343872,-2.1669 -3.003929,-3.46609 -3.663643,-2.867227 -2.73535,-4.432775 1.237035,-2.086229 1.56671,0.925478 3.064001,1.467248 3.327315,1.203935 0.691069,-0.691068 -2.351236,-5.077552 -3.946057,-5.689542 -2.006679,-0.770035 -1.633312,-2.451893 0.544312,-2.451893 1.179578,0 3.016299,1.591765 4.867969,4.21875 1.635507,2.320312 3.525251,4.21875 4.19943,4.21875 1.70174,0 1.611125,-0.272531 -1.743161,-5.242641 -1.632918,-2.419525 -4.161269,-5.077393 -5.618556,-5.906373 -3.28988,-1.871452 -2.931529,-3.46826 0.700546,-3.121627 l 2.730702,0.260609 -2.578125,-2.170825 c -4.490797,-3.781329 -3.032621,-6.077625 1.563566,-2.462264 1.385753,1.090034 2.768389,1.733041 3.072524,1.428905 C 88.628024,70.121977 86.405704,67.67577 84.290339,67.004379 82.158844,66.327869 81.879352,63.75 83.9375,63.75 c 0.790625,0 2.942188,1.504688 4.78125,3.34375 1.839062,1.839062 3.563756,3.123745 3.832651,2.854849 0.794295,-0.794294 -4.396877,-9.011099 -5.692986,-9.011099 -1.934689,0 -4.696344,-2.444765 -4.012168,-3.551785 1.405663,-2.274412 6.239793,0.905033 10.541356,6.933134 4.451819,6.238671 5.987397,7.294972 5.987397,4.118651 0,-1.03125 -0.353025,-1.875 -0.7845,-1.875 -0.431475,0 -2.820637,-2.953125 -5.30925,-6.5625 -2.488613,-3.609375 -5.008082,-6.5625 -5.598817,-6.5625 -0.590736,0 -1.892979,-0.602682 -2.893874,-1.339294 -1.706829,-1.256145 -1.716908,-1.37918 -0.162346,-1.981763 2.973923,-1.152759 6.720318,1.367511 10.540368,7.0907 3.567957,5.34552 6.083419,7.120958 6.083419,4.293745 0,-1.220883 -8.959503,-10.475605 -13.899834,-14.357839 -1.72229,-1.353417 -2.04602,-2.252093 -1.538993,-4.272249 0.556714,-2.218128 1.110398,-2.5583 4.164029,-2.5583 2.140654,0 4.488311,0.760147 5.985948,1.93819 3.643116,2.865678 10.9706,12.723104 10.52627,14.160657 -5.92155,19.158131 -7.50932,23.487304 -8.795157,23.980726 -0.817341,0.313642 -1.650113,0.07813 -1.850607,-0.523365 -0.601022,-1.803053 -3.768102,-5.374419 -4.298303,-4.846986 -0.271176,0.269759 0.747198,2.337149 2.263047,4.5942 1.515853,2.257051 2.7561,4.892145 2.7561,5.855764 0,3.350113 -5.173299,15.131724 -7.914397,18.024144 -1.978057,2.08726 -2.773521,3.8776 -2.8125,6.33004 -0.05244,3.29922 0.07768,3.43587 3.695647,3.88081 2.0625,0.25365 4.445203,0.74732 5.294888,1.09707 0.968484,0.39863 2.197509,-0.0646 3.294075,-1.24166 3.483567,-3.73918 10.054007,-4.48385 12.590957,-1.42702 0.5945,0.71633 2.47037,1.30243 4.1686,1.30243 2.47777,0 3.66925,-0.7343 6.03196,-3.71746 3.78019,-4.77288 8.29547,-5.88983 12.18494,-3.01422 1.4459,1.06899 2.87983,1.69267 3.18654,1.38597 1.04795,-1.04795 -0.56249,-5.43186 -3.26804,-8.89619 -2.16631,-2.773866 -2.70267,-4.401825 -2.70267,-8.203127 0,-2.613012 -0.43137,-4.742473 -0.9607,-4.742473 -1.40518,0 -2.7893,4.251281 -2.7893,8.567269 0,3.078178 -0.29668,3.698662 -1.64062,3.431147 -1.14885,-0.228675 -1.63903,-1.214269 -1.63527,-3.288029 0.005,-2.764837 -0.10394,-2.862568 -1.64062,-1.471879 C 120.71249,94.333313 120,96.311597 120,98.058722 c 0,1.694344 -0.364,3.305588 -0.8089,3.580548 -0.44489,0.27496 -1.34347,2.40923 -1.99684,4.74283 -0.65336,2.3336 -1.55498,4.2429 -2.0036,4.2429 -1.55627,0 -0.80554,-7.59454 1.12474,-11.378194 2.60869,-5.113453 1.61575,-5.700064 -1.444,-0.853097 -2.49433,3.951261 -2.77629,4.150261 -7.27622,5.135321 -1.56024,0.34155 -3.12725,1.65549 -4.00987,3.36228 -1.42125,2.74841 -1.58192,2.79965 -8.454551,2.69634 -5.570546,-0.0837 -7.005759,-0.39478 -7.005759,-1.51827 0,-1.02881 0.68674,-1.28168 2.525907,-0.93011 2.144994,0.41005 3.344802,-0.37505 7.956102,-5.20614 2.986601,-3.128955 5.675251,-6.461121 5.974761,-7.404818 0.57843,-1.822453 2.29323,-2.379783 2.29323,-0.745331 0,0.533766 -0.68133,2.010328 -1.51407,3.28125 -1.45048,2.21371 -1.42777,2.310769 0.54086,2.310769 1.13022,0 3.39358,-1.356206 5.0297,-3.013791 2.50135,-2.534175 2.71367,-3.067302 1.33414,-3.349995 -2.37721,-0.487137 -2.02795,-2.266083 1.2561,-6.397928 4.12291,-5.187263 8.02471,-13.713516 10.66167,-23.297987 2.46759,-8.968919 1.87719,-9.70224 -1.1596,-1.440299 -3.07628,8.369399 -10.54209,23.4375 -11.61259,23.4375 -1.38059,0 -0.31632,-3.807864 3.40634,-12.1875 5.05011,-11.367732 8.03792,-20.429474 10.28859,-31.204403 l 2.11193,-10.110653 -2.04149,-6.066269 c -1.12282,-3.336447 -1.83282,-6.274935 -1.57778,-6.529972 0.25504,-0.255036 1.65901,-0.463703 3.11995,-0.463703 1.81471,0 2.65625,-0.477299 2.65625,-1.506552 0,-1.066181 -0.47956,-1.30984 -1.64062,-0.833582 -0.90235,0.370134 -4.4198,0.888931 -7.81656,1.152882 l -6.17593,0.479912 -0.0216,6.681795 c -0.0137,4.230413 -0.90111,9.850416 -2.41894,15.318589 -2.8259,10.180606 -3.03345,10.581956 -5.47238,10.581956 -1.71752,0 -1.75805,-0.163871 -0.48875,-1.97604 0.88419,-1.262371 1.19768,-3.124609 0.86799,-5.15625 -0.42083,-2.593266 -0.21539,-3.18021 1.11314,-3.18021 1.10047,0 1.44453,-0.481271 1.06016,-1.482925 -0.31298,-0.81561 -0.56905,-1.843303 -0.56905,-2.283765 0,-0.440461 -1.69127,-1.751385 -3.75837,-2.913163 C 101.98702,32.470868 99.662728,30.554215 98.889047,29.37342 97.050019,26.566712 93.395626,24.771523 87.890625,23.970545 84.736429,23.511607 83.4375,22.891742 83.4375,21.845453 c 0,-1.244726 0.968542,-1.399414 6.155272,-0.983073 5.628269,0.451783 5.9857,0.375312 4.174694,-0.893166 -1.08932,-0.762989 -3.964662,-1.671062 -6.389649,-2.017942 -2.995261,-0.428453 -4.409067,-1.077901 -4.409067,-2.025356 0,-1.034708 0.96786,-1.344186 3.75,-1.19908 l 3.75,0.195585 -3.75,-1.811626 c -2.615334,-1.263469 -5.788115,-1.819064 -10.485844,-1.83621 -7.303306,-0.02665 -10.99235,0.931941 -11.812609,3.069501 -0.427736,1.114662 0.08379,1.225881 2.810131,0.610992 2.167663,-0.488887 3.977327,-0.366608 5.175693,0.349723 2.441442,1.459386 5.563085,8.57739 8.240094,18.789144 1.952823,7.449272 2.057721,8.812541 1.009911,13.125 -0.643092,2.646768 -1.390018,6.710742 -1.659835,9.031055 -0.269817,2.320312 -0.87155,4.619531 -1.337183,5.109375 -0.465635,0.489844 -0.846608,2.430797 -0.846608,4.313228 0,4.493452 -0.937704,7.484397 -6.157392,19.639897 -5.54351,12.909609 -5.757865,19.29466 -0.863184,25.71191 l 2.594722,3.40186 -1.705142,3.78132 c -1.829004,4.05601 -4.682965,6.38072 -5.356357,4.36304 -0.290589,-0.87068 -1.075889,-0.92303 -3.113395,-0.20751 -3.916302,1.3753 -3.812346,3.42144 0.287314,5.65512 3.136817,1.70907 3.768292,1.77571 5.641559,0.5953 1.160156,-0.73105 2.116474,-2.01895 2.12515,-2.86199 z M 98.4375,42.213937 C 96.117187,39.692651 93.164062,37.416113 91.875,37.154964 90.585937,36.893816 88.371094,36.434703 86.953125,36.134713 85.535156,35.834723 84.375,34.964502 84.375,34.200889 c 0,-2.022885 5.871001,-1.784644 10.115475,0.410478 6.057685,3.132866 12.782515,12.460775 8.813565,12.22518 -0.35628,-0.02115 -2.54623,-2.101323 -4.86654,-4.62261 z m 0.910162,-5.984601 C 95.186128,32.20625 90.871499,30 87.165315,30 c -2.276376,0 -2.85796,-0.362636 -2.613916,-1.629859 0.378947,-1.967709 2.638293,-2.504276 7.055523,-1.675599 3.860653,0.724263 12.455578,8.269054 12.455578,10.933747 0,2.484116 -1.00731,2.185234 -4.714838,-1.398953 z M 131.25,126.03842 c 0,-0.80387 -0.42876,-1.19659 -0.95279,-0.87272 -0.52404,0.32387 -0.71008,0.98158 -0.41342,1.46158 0.80365,1.30035 1.36621,1.05789 1.36621,-0.58886 z M 46.847646,124.2329 c 1.480618,-0.76566 3.597769,-2.6641 4.704781,-4.21875 1.107013,-1.55466 2.827772,-2.82665 3.823911,-2.82665 2.076797,0 2.183546,0.36496 0.840677,2.87413 -1.338905,2.50177 1.034331,2.45764 3.314235,-0.0616 0.933268,-1.03125 2.404904,-1.875 3.270301,-1.875 2.481541,0 2.729663,-0.83743 1.172794,-3.95825 -1.479584,-2.96593 -1.409613,-4.03477 1.290539,-19.713665 0.551969,-3.205105 0.418073,-3.515625 -1.515938,-3.515625 -2.610192,0 -7.948801,-3.205582 -9.843394,-5.910493 -1.590163,-2.270275 -1.887329,-7.743595 -0.468052,-8.620757 0.515625,-0.318674 0.9375,-2.643119 0.9375,-5.165434 0,-5.53358 1.718614,-14.053316 2.834857,-14.053316 1.599777,0 1.680376,1.554387 0.365868,7.055858 -0.735979,3.080216 -1.100096,6.614471 -0.809148,7.853899 0.290947,1.23943 0.02375,3.473283 -0.593776,4.964119 -1.381895,3.336188 0.312149,8.391174 2.184581,6.518742 2.049313,-2.049313 8.205118,-1.026036 8.205118,1.363934 0,0.718271 0.421875,1.305948 0.9375,1.305948 2.990429,0 -0.707088,-5.131707 -4.152082,-5.762589 -2.140902,-0.392065 -2.206354,-1.834852 -0.142303,-3.136822 1.01299,-0.638977 2.060089,-0.56552 3.340924,0.234375 2.141151,1.33717 3.765961,1.510835 3.765961,0.402517 0,-0.419385 -1.476563,-1.341877 -3.28125,-2.049981 -4.398391,-1.725793 -4.156728,-3.092932 0.46875,-2.651822 4.620831,0.440667 5.191258,-1.608601 0.766893,-2.755069 -1.640709,-0.42515 -3.173455,-1.344046 -3.406104,-2.041991 -0.328163,-0.98449 0.457078,-1.150948 3.502511,-0.742469 4.809471,0.645085 4.811941,-1.12481 0.0038,-2.712927 -3.903617,-1.289352 -4.141634,-2.582904 -0.550908,-2.994011 2.562572,-0.293394 2.600146,-0.370599 1.026575,-2.109375 C 67.279926,58.202932 67.294244,58.125 69.17437,58.125 c 1.080735,0 2.225706,0.421875 2.54438,0.9375 0.318674,0.515625 1.187321,0.9375 1.930328,0.9375 2.56408,0 1.338953,-1.842999 -2.540891,-3.822348 -4.137129,-2.110605 -3.716195,-3.564995 1.079313,-3.729188 2.15169,-0.07367 2.190102,-0.146274 0.46875,-0.885964 -1.03125,-0.443143 -3.619449,-0.835367 -5.751553,-0.871608 -3.140634,-0.05338 -4.168086,0.379043 -5.412237,2.277858 -0.844627,1.289062 -2.158771,2.34375 -2.920322,2.34375 -2.438017,0 -1.486916,-2.963395 2.009423,-6.260867 1.866733,-1.760556 3.237827,-3.343466 3.046875,-3.517579 C 63.437483,45.359943 61.077258,44.277519 58.383489,43.128669 55.036418,41.701197 52.119435,39.440588 49.170374,35.988676 46.152515,32.456235 44.17212,30.9375 42.58376,30.9375 c -1.249193,0 -2.27126,0.389423 -2.27126,0.865385 0,0.475961 -1.251262,2.116646 -2.780582,3.645965 l -2.780581,2.780582 5.075982,0.634202 c 5.561472,0.69486 9.130542,2.943512 11.285162,7.110087 2.997975,5.797446 0.134369,6.533455 -3.729104,0.958461 -2.062386,-2.976025 -3.400403,-3.872246 -6.89327,-4.617202 -2.38378,-0.508411 -4.728549,-0.680628 -5.210598,-0.382705 -0.48205,0.297923 -1.433657,-0.220342 -2.114683,-1.151702 C 31.811305,38.929524 32.013831,38.6347 29.944341,45.46875 27.176851,54.607793 20.448216,63.121331 12.563496,67.460204 7.7308427,70.11956 4.0885969,74.210001 5.0984071,75.843908 5.4829588,76.466126 8.976844,76.875 13.909229,76.875 c 8.90032,0 12.340771,1.350723 12.340771,4.844995 0,1.662498 -0.417091,1.849846 -3.046875,1.368585 -5.022324,-0.919104 -5.884828,0.283068 -4.039002,5.629627 4.99308,14.462793 7.271996,15.915443 17.37351,11.074421 6.930215,-3.321216 7.783312,-4.669716 4.712367,-7.448878 -3.902037,-3.531295 -1.560902,-4.352885 4.132476,-1.450235 5.49045,2.799191 6.979123,4.574679 7.663785,9.140335 0.472926,3.1537 0.27309,4.54859 -0.806284,5.62796 -1.66382,1.66382 -3.489977,0.89613 -3.489977,-1.46714 0,-4.274204 -5.604587,-5.278164 -8.110979,-1.45292 -0.875437,1.33608 -2.467194,2.76188 -3.537237,3.16846 -1.728001,0.65656 -1.932389,1.46553 -1.827975,7.23516 0.153195,8.46503 2.098411,12.47963 6.046822,12.47963 1.55924,0 4.046396,-0.62645 5.527015,-1.3921 z m -15.7149,-62.019542 c -0.970007,-0.417072 -0.978375,-0.800995 -0.04205,-1.929196 1.153047,-1.389338 1.230125,-6.604612 0.176021,-11.910021 l -0.540345,-2.719608 5.489117,0.645138 c 8.020796,0.942687 14.318344,5.916441 14.704894,11.613809 0.169897,2.504115 0.04199,2.56717 -6.389132,3.1497 -3.609375,0.326937 -7.828125,0.836629 -9.375,1.132651 -1.546875,0.296022 -3.357452,0.303909 -4.023505,0.01753 z m 11.57711,-4.199653 C 45.000685,57.436867 46.875,56.666656 46.875,56.302124 c 0,-0.364532 -0.950072,-1.555331 -2.111271,-2.646221 -2.090296,-1.963732 -2.134537,-1.965562 -4.453125,-0.184266 -1.28802,0.989544 -2.869198,1.808551 -3.513729,1.820017 -1.730592,0.03078 -1.444962,3.770846 0.287981,3.770846 0.802921,0 3.334171,-0.471958 5.625,-1.048795 z m 84.614364,52.669885 c 0.23437,-0.70312 -0.11719,-1.05468 -0.82031,-0.82031 -0.67677,0.22558 -1.41505,0.96387 -1.64063,1.64063 -0.23437,0.70312 0.11719,1.05468 0.82031,0.82031 0.67676,-0.22558 1.41504,-0.96387 1.64063,-1.64063 z m 14.23828,-0.0586 c 0,-0.51562 -0.18604,-0.9375 -0.41342,-0.9375 -0.22738,0 -0.67415,0.42188 -0.99283,0.9375 -0.31868,0.51563 -0.13264,0.9375 0.41342,0.9375 0.54605,0 0.99283,-0.42187 0.99283,-0.9375 z m -62.274693,-6.35045 c -1.619768,-1.54708 -1.644914,-1.52193 -0.571365,0.57137 0.617635,1.20431 1.380086,1.93256 1.694336,1.61831 0.31425,-0.31426 -0.191086,-1.2996 -1.122971,-2.18968 z M 87.767858,92.321428 C 86.933035,91.486607 86.25,91.171206 86.25,91.620535 c 0,1.061729 2.096368,3.158099 2.627232,2.627231 0.224665,-0.224663 -0.274553,-1.091516 -1.109375,-1.926338 z M 121.875,87.076843 c 0,-0.515625 -0.42187,-0.676767 -0.9375,-0.358093 -0.51563,0.318674 -0.9375,1.001282 -0.9375,1.516907 0,0.515625 0.42187,0.676767 0.9375,0.358093 0.51563,-0.318674 0.9375,-1.001282 0.9375,-1.516907 z m 13.10619,0.556751 c -0.65223,-0.785897 -1.37895,-1.23584 -1.61492,-0.999872 -0.65014,0.650153 0.67083,2.428778 1.80385,2.428778 0.62165,0 0.55053,-0.537921 -0.18893,-1.428906 z M 63.75,87.1875 c 0,-0.515625 -0.657711,-0.9375 -1.461578,-0.9375 -0.803868,0 -1.200846,0.421875 -0.882172,0.9375 0.318674,0.515625 0.976384,0.9375 1.461578,0.9375 0.485195,0 0.882172,-0.421875 0.882172,-0.9375 z M 134.0625,78.75 c 0,-2.158995 0.42281,-2.8125 1.81967,-2.8125 2.60512,0 3.42782,-1.904097 1.08716,-2.516193 -2.39553,-0.626445 -2.55824,-2.918635 -0.32871,-4.630672 1.53178,-1.176237 1.50068,-1.299197 -0.46875,-1.85332 -1.16015,-0.326424 -2.10937,-1.050545 -2.10937,-1.609157 0,-0.651429 -0.32392,-0.691741 -0.90324,-0.112411 -1.22188,1.221865 -2.29678,10.925145 -1.54297,13.928532 0.83121,3.311807 2.44621,3.051502 2.44621,-0.394279 z M 88.49184,77.416237 c -0.281497,-0.733571 -1.193822,-1.595475 -2.027389,-1.915346 -1.24511,-0.477793 -1.206244,-0.239774 0.217787,1.333765 2.042064,2.256454 2.510024,2.40685 1.809602,0.581581 z M 135.9375,62.8125 c 1.14326,-0.738831 1.02211,-0.911473 -0.64779,-0.923144 -1.12973,-0.0079 -2.31478,0.407519 -2.63346,0.923144 -0.73769,1.193613 1.43426,1.193613 3.28125,0 z m 0.9375,-4.632172 c 0,-1.306408 -1.72344,-2.134652 -2.91259,-1.399719 -0.72331,0.44703 -0.65232,0.885386 0.23438,1.447223 1.67352,1.060397 2.67821,1.042577 2.67821,-0.0475 z m -32.8125,-1.610763 c 0,-1.896336 -8.139309,-10.99486 -10.848267,-12.126735 -6.133808,-2.562868 -6.980734,-1.008643 -1.514557,2.77942 1.966072,1.362488 4.813727,4.15208 6.328127,6.199091 2.355937,3.184527 6.034697,5.103686 6.034697,3.148224 z m 24.68632,-4.610517 c -0.60752,-1.583173 -2.18632,-0.835334 -2.18632,1.035607 0,0.76369 0.56859,1.103308 1.34706,0.804585 0.74087,-0.284302 1.11855,-1.112389 0.83926,-1.840192 z m 7.91133,0.365171 c -0.57944,-1.738334 -2.59765,-2.02665 -2.59765,-0.371094 0,0.816406 0.66797,1.484375 1.48437,1.484375 0.81641,0 1.31739,-0.500977 1.11328,-1.113281 z m 0.21485,-5.393891 c 0,-1.26597 -1.70901,-2.143576 -2.82779,-1.452127 -0.52404,0.323872 -0.71008,0.981582 -0.41342,1.461578 0.70375,1.138703 3.24121,1.131304 3.24121,-0.0095 z M 71.25,42.336496 c 0,-0.93351 -9.31429,-6.147206 -9.912788,-5.548707 -0.588616,0.588616 2.408871,3.146248 5.696128,4.860271 3.180954,1.658596 4.21666,1.827691 4.21666,0.688436 z M 56.787188,37.948621 c -0.993609,-0.751711 -2.036079,-1.137231 -2.3166,-0.85671 -0.588461,0.588461 1.792591,2.26189 3.185662,2.238918 0.515625,-0.0085 0.124547,-0.630497 -0.869062,-1.382208 z M 136.875,36.5625 c 0,-0.515625 -0.65771,-0.9375 -1.46158,-0.9375 -0.80387,0 -1.20085,0.421875 -0.88217,0.9375 0.31868,0.515625 0.97639,0.9375 1.46158,0.9375 0.48519,0 0.88217,-0.421875 0.88217,-0.9375 z M 57.168697,33.258594 c -2.050333,-2.4705 -0.112021,-2.739886 3.818664,-0.530716 2.84666,1.599911 4.087954,1.867348 5.031728,1.084085 0.880252,-0.730544 2.001928,-0.754965 3.771658,-0.08212 3.414653,1.298249 3.775313,1.212465 2.312558,-0.550048 -1.060266,-1.277541 -0.994758,-1.695272 0.429128,-2.736443 2.892029,-2.114703 1.594944,-5.419778 -2.688683,-6.850978 -3.081038,-1.029404 -4.897911,-1.040934 -10.18484,-0.06463 -3.539162,0.653553 -7.336037,1.959633 -8.4375,2.902399 l -2.00266,1.714121 3.671822,3.271617 c 3.700186,3.296888 6.477968,4.493358 4.278125,1.84271 z m 80.468593,-3.024219 c -0.39311,-2.06254 -4.51229,-2.835252 -4.51229,-0.846454 0,0.766331 0.52734,1.606117 1.17187,1.866191 2.39053,0.964597 3.6456,0.581458 3.34042,-1.019737 z M 108.0604,29.439594 C 109.23542,28.26458 107.51432,26.25 105.33547,26.25 c -1.25204,0 -3.42175,-0.71688 -4.82158,-1.593068 l -2.54514,-1.593067 2.34375,2.756816 c 1.28906,1.51625 2.76563,3.070421 3.28125,3.453713 1.13426,0.843161 3.69402,0.937834 4.46665,0.1652 z M 138.75,23.846852 c 0,-1.08298 -0.77666,-1.388947 -2.97468,-1.171875 -4.29782,0.424444 -4.62061,2.637523 -0.38469,2.637523 2.42162,0 3.35937,-0.40913 3.35937,-1.465648 z m -32.8125,-2.084848 c 0,-1.05028 -0.76374,-1.733027 -2.04674,-1.829672 -1.1257,-0.0848 -2.403,-0.790779 -2.83843,-1.568848 -0.43543,-0.778069 -2.362052,-1.850802 -4.281386,-2.383849 -6.36382,-1.767397 -6.379296,-0.926999 -0.04284,2.325985 3.44265,1.767371 6.52614,3.645059 6.85221,4.172641 0.94921,1.535846 2.35719,1.108015 2.35719,-0.716257 z m 30.60354,-3.756479 c -0.95711,-0.202874 -2.14925,0.04019 -2.6492,0.540139 -0.58701,0.587004 0.0294,0.717668 1.7402,0.368863 1.96215,-0.400057 2.1979,-0.635803 0.909,-0.909002 z M 141.09375,13.125 c -0.73498,-1.189222 -4.25356,-1.189222 -6.09375,0 -1.02819,0.664471 -0.32022,0.912648 2.63346,0.923144 2.45754,0.0087 3.81277,-0.352818 3.46029,-0.923144 z M 40.010708,186.79687 C 39.160562,185.34758 40.567028,180 41.79835,180 c 0.700172,0 1.634912,1.37109 2.0772,3.04687 0.635934,2.40949 0.494452,3.18018 -0.67632,3.68411 -2.030092,0.8738 -2.706411,0.88777 -3.188522,0.0659 z M 26.25,181.86741 c 0,-0.5198 1.592438,-1.58226 3.538752,-2.36102 3.347735,-1.33949 3.520163,-1.61086 3.194364,-5.0272 -0.196365,-2.05906 0.269073,-4.79757 1.082869,-6.37127 0.960049,-1.85654 1.24949,-4.08539 0.884202,-6.80882 -0.430918,-3.21273 -0.272119,-3.95958 0.769002,-3.61672 0.782104,0.25757 1.430043,2.04357 1.604159,4.42176 0.217498,2.97073 0.628836,3.86044 1.610601,3.48371 2.419808,-0.92858 2.408971,1.18304 -0.01422,2.77078 -1.835836,1.20288 -2.149607,1.85567 -1.353201,2.81529 1.88631,2.27286 0.07172,6.61043 -3.851571,9.20674 -3.726572,2.46613 -7.464956,3.21068 -7.464956,1.48675 z m 15.263242,-25.62637 c 0.783751,-4.82969 4.779946,-14.23883 5.830508,-13.72808 1.163266,0.56555 1.131517,0.71277 -2.069525,9.59576 -2.701397,7.49647 -4.655288,9.64327 -3.760983,4.13232 z m -6.805153,-3.22358 c 0.01132,-0.88617 0.809138,-3.34765 1.772918,-5.46996 2.145916,-4.72545 3.30852,-9.5049 2.995175,-12.31313 -0.155382,-1.39253 0.265326,-2.10937 1.237975,-2.10937 1.174126,0 1.473343,1.13113 1.473343,5.56967 0,3.06332 -0.421875,5.8304 -0.9375,6.14908 -0.515625,0.31868 -0.9375,1.7395 -0.9375,3.1574 0,2.88546 -1.52364,5.20175 -3.984375,6.05717 -1.150703,0.40003 -1.634477,0.0892 -1.620036,-1.04086 z"
     id="path4166"
     inkscape:connector-curvature="0" />
</svg>
