<?xml version="1.0" encoding="UTF-8" standalone="no"?>
<svg
   xmlns:dc="http://purl.org/dc/elements/1.1/"
   xmlns:cc="http://creativecommons.org/ns#"
   xmlns:rdf="http://www.w3.org/1999/02/22-rdf-syntax-ns#"
   xmlns:svg="http://www.w3.org/2000/svg"
   xmlns="http://www.w3.org/2000/svg"
   xmlns:xlink="http://www.w3.org/1999/xlink"
   xmlns:sodipodi="http://sodipodi.sourceforge.net/DTD/sodipodi-0.dtd"
   xmlns:inkscape="http://www.inkscape.org/namespaces/inkscape"
   width="88.276695mm"
   height="116.89262mm"
   viewBox="0 0 88.276695 116.89262"
   version="1.1"
   id="svg8"
   inkscape:version="1.0.2 (e86c870879, 2021-01-15)"
   sodipodi:docname="deathknellchen.svg">
  <defs
     id="defs2">
    <linearGradient
       inkscape:collect="always"
       id="linearGradient1159">
      <stop
         style="stop-color:#c5845e;stop-opacity:1;"
         offset="0"
         id="stop1155" />
      <stop
         style="stop-color:#955835;stop-opacity:1"
         offset="1"
         id="stop1157" />
    </linearGradient>
    <linearGradient
       inkscape:collect="always"
       xlink:href="#linearGradient1159"
       id="linearGradient1161"
       x1="130.73611"
       y1="153.3187"
       x2="166.12161"
       y2="169.33559"
       gradientUnits="userSpaceOnUse" />
    <linearGradient
       inkscape:collect="always"
       xlink:href="#linearGradient1159"
       id="linearGradient1169"
       x1="124.91705"
       y1="188.33566"
       x2="153.96167"
       y2="161.10428"
       gradientUnits="userSpaceOnUse" />
    <linearGradient
       inkscape:collect="always"
       xlink:href="#linearGradient1159"
       id="linearGradient1177"
       x1="135.35938"
       y1="142.80408"
       x2="151.04715"
       y2="158.21043"
       gradientUnits="userSpaceOnUse" />
    <linearGradient
       inkscape:collect="always"
       xlink:href="#linearGradient1159"
       id="linearGradient1185"
       x1="78.145699"
       y1="150.28413"
       x2="80.04142"
       y2="142.09406"
       gradientUnits="userSpaceOnUse" />
    <linearGradient
       inkscape:collect="always"
       xlink:href="#linearGradient1159"
       id="linearGradient1199"
       x1="125.03437"
       y1="149.02769"
       x2="122.43714"
       y2="147.42079"
       gradientUnits="userSpaceOnUse" />
    <filter
       inkscape:collect="always"
       style="color-interpolation-filters:sRGB"
       id="filter3731"
       x="-0.016671248"
       width="1.0333425"
       y="-0.020751197"
       height="1.0415024">
      <feGaussianBlur
         inkscape:collect="always"
         stdDeviation="0.56075936"
         id="feGaussianBlur3733" />
    </filter>
  </defs>
  <sodipodi:namedview
     id="base"
     pagecolor="#ffffff"
     bordercolor="#666666"
     borderopacity="1.0"
     inkscape:pageopacity="0.0"
     inkscape:pageshadow="2"
     inkscape:zoom="0.7"
     inkscape:cx="151.89946"
     inkscape:cy="226.81525"
     inkscape:document-units="mm"
     inkscape:current-layer="layer2"
     inkscape:document-rotation="0"
     showgrid="false"
     inkscape:window-width="1280"
     inkscape:window-height="959"
     inkscape:window-x="0"
     inkscape:window-y="0"
     inkscape:window-maximized="1"
     fit-margin-top="0"
     fit-margin-left="0"
     fit-margin-right="0"
     fit-margin-bottom="0" />
  <metadata
     id="metadata5">
    <rdf:RDF>
      <cc:Work
         rdf:about="">
        <dc:format>image/svg+xml</dc:format>
        <dc:type
           rdf:resource="http://purl.org/dc/dcmitype/StillImage" />
        <dc:title></dc:title>
      </cc:Work>
    </rdf:RDF>
  </metadata>
  <g
     inkscape:label="Layer 1"
     inkscape:groupmode="layer"
     id="layer1"
     style="display:inline"
     transform="translate(-64.809934,-77.868666)" />
  <g
     inkscape:groupmode="layer"
     id="layer2"
     inkscape:label="head"
     transform="translate(-64.809934,-77.868666)">
    <path
       style="fill:url(#linearGradient1161);fill-opacity:1;stroke:#000000;stroke-width:0.264583px;stroke-linecap:butt;stroke-linejoin:miter;stroke-opacity:1"
       d="m 90.44405,86.027702 c 4.201046,-2.00261 9.096958,-2.355534 13.75046,-2.420354 4.54396,-0.06329 9.13298,0.688288 13.48742,1.988487 2.88747,0.862177 5.69421,2.130813 8.2024,3.801089 3.54595,2.361344 7.0315,5.106209 9.42928,8.627618 3.16953,4.654808 4.20196,10.454548 6.04367,15.776318 1.74006,5.02803 3.81676,10.00398 4.72469,15.24655 1.21243,7.00076 0.99223,14.19127 0.90486,21.29571 -0.0445,3.62158 0.1798,7.33492 -0.72809,10.84113 -1.22688,4.73813 -3.13412,9.51214 -6.24996,13.28661 -3.49307,4.23144 -8.60545,6.85804 -13.2981,9.70156 -4.96893,3.01093 -9.97266,6.377 -15.62366,7.72688 -2.8219,0.67408 -5.85144,0.61653 -8.70348,0.0842 -2.603435,-0.48593 -5.065206,-1.65477 -7.38217,-2.93761 -2.318447,-1.28366 -4.655693,-2.71585 -6.41187,-4.7005 -3.236272,-3.65729 -4.638175,-8.59985 -7.159757,-12.78206 -2.151276,-3.56803 -4.822671,-6.8211 -6.792746,-10.49229 -0.562273,-1.04778 -1.11893,-2.12156 -1.423599,-3.27099 -0.394458,-1.48818 -0.224931,-3.07651 -0.496527,-4.59193 -0.694672,-3.87605 -2.146103,-7.58768 -2.887946,-11.45498 -0.271464,-1.41517 -0.371943,-2.85787 -0.569307,-4.28526 -0.405947,-2.93592 -1.200877,-5.838 -1.264673,-8.80117 -0.126745,-5.88696 -0.124107,-11.99776 1.757648,-17.5773 1.899104,-5.63099 5.489429,-10.65717 9.331991,-15.190304 3.243691,-3.826636 6.831204,-7.712811 11.359466,-9.871404 z"
       id="path900"
       sodipodi:nodetypes="sssssssssssssssssssssssss" />
    <path
       style="fill:none;stroke:#000000;stroke-width:0.264583px;stroke-linecap:butt;stroke-linejoin:miter;stroke-opacity:1"
       d="m 76.670246,116.64436 c 0,0 4.881007,-1.15506 7.368418,-1.41648 2.040078,-0.21441 4.156203,0.35072 6.152771,-0.12003 1.934431,-0.4561 3.514293,-1.88877 5.385343,-2.55901 0.493049,-0.17662 1.52451,-0.38012 1.52451,-0.38012"
       id="path923"
       sodipodi:nodetypes="csssc" />
    <path
       style="fill:none;stroke:#000000;stroke-width:0.264583px;stroke-linecap:butt;stroke-linejoin:miter;stroke-opacity:1"
       d="m 94.563913,116.61172 c 3.700051,-2.34083 7.672807,-3.33812 11.732847,-3.90539"
       id="path925"
       sodipodi:nodetypes="cc" />
    <path
       style="fill:none;stroke:#000000;stroke-width:0.264583px;stroke-linecap:butt;stroke-linejoin:miter;stroke-opacity:1"
       d="m 78.042653,119.59874 4.003018,-0.77759"
       id="path927" />
    <path
       style="fill:none;stroke:#000000;stroke-width:0.264583px;stroke-linecap:butt;stroke-linejoin:miter;stroke-opacity:1"
       d="m 98.865567,137.37359 c 1.183043,1.94806 2.655073,3.67629 5.055933,4.69788"
       id="path929"
       sodipodi:nodetypes="cc" />
    <path
       style="fill:none;stroke:#000000;stroke-width:0.264583px;stroke-linecap:butt;stroke-linejoin:miter;stroke-opacity:1"
       d="m 102.0055,138.04946 c 1.35793,3.16089 4.05722,5.00596 6.80431,6.78063"
       id="path931"
       sodipodi:nodetypes="cc" />
    <path
       style="fill:none;stroke:#000000;stroke-width:0.264583px;stroke-linecap:butt;stroke-linejoin:miter;stroke-opacity:1"
       d="m 105.48987,138.45852 c 2.27917,2.79044 4.4133,2.7691 6.38462,-0.40818"
       id="path933"
       sodipodi:nodetypes="cc" />
    <path
       style="fill:none;stroke:#000000;stroke-width:0.264583px;stroke-linecap:butt;stroke-linejoin:miter;stroke-opacity:1"
       d="m 100.83599,136.19486 c 0,0 2.12951,0.40122 3.20802,0.47304 0.95201,0.0634 1.9299,0.16489 2.86211,-0.0384 0.81137,-0.17694 2.27882,-1.00676 2.27882,-1.00676"
       id="path935"
       sodipodi:nodetypes="cssc" />
    <path
       style="fill:url(#linearGradient1185);fill-opacity:1;stroke:none;stroke-width:0.264583px;stroke-linecap:butt;stroke-linejoin:miter;stroke-opacity:1"
       d="m 84.635738,140.83619 c -0.464519,4.11956 -7.454638,17.91395 -9.39347,0.75429 2.913714,1.68463 6.202742,0.0275 9.39347,-0.75429 z"
       id="path937"
       sodipodi:nodetypes="ccc" />
    <path
       style="fill:none;stroke:#000000;stroke-width:0.264583px;stroke-linecap:butt;stroke-linejoin:miter;stroke-opacity:1"
       d="m 100.24725,145.84038 c 4.36509,6.49986 10.86009,12.41607 10.70816,20.15373"
       id="path1127"
       sodipodi:nodetypes="cc" />
    <path
       style="fill:none;stroke:#000000;stroke-width:0.264583px;stroke-linecap:butt;stroke-linejoin:miter;stroke-opacity:1"
       d="m 86.200839,149.74037 c -1.212355,8.48086 0.881024,16.62565 2.658253,24.80258"
       id="path1129"
       sodipodi:nodetypes="cc" />
    <path
       style="fill:url(#linearGradient1199);fill-opacity:1;stroke:none;stroke-width:0.264583px;stroke-linecap:butt;stroke-linejoin:miter;stroke-opacity:1"
       d="m 127.9551,143.60583 c 0,0 -3.12028,-0.20104 -4.3402,0.60215 -1.23737,0.81467 -1.89153,2.37869 -2.30084,3.8025 -0.4681,1.62832 -0.2702,3.39865 -0.0798,5.08219 0.0851,0.75268 0.54221,2.20679 0.54221,2.20679 l 2.22025,-0.0997 c 0,0 0.41811,-3.02294 0.98937,-4.42074 0.61358,-1.50134 2.02071,-2.60627 2.5671,-4.13334 0.34433,-0.96235 0.40191,-3.03985 0.40191,-3.03985 z"
       id="path1131"
       sodipodi:nodetypes="csssccssc" />
  </g>
  <g
     inkscape:groupmode="layer"
     id="layer8"
     inkscape:label="nose"
     transform="translate(-64.809934,-77.868666)">
    <path
       style="fill:none;stroke:#000000;stroke-width:0.264583px;stroke-linecap:butt;stroke-linejoin:miter;stroke-opacity:1"
       d="m 86.576433,133.72409 1.309873,2.1224 c 0,0 0.227538,2.9058 0.151561,4.35704 -0.09907,1.89245 -0.456774,3.76444 -0.789839,5.62998 -0.312837,1.75224 -0.926102,3.4503 -1.133848,5.21808 -0.172235,1.46561 -0.206064,2.95519 -0.08852,4.42619 0.06896,0.86306 0.04911,1.7956 0.463671,2.55572 0.478357,0.8771 1.329401,1.53852 2.189573,2.04668 0.388567,0.22955 1.287084,0.42015 1.287084,0.42015 l 0.279699,-1.20561 c 0,0 -1.882641,-1.23084 -2.265206,-2.21523 -0.195926,-0.50414 -0.248053,-1.19758 0.08955,-1.62016 0.324995,-0.4068 0.986776,-0.50278 1.502122,-0.42846 1.006758,0.14519 1.955005,0.8283 2.578407,1.63205 0.354762,0.45739 0.534548,1.65222 0.534548,1.65222 l 1.286698,0.12995 c 0,0 0.06132,-0.67089 0.100089,-1.00546 0.0708,-0.61101 0.08662,-1.23421 0.241927,-1.82938 0.180022,-0.68991 0.377585,-1.40662 0.791435,-1.98724 0.464204,-0.65126 1.084434,-1.24656 1.817502,-1.56631 0.636182,-0.27749 1.403359,-0.4268 2.069315,-0.23127 0.616101,0.18089 1.106726,0.70342 1.494876,1.21493 0.56263,0.74143 0.87813,1.66021 1.11283,2.56087 0.12297,0.4719 0.1459,1.45568 0.1459,1.45568 0,0 0.92797,-0.30538 1.25691,-0.64166 0.34975,-0.35756 0.54518,-0.86268 0.65261,-1.35118 0.16209,-0.73705 0.0735,-1.51735 -0.0385,-2.26366 -0.1815,-1.20994 -0.5902,-2.38011 -1.01712,-3.52668 -0.51966,-1.39564 -1.13415,-2.76292 -1.87097,-4.05712 -0.68476,-1.20276 -1.621412,-2.24601 -2.354797,-3.41975 -1.027116,-1.64385 -1.86459,-3.39984 -2.858654,-5.06388 -0.525702,-0.88001 -1.641485,-2.6005 -1.641485,-2.6005 l 0.448659,-2.07944"
       id="path1140"
       sodipodi:nodetypes="ccssssssccssssccssssssscssssssscc" />
    <path
       style="fill:#000000;fill-opacity:1;stroke:#000000;stroke-width:0.264583px;stroke-linecap:butt;stroke-linejoin:miter;stroke-opacity:1"
       d="m 89.874573,159.0284 c -0.563886,-0.16389 -1.008538,-0.64569 -1.367856,-1.11015 -0.318927,-0.41225 -0.646851,-0.90146 -0.648827,-1.42267 -0.0019,-0.50643 0.198402,-1.10637 0.619929,-1.38707 0.432364,-0.28791 1.057962,-0.17916 1.557896,-0.0381 0.641493,0.181 1.207082,0.61551 1.678638,1.08658 0.367606,0.36723 0.833478,0.78834 0.848392,1.30773 0.01475,0.51365 -0.334833,1.0558 -0.763423,1.33929 -0.538737,0.35635 -1.304489,0.40467 -1.924749,0.22439 z"
       id="path1145"
       sodipodi:nodetypes="sssssssss" />
    <path
       style="fill:#000000;fill-opacity:1;stroke:#000000;stroke-width:0.264583px;stroke-linecap:butt;stroke-linejoin:miter;stroke-opacity:1"
       d="m 95.228732,153.37035 c 0.411245,-0.49317 0.933772,-0.917 1.515094,-1.18978 0.617055,-0.28954 1.338957,-0.59932 1.999152,-0.4298 0.88135,0.2263 1.563302,1.02763 2.062262,1.78857 0.58405,0.89071 1.16852,2.00438 0.95776,3.04844 -0.0712,0.35264 -0.39447,0.62977 -0.69759,0.82353 -0.88063,0.56291 -1.990661,0.66737 -3.022324,0.83485 -1.200008,0.19481 -2.582251,0.78638 -3.642156,0.19092 -0.199384,-0.11201 -0.279195,-0.37992 -0.325731,-0.60383 -0.126892,-0.61054 0.04778,-1.25036 0.15857,-1.86403 0.093,-0.51513 0.228902,-1.02611 0.422423,-1.51248 0.151334,-0.38034 0.310385,-0.77201 0.57254,-1.08639 z"
       id="path1147"
       sodipodi:nodetypes="ssssssssssss" />
  </g>
  <g
     inkscape:groupmode="layer"
     id="layer7"
     inkscape:label="mouth 1"
     transform="translate(-64.809934,-77.868666)">
    <path
       style="fill:#030303;fill-opacity:1;stroke:#000000;stroke-width:0.264583px;stroke-linecap:butt;stroke-linejoin:miter;stroke-opacity:1"
       d="m 91.250507,175.38786 c 0,0 0.526591,-1.83633 1.010512,-2.64758 0.631513,-1.05868 1.466165,-2.01333 2.413649,-2.80193 1.025702,-0.8537 2.174234,-1.65146 3.457143,-2.0189 1.193673,-0.34188 2.484659,-0.024 3.723399,-0.10924 1.87308,-0.12893 3.76453,-0.21107 5.59964,-0.60782 0.87249,-0.18863 2.54392,-0.83659 2.54392,-0.83659 l -0.36156,1.52824 c 0,0 -0.54597,1.28986 -1.05432,1.73778 -0.67719,0.5967 -1.6038,0.86001 -2.47335,1.10193 -0.76707,0.21341 -1.57814,0.21526 -2.3704,0.29443 -1.13297,0.11321 -2.29868,-0.007 -3.40608,0.25802 -1.016222,0.24298 -1.918712,0.82959 -2.894703,1.20267 -0.786024,0.30046 -1.553317,0.69254 -2.38293,0.83344 -0.354405,0.0602 -0.737683,-0.1145 -1.078439,0 -1.080799,0.36317 -2.726481,2.06555 -2.726481,2.06555 z"
       id="path1125"
       sodipodi:nodetypes="csssssccsssssssc" />
  </g>
  <g
     inkscape:groupmode="layer"
     id="layer3"
     inkscape:label="front hair 1"
     transform="translate(-64.809934,-77.868666)">
    <path
       style="opacity:1;fill:#444444;fill-opacity:1;stroke:#000000;stroke-width:0.264583px;stroke-linecap:butt;stroke-linejoin:miter;stroke-opacity:1;filter:url(#filter3731)"
       d="m 71.689232,131.99154 c 0,0 -1.236459,-2.78629 -1.476706,-4.27448 -0.253061,-1.56757 0.01033,-3.17612 0.05966,-4.76321 0.06509,-2.09446 -0.219123,-4.25158 0.311772,-6.27869 0.411723,-1.57208 1.104482,-3.14096 2.17605,-4.36271 0.712714,-0.8126 1.663729,-1.46868 2.688161,-1.81339 1.878117,-0.63197 3.959039,-0.47282 5.935557,-0.33107 2.322817,0.16659 4.54022,1.68816 6.848594,1.38052 2.158137,-0.28761 4.006436,-1.7506 5.841381,-2.92246 1.822947,-1.1642 3.109332,-3.14093 5.074883,-4.04376 2.625896,-1.20614 5.632116,-1.81158 8.515636,-1.62331 1.78748,0.11671 3.54361,0.80289 5.10313,1.68413 1.32571,0.74912 2.70774,1.65607 3.46459,2.97738 1.0777,1.88146 0.51916,4.32926 1.16115,6.40029 0.53922,1.73948 1.03389,3.61703 2.23634,4.98476 1.06372,1.20993 2.78147,1.63022 4.11994,2.52684 1.70501,1.14217 3.71802,2.0054 4.97363,3.62868 1.31538,1.70055 1.61238,3.98652 2.36991,5.99855 0.31723,0.84259 0.68811,1.67045 0.91069,2.54283 0.61388,2.40605 0.96584,4.88337 1.15527,7.35927 0.0765,0.99973 -0.009,3.00795 -0.009,3.00795 0,0 1.77959,-1.65199 2.39382,-2.68046 0.65981,-1.1048 0.96624,-2.39091 1.31571,-3.62938 0.35988,-1.27538 0.16745,-2.7293 0.79865,-3.89451 0.89133,-1.64542 2.34545,-3.05672 3.99044,-3.94883 1.17009,-0.63456 3.9024,-0.84687 3.9024,-0.84687 l 1.33203,-0.0778 -0.37362,-4.03748 -0.54036,-6.13845 -1.01659,-6.45371 c 0,0 -1.19685,-5.69678 -2.07205,-8.46769 -0.79884,-2.52917 -1.59896,-5.096926 -2.89135,-7.413083 -1.15049,-2.061842 -2.72307,-3.867189 -4.26429,-5.655892 -2.07276,-2.405598 -4.05703,-4.999578 -6.67516,-6.796418 -2.82952,-1.94192 -6.10915,-3.297047 -9.44804,-4.090192 -3.90386,-0.927352 -8.00499,-0.658373 -12.0173,-0.696518 -2.79287,-0.02655 -5.6164,-0.125878 -8.372642,0.325705 -4.402124,0.721245 -8.679848,2.16222 -12.839184,3.774302 -1.91643,0.742773 -3.87257,1.503714 -5.542487,2.70196 -2.428092,1.742274 -4.494887,3.996559 -6.302581,6.376347 -1.587771,2.090264 -2.785827,4.463424 -3.910475,6.835214 -1.65842,3.497475 -3.420821,7.043005 -4.154689,10.843545 -0.574709,2.97629 -0.169722,6.06156 -0.141867,9.0927 0.02931,3.1891 -0.150122,6.40855 0.325046,9.56219 0.515839,3.42357 2.721523,10.02375 2.721523,10.02375 -0.141663,-2.59839 0.730483,-4.82459 2.322428,-6.78655 z"
       id="path903"
       sodipodi:nodetypes="cssssssssssssssssssscsssscccccsssssssssssssscc" />
  </g>
  <g
     inkscape:groupmode="layer"
     id="layer4"
     inkscape:label="ear 1"
     transform="translate(-64.809934,-77.868666)">
    <path
       style="fill:url(#linearGradient1177);fill-opacity:1;stroke:#000000;stroke-width:0.264583px;stroke-linecap:butt;stroke-linejoin:miter;stroke-opacity:1"
       d="m 136.62955,142.60467 c 0,0 -1.19733,-2.38399 -1.13547,-3.65978 0.10193,-2.10224 1.2168,-4.11254 2.44566,-5.82126 0.99808,-1.38782 2.30878,-2.64849 3.85017,-3.38762 1.013,-0.48575 2.19759,-0.62241 3.32019,-0.57911 1.05439,0.0407 2.17106,0.22558 3.06728,0.78253 1.08292,0.67297 1.99715,1.72808 2.48893,2.90441 0.71069,1.69998 0.62718,3.67342 0.46069,5.50844 -0.21496,2.36935 -1.32071,4.57329 -1.86516,6.88924 -0.52749,2.24383 -1.35611,6.78073 -1.35611,6.78073 0,0 0.0155,1.53796 -0.33408,2.18743 -0.43604,0.80998 -1.22765,1.43336 -2.04782,1.84991 -0.56669,0.28781 -1.2325,0.34746 -1.86676,0.38855 -1.11283,0.0721 -3.33588,-0.25341 -3.33588,-0.25341 0,0 -0.46007,-1.75008 -0.56727,-2.64559 -0.22892,-1.91228 -0.0114,-3.85522 -0.15635,-5.77569 -0.0727,-0.96366 0.0947,-2.02303 -0.35754,-2.87709 -0.54185,-1.02328 -2.61048,-2.29169 -2.61048,-2.29169 z"
       id="path906"
       sodipodi:nodetypes="csssssssscssscsssc" />
    <path
       style="fill:#944826;fill-opacity:1;stroke:none;stroke-width:0.264583px;stroke-linecap:butt;stroke-linejoin:miter;stroke-opacity:1"
       d="m 142.51202,136.19117 c -0.22133,0.28366 -0.268,0.76605 -0.60408,0.89451 -0.33663,0.12868 -0.81546,0.011 -1.04846,-0.26393 -0.24382,-0.28771 -0.0925,-1.1276 -0.0925,-1.1276 0,0 0.55993,-0.7092 0.86234,-1.04442 0.39459,-0.4374 0.81185,-0.85461 1.2401,-1.25912 0.43719,-0.41295 0.84558,-0.87177 1.35543,-1.19071 0.44139,-0.27611 0.92325,-0.5432 1.4403,-0.60422 0.48244,-0.0569 1.00464,0.0164 1.43822,0.23544 0.67093,0.33901 1.20364,0.94536 1.61355,1.57548 0.34725,0.5338 0.57491,1.1603 0.66612,1.79055 0.1365,0.94315 -0.0995,1.90412 -0.19626,2.85218 -0.13156,1.2897 -0.31298,2.57456 -0.52192,3.854 -0.10535,0.6451 -0.24082,1.28494 -0.36871,1.92595 -0.16537,0.82884 -0.20191,1.69772 -0.51544,2.4826 -0.38015,0.95165 -0.94765,1.83973 -1.62097,2.61226 -0.46876,0.53782 -0.99338,1.0814 -1.64745,1.36631 -0.68398,0.29794 -2.2195,0.28846 -2.2195,0.28846 l 1.43606,-0.6502 c 0,0 1.05181,-0.55738 1.45603,-0.98043 0.5243,-0.54872 0.87954,-1.24947 1.18444,-1.94446 0.53987,-1.2306 0.85747,-2.55545 1.11309,-3.87473 0.15968,-0.82414 0.23722,-1.66587 0.25902,-2.50506 0.017,-0.65513 0.0625,-1.32871 -0.1004,-1.96349 -0.25516,-0.99411 -0.7482,-1.9343 -1.34315,-2.77059 -0.23911,-0.33611 -0.52076,-0.66363 -0.87491,-0.8751 -0.27492,-0.16416 -0.60128,-0.30445 -0.92018,-0.27568 -0.47209,0.0426 -0.89134,0.35647 -1.26715,0.64534 -0.28639,0.22014 -0.50141,0.52187 -0.72362,0.80666 z"
       id="path910"
       sodipodi:nodetypes="ssscsssssssssssssccssssssssss" />
    <path
       style="fill:#944826;fill-opacity:1;stroke:none;stroke-width:0.264583px;stroke-linecap:butt;stroke-linejoin:miter;stroke-opacity:1"
       d="m 140.8317,137.9357 c 0.40035,0.0951 0.85948,7.6e-4 1.21762,0.2034 0.43632,0.24688 0.78268,0.68158 0.97634,1.14399 0.25141,0.6003 -0.0858,1.3463 0.16913,1.94513 0.12805,0.30083 0.36861,0.56455 0.64537,0.73861 0.30201,0.18994 0.79701,0.0168 1.0315,0.28565 0.35219,0.40384 0.24343,1.05812 0.21432,1.59317 -0.0346,0.63646 -0.2405,1.25753 -0.45904,1.8563 -0.16913,0.4634 -0.32094,0.96351 -0.65365,1.32772 -0.42069,0.46052 -1.06217,0.65432 -1.59743,0.97456 -0.37868,0.22656 -0.71888,0.5441 -1.14186,0.66985 -0.28716,0.0854 -0.65015,0.21128 -0.89773,0.0426 -0.16092,-0.10964 -0.25709,-0.37121 -0.18776,-0.55317 0.12179,-0.31965 0.59395,-0.33955 0.89285,-0.50589 0.34185,-0.19025 0.71579,-0.32964 1.0299,-0.56286 0.3474,-0.25794 0.76367,-0.50896 0.9254,-0.91028 0.25468,-0.63195 0.12528,-1.38648 -0.0561,-2.04323 -0.0595,-0.21551 -0.16823,-0.42882 -0.3283,-0.58491 -0.30172,-0.29421 -0.71769,-0.45823 -1.1177,-0.59085 -0.41568,-0.13782 -0.92921,0.0343 -1.29826,-0.20152 -0.43165,-0.27576 -0.58762,-0.8401 -0.85211,-1.27874 -0.24791,-0.41115 -0.47602,-0.83464 -0.68726,-1.26578 -0.18175,-0.37096 -0.47737,-0.72215 -0.49824,-1.13471 -0.0165,-0.3271 0.0868,-0.68816 0.3022,-0.93492 0.20019,-0.22938 0.52938,-0.31573 0.82308,-0.39593 0.24385,-0.0666 0.5043,-0.0915 0.7556,-0.0642 0.27487,0.0298 0.52314,0.18208 0.79213,0.24601 z"
       id="path912"
       sodipodi:nodetypes="sssssssssssssssssssssssssss" />
    <path
       style="fill:#010101;fill-opacity:1;stroke:#000000;stroke-width:0.264583px;stroke-linecap:butt;stroke-linejoin:miter;stroke-opacity:1"
       d="m 140.5185,138.81073 c -0.28466,0.174 -0.26597,0.64136 -0.23307,0.97336 0.0457,0.46092 0.31419,0.884 0.58247,1.26157 0.17112,0.24083 0.35712,0.70832 0.63762,0.61558 0.27907,-0.0923 0.13997,-0.576 0.1443,-0.8699 0.005,-0.36962 -0.0453,-0.74413 -0.14917,-1.09891 -0.0748,-0.2556 -0.13049,-0.55573 -0.33633,-0.72471 -0.17123,-0.14057 -0.45679,-0.27253 -0.64582,-0.15699 z"
       id="path914"
       sodipodi:nodetypes="ssssssss" />
  </g>
  <g
     inkscape:groupmode="layer"
     id="layer5"
     inkscape:label="eyes 1"
     transform="translate(-64.809934,-77.868666)">
    <path
       style="fill:#a6a6a6;fill-opacity:1;stroke:#000000;stroke-width:0.264583px;stroke-linecap:butt;stroke-linejoin:miter;stroke-opacity:1"
       d="m 98.975176,135.67772 c 0,0 0.349431,-1.44523 0.781246,-2.02619 0.301508,-0.40565 0.748028,-0.69893 1.197458,-0.93018 0.46797,-0.24079 0.99418,-0.36276 1.51294,-0.45148 0.71334,-0.122 1.4455,-0.13765 2.1685,-0.10588 0.79266,0.0348 1.57866,0.17579 2.35808,0.3242 0.75807,0.14435 1.50139,0.35791 2.24889,0.5496 0.94359,0.24197 2.82236,0.75798 2.82236,0.75798 0,0 -1.47917,0.20295 -2.22009,0.294 -0.38515,0.0473 -0.79095,0.002 -1.15673,0.13113 -0.40786,0.14447 -0.70415,0.51113 -1.09428,0.69827 -0.62592,0.30024 -1.28155,0.60147 -1.97255,0.66803 -0.75872,0.0731 -1.51208,-0.19467 -2.26604,-0.30662 -0.66998,-0.0995 -1.32861,-0.32977 -2.00592,-0.32439 -0.35821,0.003 -0.71381,0.0892 -1.05803,0.1884 -0.454738,0.13105 -1.315834,0.53313 -1.315834,0.53313 z"
       id="path919"
       sodipodi:nodetypes="csssssscsssssssc" />
    <path
       style="fill:#a6a6a6;fill-opacity:1;stroke:#000000;stroke-width:0.264583px;stroke-linecap:butt;stroke-linejoin:miter;stroke-opacity:1"
       d="m 85.445369,138.82839 c 0,0 -1.010899,-1.2387 -1.632686,-1.73122 -0.479263,-0.37963 -0.986115,-0.80691 -1.58705,-0.91955 -0.626264,-0.11739 -1.283187,0.096 -1.888731,0.29425 -0.813796,0.26643 -1.545423,0.74335 -2.280682,1.18226 -0.774564,0.46238 -1.616935,0.8681 -2.23644,1.52381 -0.339144,0.35896 -0.556009,0.8215 -0.763395,1.26968 -0.332009,0.7175 -0.758322,2.24728 -0.758322,2.24728 0,0 0.633766,-0.81325 1.048581,-1.10691 0.400045,-0.28321 0.867765,-0.47858 1.342871,-0.59906 0.641387,-0.16265 1.31751,-0.14673 1.979171,-0.1529 0.381199,-0.004 0.764807,0.12409 1.141693,0.0668 0.453156,-0.0689 0.857524,-0.3241 1.286872,-0.48458 0.576903,-0.21564 1.149529,-0.4434 1.732275,-0.64271 0.475252,-0.16254 0.966226,-0.27795 1.43783,-0.45079 0.400081,-0.14663 1.178013,-0.49636 1.178013,-0.49636 z"
       id="path921"
       sodipodi:nodetypes="csssssscsssssssc" />
    <path
       style="fill:#000000;fill-opacity:1;stroke:#000000;stroke-width:0.264583px;stroke-linecap:butt;stroke-linejoin:miter;stroke-opacity:1"
       d="m 79.406506,136.88002 c 0,0 -0.35194,0.48541 -0.384858,0.77065 -0.03002,0.26017 0.07181,0.52667 0.1817,0.7644 0.168203,0.36389 0.392178,0.72698 0.711054,0.96993 0.216206,0.16473 0.494607,0.24155 0.762016,0.29026 0.362572,0.066 0.753196,0.10383 1.105604,-0.004 0.3734,-0.11426 0.674074,-0.40107 0.973241,-0.65203 0.250466,-0.21011 0.545544,-0.40913 0.67928,-0.70745 0.186158,-0.41525 0.106101,-1.36108 0.106101,-1.36108 -0.91229,-0.86404 -2.274287,-0.91657 -4.134138,-0.0707 z"
       id="path1151"
       sodipodi:nodetypes="csssssssccc" />
    <path
       style="fill:#000000;fill-opacity:1;stroke:#000000;stroke-width:0.264583px;stroke-linecap:butt;stroke-linejoin:miter;stroke-opacity:1"
       d="m 104.24175,132.18456 c 0,0 -0.29272,0.45078 -0.28187,0.70302 0.0158,0.36799 0.26824,0.69844 0.49777,0.98651 0.24583,0.30853 0.5536,0.58826 0.91082,0.75564 0.27487,0.1288 0.59189,0.17584 0.89529,0.16648 0.41911,-0.0129 0.85985,-0.0914 1.2202,-0.30576 0.30184,-0.17959 0.59383,-0.44557 0.71271,-0.77607 0.10357,-0.28796 -0.048,-0.9168 -0.048,-0.9168 -1.27606,-0.33029 -2.56797,-0.58454 -3.90692,-0.61302 z"
       id="path1153"
       sodipodi:nodetypes="csssssscc" />
  </g>
  <g
     inkscape:groupmode="layer"
     id="layer6"
     inkscape:label="eyebrow"
     transform="translate(-64.809934,-77.868666)">
    <path
       style="fill:#565656;fill-opacity:1;stroke:none;stroke-width:0.264583px;stroke-linecap:butt;stroke-linejoin:miter;stroke-opacity:1"
       d="m 96.625057,122.94307 c -0.334471,0.43431 -0.782665,0.94129 -0.707956,1.48435 0.08457,0.61473 1.225333,1.40143 1.225333,1.40143 0,0 1.80905,-0.84659 2.732047,-1.22698 1.433699,-0.59086 2.810939,-1.48703 4.354299,-1.63754 1.43547,-0.13999 2.89966,0.25564 4.26787,0.71189 1.63328,0.54464 4.58508,2.37807 4.58508,2.37807 l -0.58851,-2.90292 2.04472,-0.026 c 0,0 -0.45219,-1.07322 -0.8409,-1.49088 -0.86957,-0.93432 -2.01114,-1.63026 -3.1917,-2.11543 -1.44513,-0.59389 -3.03645,-0.89357 -4.5988,-0.90606 -1.54165,-0.0123 -3.11843,0.25314 -4.55159,0.82138 -0.93783,0.37184 -1.728264,1.04718 -2.53754,1.64957 -0.768611,0.57212 -1.607728,1.09998 -2.192353,1.85912 z"
       id="path940"
       sodipodi:nodetypes="sscssscccssssss" />
    <path
       style="fill:#565656;fill-opacity:1;stroke:none;stroke-width:0.264583px;stroke-linecap:butt;stroke-linejoin:miter;stroke-opacity:1"
       d="m 84.380376,126.99066 -1.336098,2.36949 c 0,0 -1.234074,-0.76668 -1.90744,-1.02789 -0.722928,-0.28044 -1.480931,-0.55862 -2.256311,-0.56612 -1.27042,-0.0123 -2.571401,0.30059 -3.714091,0.85591 -1.685755,0.81923 -4.378407,3.52785 -4.378407,3.52785 0,0 -0.02791,-0.53438 0.0446,-0.7869 0.192031,-0.66871 0.570731,-1.28588 1.005538,-1.82901 0.33202,-0.41473 0.777901,-0.7255 1.19475,-1.05486 0.787333,-0.62208 1.544399,-1.32475 2.460347,-1.73453 0.985259,-0.44078 2.079215,-0.63962 3.15482,-0.72962 0.898581,-0.0752 1.810196,0.0185 2.700243,0.16308 1.032804,0.16782 3.032049,0.8126 3.032049,0.8126 z"
       id="path942"
       sodipodi:nodetypes="ccssscssssssc" />
  </g>
  <g
     inkscape:groupmode="layer"
     id="layer9"
     inkscape:label="hand"
     style="display:inline"
     transform="translate(-64.809934,-77.868666)">
    <path
       style="fill:url(#linearGradient1169);fill-opacity:1;stroke:#000000;stroke-width:0.264583px;stroke-linecap:butt;stroke-linejoin:miter;stroke-opacity:1"
       d="m 95.424701,161.89179 c -0.224266,-0.65793 -0.476579,-1.3149 -0.585489,-2.00142 -0.173044,-1.09079 -0.173529,-2.20983 -0.0996,-3.31178 0.03651,-0.54419 0.0719,-1.10504 0.267214,-1.61428 0.17068,-0.44501 0.442136,-0.8588 0.76971,-1.20501 0.355207,-0.37542 0.804753,-0.65821 1.258525,-0.9056 0.329069,-0.1794 0.674595,-0.36443 1.046442,-0.41135 0.279433,-0.0353 0.585543,-0.0197 0.838513,0.10408 0.388974,0.19039 0.652289,0.57754 0.917305,0.92006 0.327849,0.42372 0.629529,0.88225 0.816859,1.38418 0.18729,0.50183 0.21433,1.05029 0.28969,1.5806 0.0961,0.67615 0.0685,1.36957 0.20672,2.03839 0.0432,0.20899 0.19313,0.61038 0.19313,0.61038 0,0 0.52699,0.11401 0.72543,0.28094 0.2882,0.24244 0.4583,0.61259 0.58238,0.96817 0.19872,0.5695 0.23444,1.79428 0.23444,1.79428 l 0.81136,-0.68897 1.22972,-1.30748 0.68982,-0.6416 6.41691,0.0474 2.68293,-2.81702 3.70125,-0.32425 c 0,0 1.00381,0.81197 1.54631,1.15943 0.54783,0.35088 1.11583,0.67901 1.71655,0.92873 1.01589,0.42231 2.06918,0.81333 3.16082,0.95011 1.32555,0.16609 2.67116,-0.26037 4.00409,-0.17108 0.51112,0.0342 1.51294,0.2698 1.51294,0.2698 0,0 0.80539,1.82052 1.15645,2.75137 0.43497,1.15335 0.99195,2.28728 1.17512,3.50624 0.22154,1.47434 -0.0141,2.98361 -0.11218,4.47127 -0.095,1.4411 -0.38422,2.8659 -0.46098,4.30808 -0.0385,0.72395 -0.21606,1.48306 5.3e-4,2.17492 0.12878,0.41136 0.3692,0.83791 0.73712,1.06248 0.30695,0.18736 0.72024,0.22745 1.06949,0.14174 1.13909,-0.27954 1.84965,-1.46029 2.87789,-2.02455 1.0444,-0.57313 2.20714,-0.89771 3.30461,-1.3612 1.0695,-0.45167 2.06149,-1.13857 3.19634,-1.38343 1.31628,-0.284 2.70342,-0.23733 4.03915,-0.0668 1.29022,0.16472 2.67012,0.33309 3.76019,1.0427 0.78487,0.51093 1.49943,1.2791 1.78227,2.17189 0.21657,0.68361 -0.15813,2.14548 -0.15813,2.14548 0,0 -2.04599,0.72417 -3.08298,1.04288 -0.97551,0.29981 -1.99162,0.46795 -2.95057,0.81712 -1.73359,0.63123 -3.43841,1.37392 -5.03503,2.29835 -0.4361,0.2525 -0.84795,0.55055 -1.22913,0.88015 -0.86968,0.75198 -1.7362,1.54058 -2.39195,2.48494 -0.28846,0.41541 -0.38266,0.94267 -0.65661,1.36779 -0.32161,0.49908 -1.14379,1.36542 -1.14379,1.36542 0,0 -1.55128,0.22559 -2.31874,0.38264 -1.29105,0.26419 -3.14967,4.16532 -4.44937,4.383 -0.92788,0.15541 -1.87308,0.17921 -2.81053,0.25857 -3.23235,0.27364 -6.46142,0.62149 -9.70278,0.75022 -3.32794,0.13217 -6.66578,0.19879 -9.99166,0.0222 -2.11754,-0.11243 -4.51763,0.42254 -6.32428,-0.68769 -1.642123,-1.00913 -2.027579,-6.43202 -2.545094,-8.28865 -0.239285,-0.85846 0.0892,-2.67206 0.0892,-2.67206 0,0 -0.995103,-1.51462 -1.394478,-2.32543 -0.282272,-0.57307 -0.583142,-1.15552 -0.702279,-1.78313 -0.162389,-0.85546 0.105526,-1.74788 0,-2.6122 -0.09697,-0.79421 -0.542858,-1.53046 -0.577516,-2.32982 -0.03107,-0.71653 0.209254,-1.41927 0.334976,-2.12536 0.13943,-0.78308 0.375286,-1.55014 0.464915,-2.34047 0.09429,-0.8314 0.09799,-1.67268 0.07469,-2.50909 -0.02985,-1.07169 -0.03118,-2.16044 -0.274495,-3.20457 -0.142269,-0.61052 -0.482082,-1.15835 -0.684338,-1.75171 z"
       id="path1143"
       sodipodi:nodetypes="sssssssssssscsscccccccsssscssssssssssssscsssssscssssssscsssssssss" />
  </g>
</svg>
